#N canvas -8 -8 1366 685 12;
#X obj 12 12 inlet;
#X obj 320 12 inlet;
#X obj 390 12 inlet;
#X obj 460 12 inlet;
#X obj 530 12 inlet;
#X obj 293 516 *~;
#X obj 190 187 t b f;
#X obj 190 322 f;
#X msg 416 438 1 \$1;
#X obj 416 409 f;
#X obj 488 322 delay;
#X obj 488 351 f;
#X obj 293 555 outlet~;
#X msg 607 438 0 \$1;
#X obj 190 158 sel 0;
#X obj 607 380 bng 15 250 50 0 empty empty empty 17 7 0 10 -262144
-1 -1;
#X obj 607 409 f;
#X obj 294 409 f;
#X msg 294 438 0 \$1;
#X obj 239 187 expr if ($f1==1 \, 0 \, 1);
#X obj 84 129 * 10;
#X obj 190 225 spigot;
#X obj 411 225 spigot;
#X obj 12 71 route legato anticlip;
#X obj 488 438 spigot;
#X obj 190 100 t f f;
#X obj 294 477 line~;
#X obj 488 380 pack f f;
#X msg 488 409 \$1 \$2;
#X obj 320 41 s \$0-att;
#X obj 390 41 s \$0-dec;
#X obj 460 41 s \$0-sus;
#X obj 530 41 s \$0-rel;
#X obj 479 283 r \$0-att;
#X obj 541 351 r \$0-dec;
#X obj 537 322 r \$0-sus;
#X obj 625 380 r \$0-rel;
#X obj 222 129 s \$0-vel;
#X obj 537 409 r \$0-vel;
#X obj 12 100 s \$0-legato;
#X obj 239 158 r \$0-legato;
#X obj 450 196 r \$0-legato;
#X obj 607 322 r \$0-vel;
#X obj 607 351 sel 0;
#X obj 84 158 s \$0-anticlip;
#X obj 232 254 r \$0-anticlip;
#X obj 312 380 r \$0-anticlip;
#X obj 190 283 delay;
#X obj 411 254 s \$0-on;
#X obj 225 322 s \$0-on;
#X obj 416 283 r \$0-on;
#X obj 61 12 loadbang;
#X msg 61 41 0;
#X msg 96 41 1;
#X text 709 179 el primer inlet recibe la amplitud máxima de la envolvente
(si se usa velocidad midi \, recomiendo dividirla por 127 antes de
enviarla aquí si no se desea saturación);
#X text 709 104 este objeto recibe valores de ataque decay y release
(en ms) y sustain (recomiendo usar valores entre 0 y 1 si no se desea
saturación o inversión de fase);
#X text 709 234 también recibe mensajes "legato 1" "legato 0" y "anticlip
1" "anticlip 0" para prender y apagar el legato y el anticlip;
#X text 709 275 cuando la función de legato está apagada \, la función
de anticlip hace una rampa en la envolvente a 0 en 10 ms para evitar
clipeo al iniciar un nuevo ataque;
#X connect 0 0 23 0;
#X connect 1 0 29 0;
#X connect 2 0 30 0;
#X connect 3 0 31 0;
#X connect 4 0 32 0;
#X connect 5 0 12 0;
#X connect 6 0 17 0;
#X connect 6 0 21 0;
#X connect 6 0 22 0;
#X connect 6 1 7 1;
#X connect 7 0 5 1;
#X connect 8 0 26 0;
#X connect 9 0 8 0;
#X connect 10 0 11 0;
#X connect 11 0 27 0;
#X connect 13 0 26 0;
#X connect 14 1 6 0;
#X connect 15 0 16 0;
#X connect 16 0 13 0;
#X connect 17 0 18 0;
#X connect 18 0 26 0;
#X connect 19 0 21 1;
#X connect 20 0 44 0;
#X connect 21 0 47 0;
#X connect 22 0 48 0;
#X connect 22 0 7 0;
#X connect 23 0 39 0;
#X connect 23 1 20 0;
#X connect 23 2 25 0;
#X connect 24 0 26 0;
#X connect 25 0 14 0;
#X connect 25 1 37 0;
#X connect 26 0 5 0;
#X connect 27 0 28 0;
#X connect 28 0 24 0;
#X connect 33 0 10 1;
#X connect 33 0 9 1;
#X connect 34 0 27 1;
#X connect 35 0 11 1;
#X connect 36 0 16 1;
#X connect 38 0 24 1;
#X connect 40 0 19 0;
#X connect 41 0 22 1;
#X connect 42 0 43 0;
#X connect 43 0 15 0;
#X connect 45 0 47 1;
#X connect 46 0 17 1;
#X connect 47 0 7 0;
#X connect 47 0 49 0;
#X connect 50 0 10 0;
#X connect 50 0 9 0;
#X connect 51 0 52 0;
#X connect 51 0 53 0;
#X connect 52 0 39 0;
#X connect 53 0 20 0;
