#N canvas -8 -8 1370 729 12;
#X obj 769 469 *~;
#N canvas -8 -8 1366 685 adsr 0;
#X obj 224 137 outlet;
#X msg 376 41 legato \$1;
#X msg 463 41 anticlip \$1;
#N canvas -8 -8 1366 685 adsr-op1 0;
#X floatatom 12 70 5 0 0 0 - - -;
#X floatatom 124 70 5 0 0 0 - - -;
#X floatatom 236 70 5 0 0 0 - - -;
#X floatatom 348 70 5 0 0 0 - - -;
#X obj 12 186 outlet;
#X obj 124 186 outlet;
#X obj 236 186 outlet;
#X obj 348 186 outlet;
#X msg 236 127 op1 sus \$1;
#X msg 348 127 op1 rel \$1;
#X msg 124 127 op1 dec \$1;
#X msg 12 127 op1 att \$1;
#X obj 236 98 expr $f1*0.01;
#X obj 12 11 r \$0-op1-att;
#X obj 124 11 r \$0-op1-dec;
#X obj 236 11 r \$0-op1-sus;
#X obj 348 11 r \$0-op1-rel;
#X connect 0 0 11 0;
#X connect 1 0 10 0;
#X connect 2 0 12 0;
#X connect 3 0 9 0;
#X connect 8 0 6 0;
#X connect 9 0 7 0;
#X connect 10 0 5 0;
#X connect 11 0 4 0;
#X connect 12 0 8 0;
#X connect 13 0 0 0;
#X connect 14 0 1 0;
#X connect 15 0 2 0;
#X connect 16 0 3 0;
#X restore 12 12 pd adsr-op1;
#N canvas -8 -8 1366 685 adsr-op2 0;
#X floatatom 12 80 5 0 0 0 - - -;
#X floatatom 124 80 5 0 0 0 - - -;
#X floatatom 236 80 5 0 0 0 - - -;
#X floatatom 348 80 5 0 0 0 - - -;
#X obj 12 196 outlet;
#X obj 124 196 outlet;
#X obj 236 196 outlet;
#X obj 348 196 outlet;
#X msg 348 137 op2 rel \$1;
#X msg 236 137 op2 sus \$1;
#X msg 124 137 op2 dec \$1;
#X msg 12 137 op2 att \$1;
#X obj 236 108 expr $f1*0.01;
#X obj 12 11 r \$0-op2-att;
#X obj 124 11 r \$0-op2-dec;
#X obj 236 11 r \$0-op2-sus;
#X obj 348 11 r \$0-op2-rel;
#X connect 0 0 11 0;
#X connect 1 0 10 0;
#X connect 2 0 12 0;
#X connect 3 0 8 0;
#X connect 8 0 7 0;
#X connect 9 0 6 0;
#X connect 10 0 5 0;
#X connect 11 0 4 0;
#X connect 12 0 9 0;
#X connect 13 0 0 0;
#X connect 14 0 1 0;
#X connect 15 0 2 0;
#X connect 16 0 3 0;
#X restore 103 12 pd adsr-op2;
#N canvas -8 -8 1366 685 adsr-op3 0;
#X floatatom 12 71 5 0 0 0 - - -;
#X floatatom 124 71 5 0 0 0 - - -;
#X floatatom 236 71 5 0 0 0 - - -;
#X floatatom 348 71 5 0 0 0 - - -;
#X obj 12 187 outlet;
#X obj 124 187 outlet;
#X obj 236 187 outlet;
#X obj 348 187 outlet;
#X msg 236 128 op3 sus \$1;
#X msg 348 128 op3 rel \$1;
#X msg 124 128 op3 dec \$1;
#X msg 12 128 op3 att \$1;
#X obj 236 99 expr $f1*0.01;
#X obj 12 12 r \$0-op3-att;
#X obj 124 12 r \$0-op3-dec;
#X obj 236 12 r \$0-op3-sus;
#X obj 348 12 r \$0-op3-rel;
#X connect 0 0 11 0;
#X connect 1 0 10 0;
#X connect 2 0 12 0;
#X connect 3 0 9 0;
#X connect 8 0 6 0;
#X connect 9 0 7 0;
#X connect 10 0 5 0;
#X connect 11 0 4 0;
#X connect 12 0 8 0;
#X connect 13 0 0 0;
#X connect 14 0 1 0;
#X connect 15 0 2 0;
#X connect 16 0 3 0;
#X restore 194 12 pd adsr-op3;
#N canvas -8 -8 1366 685 adsr-op4 0;
#X floatatom 12 81 5 0 0 0 - - -;
#X floatatom 124 81 5 0 0 0 - - -;
#X floatatom 236 81 5 0 0 0 - - -;
#X floatatom 348 81 5 0 0 0 - - -;
#X obj 12 197 outlet;
#X obj 124 197 outlet;
#X obj 236 197 outlet;
#X obj 348 197 outlet;
#X msg 12 138 op4 att \$1;
#X msg 124 138 op4 dec \$1;
#X msg 236 138 op4 sus \$1;
#X msg 348 138 op4 rel \$1;
#X obj 236 109 expr $f1*0.01;
#X obj 12 12 r \$0-op4-att;
#X obj 124 12 r \$0-op4-dec;
#X obj 236 12 r \$0-op4-sus;
#X obj 348 12 r \$0-op4-rel;
#X obj 446 12 r \$0-init;
#X msg 446 41 100;
#X obj 446 99 s \$0-op4-sus-r;
#X msg 446 70 set \$1;
#X connect 0 0 8 0;
#X connect 1 0 9 0;
#X connect 2 0 12 0;
#X connect 3 0 11 0;
#X connect 8 0 4 0;
#X connect 9 0 5 0;
#X connect 10 0 6 0;
#X connect 11 0 7 0;
#X connect 12 0 10 0;
#X connect 13 0 0 0;
#X connect 14 0 1 0;
#X connect 15 0 2 0;
#X connect 16 0 3 0;
#X connect 17 0 18 0;
#X connect 18 0 2 0;
#X connect 18 0 20 0;
#X connect 20 0 19 0;
#X restore 285 12 pd adsr-op4;
#X obj 376 12 r \$0-legato;
#X obj 463 12 r \$0-anticlip;
#X text 57 176 valores de adsr para cada operador y legato;
#X obj 740 236 r \$0-init;
#X msg 740 265 0;
#X msg 775 265 1;
#X connect 1 0 0 0;
#X connect 2 0 0 0;
#X connect 3 0 0 0;
#X connect 3 1 0 0;
#X connect 3 2 0 0;
#X connect 3 3 0 0;
#X connect 4 0 0 0;
#X connect 4 1 0 0;
#X connect 4 2 0 0;
#X connect 4 3 0 0;
#X connect 5 0 0 0;
#X connect 5 1 0 0;
#X connect 5 2 0 0;
#X connect 5 3 0 0;
#X connect 6 0 0 0;
#X connect 6 1 0 0;
#X connect 6 2 0 0;
#X connect 6 3 0 0;
#X connect 7 0 1 0;
#X connect 8 0 2 0;
#X connect 10 0 11 0;
#X connect 10 0 12 0;
#X connect 11 0 1 0;
#X connect 12 0 2 0;
#X restore 847 323 pd adsr;
#X obj 768 411 clone fm~ 16, f 40;
#X obj 116 137 cnv 15 602 385 empty \$0-text empty 20 12 0 14 -70738
-183085 0;
#X obj 135 148 cnv 15 15 15 empty \$0-text op1: 0 7 0 14 -70738 -183085
0;
#X obj 282 175 vsl 24 83 0 100 0 0 \$0-op2-gain-s \$0-op2-gain-r empty
0 -9 0 10 -49933 -183085 -183085 0 1;
#X obj 135 175 vsl 24 83 0 100 0 0 \$0-op1-gain-s \$0-op1-gain-r empty
0 -9 0 10 -49933 -183085 -183085 0 1;
#X obj 191 174 nbx 4 18 0 9999 0 0 \$0-op1-att-s \$0-op1-att-r empty
0 -8 0 10 -49933 -183085 -183085 0 256;
#X obj 191 197 nbx 4 18 0 9999 0 0 \$0-op1-dec-s \$0-op1-dec-r empty
0 -8 0 10 -49933 -183085 -183085 0 256;
#X obj 191 220 nbx 4 18 0 100 0 0 \$0-op1-sus-s \$0-op1-sus-r empty
0 -8 0 10 -49933 -183085 -183085 0 256;
#X obj 191 243 nbx 4 18 0 9999 0 0 \$0-op1-rel-s \$0-op1-rel-r empty
0 -8 0 10 -49933 -183085 -183085 0 256;
#X obj 314 294 nbx 5 18 -999 999 0 0 \$0-op2-fine-s \$0-op2-fine-r
empty 0 -8 0 10 -49933 -183085 -183085 0 256;
#X obj 285 338 hsl 113 15 0 100 0 0 \$0-op2-lfo-s \$0-op2-lfo-r empty
-2 -8 0 10 -49933 -183085 -183085 0 1;
#X obj 282 148 cnv 15 15 15 empty \$0-text op2: 0 7 0 14 -70738 -183085
0;
#X obj 331 322 cnv 15 15 15 empty \$0-text lfo 0 7 0 12 -70738 -183085
0;
#X obj 282 296 cnv 15 15 15 empty \$0-text fine 0 7 0 12 -70738 -183085
0;
#X obj 167 176 cnv 15 15 15 empty \$0-text att 0 7 0 12 -70738 -183085
0;
#X obj 167 199 cnv 15 15 15 empty \$0-text dec 0 7 0 12 -70738 -183085
0;
#X obj 167 222 cnv 15 15 15 empty \$0-text sus 0 7 0 12 -70738 -183085
0;
#X obj 168 245 cnv 15 15 15 empty \$0-text rel 0 7 0 12 -70738 -183085
0;
#X obj 243 176 cnv 15 15 15 empty \$0-text ms 0 7 0 12 -70738 -183085
0;
#X obj 243 199 cnv 15 15 15 empty \$0-text ms 0 7 0 12 -70738 -183085
0;
#X obj 243 245 cnv 15 15 15 empty \$0-text ms 0 7 0 12 -70738 -183085
0;
#X obj 314 178 cnv 15 15 15 empty \$0-text att 0 7 0 12 -70738 -183085
0;
#X obj 314 201 cnv 15 15 15 empty \$0-text dec 0 7 0 12 -70738 -183085
0;
#X obj 314 224 cnv 15 15 15 empty \$0-text sus 0 7 0 12 -70738 -183085
0;
#X obj 315 247 cnv 15 15 15 empty \$0-text rel 0 7 0 12 -70738 -183085
0;
#X obj 390 176 cnv 15 15 15 empty \$0-text ms 0 7 0 12 -70738 -183085
0;
#X obj 390 199 cnv 15 15 15 empty \$0-text ms 0 7 0 12 -70738 -183085
0;
#X obj 390 245 cnv 15 15 15 empty \$0-text ms 0 7 0 12 -70738 -183085
0;
#X obj 338 174 nbx 4 18 0 9999 0 0 \$0-op2-att-s \$0-op2-att-r empty
0 -8 0 10 -49933 -183085 -183085 0 256;
#X obj 338 197 nbx 4 18 0 9999 0 0 \$0-op2-dec-s \$0-op2-dec-r empty
0 -8 0 10 -49933 -183085 -183085 0 256;
#X obj 338 220 nbx 4 18 0 100 0 0 \$0-op2-sus-s \$0-op2-sus-r empty
0 -8 0 10 -49933 -183085 -183085 0 256;
#X obj 338 243 nbx 4 18 0 9999 0 0 \$0-op2-rel-s \$0-op2-rel-r empty
0 -8 0 10 -49933 -183085 -183085 0 256;
#X obj 167 294 nbx 5 18 -999 999 0 0 \$0-op1-fine-s \$0-op1-fine-r
empty 0 -8 0 10 -49933 -183085 -183085 0 256;
#X obj 138 338 hsl 113 15 0 100 0 0 \$0-op1-lfo-s \$0-op1-lfo-r empty
-2 -8 0 10 -49933 -183085 -183085 0 1;
#X obj 228 296 cnv 15 15 15 empty \$0-text cent 0 7 0 12 -70738 -183085
0;
#X obj 184 322 cnv 15 15 15 empty \$0-text lfo 0 7 0 12 -70738 -183085
0;
#X obj 135 296 cnv 15 15 15 empty \$0-text fine 0 7 0 12 -70738 -183085
0;
#X obj 267 148 cnv 2 1 205 empty \$0-bar empty 20 12 0 14 -183085 -70738
0;
#X obj 429 175 vsl 24 83 0 100 0 0 \$0-op3-gain-s \$0-op3-gain-r empty
0 -9 0 10 -49933 -183085 -183085 0 1;
#X obj 461 294 nbx 5 18 -999 999 0 0 \$0-op3-fine-s \$0-op3-fine-r
empty 0 -8 0 10 -49933 -183085 -183085 0 256;
#X obj 432 338 hsl 113 15 0 100 0 0 \$0-op3-lfo-s \$0-op3-lfo-r empty
-2 -8 0 10 -49933 -183085 -183085 0 1;
#X obj 429 148 cnv 15 15 15 empty \$0-text op3: 0 7 0 14 -70738 -183085
0;
#X obj 478 322 cnv 15 15 15 empty \$0-text lfo 0 7 0 12 -70738 -183085
0;
#X obj 429 296 cnv 15 15 15 empty \$0-text fine 0 7 0 12 -70738 -183085
0;
#X obj 461 176 cnv 15 15 15 empty \$0-text att 0 7 0 12 -70738 -183085
0;
#X obj 461 199 cnv 15 15 15 empty \$0-text dec 0 7 0 12 -70738 -183085
0;
#X obj 461 222 cnv 15 15 15 empty \$0-text sus 0 7 0 12 -70738 -183085
0;
#X obj 462 245 cnv 15 15 15 empty \$0-text rel 0 7 0 12 -70738 -183085
0;
#X obj 537 176 cnv 15 15 15 empty \$0-text ms 0 7 0 12 -70738 -183085
0;
#X obj 537 199 cnv 15 15 15 empty \$0-text ms 0 7 0 12 -70738 -183085
0;
#X obj 537 245 cnv 15 15 15 empty \$0-text ms 0 7 0 12 -70738 -183085
0;
#X obj 485 174 nbx 4 18 0 9999 0 0 \$0-op3-att-s \$0-op3-att-r empty
0 -8 0 10 -49933 -183085 -183085 0 256;
#X obj 485 197 nbx 4 18 0 9999 0 0 \$0-op3-dec-s \$0-op3-dec-r empty
0 -8 0 10 -49933 -183085 -183085 0 256;
#X obj 485 220 nbx 4 18 0 100 0 0 \$0-op3-sus-s \$0-op3-sus-r empty
0 -8 0 10 -49933 -183085 -183085 0 256;
#X obj 485 243 nbx 4 18 0 9999 0 0 \$0-op3-rel-s \$0-op3-rel-r empty
0 -8 0 10 -49933 -183085 -183085 0 256;
#X obj 576 175 vsl 24 83 0 100 0 0 \$0-op4-gain-s \$0-op4-gain-r empty
0 -9 0 10 -49933 -183085 -183085 8200 1;
#X obj 608 271 nbx 4 18 0 999 0 0 \$0-op4-freq-s \$0-op4-freq-r empty
0 -8 0 10 -49933 -183085 -183085 1 256;
#X obj 608 294 nbx 5 18 -999 999 0 0 \$0-op4-fine-s \$0-op4-fine-r
empty 0 -8 0 10 -49933 -183085 -183085 0 256;
#X obj 579 338 hsl 113 15 0 100 0 0 \$0-op4-lfo-s \$0-op4-lfo-r empty
-2 -8 0 10 -49933 -183085 -183085 0 1;
#X obj 576 148 cnv 15 15 15 empty \$0-text op4: 0 7 0 14 -70738 -183085
0;
#X obj 625 322 cnv 15 15 15 empty \$0-text lfo 0 7 0 12 -70738 -183085
0;
#X obj 576 296 cnv 15 15 15 empty \$0-text fine 0 7 0 12 -70738 -183085
0;
#X obj 608 176 cnv 15 15 15 empty \$0-text att 0 7 0 12 -70738 -183085
0;
#X obj 608 199 cnv 15 15 15 empty \$0-text dec 0 7 0 12 -70738 -183085
0;
#X obj 608 222 cnv 15 15 15 empty \$0-text sus 0 7 0 12 -70738 -183085
0;
#X obj 609 245 cnv 15 15 15 empty \$0-text rel 0 7 0 12 -70738 -183085
0;
#X obj 684 176 cnv 15 15 15 empty \$0-text ms 0 7 0 12 -70738 -183085
0;
#X obj 684 199 cnv 15 15 15 empty \$0-text ms 0 7 0 12 -70738 -183085
0;
#X obj 684 245 cnv 15 15 15 empty \$0-text ms 0 7 0 12 -70738 -183085
0;
#X obj 632 174 nbx 4 18 0 9999 0 0 \$0-op4-att-s \$0-op4-att-r empty
0 -8 0 10 -49933 -183085 -183085 0 256;
#X obj 632 197 nbx 4 18 0 9999 0 0 \$0-op4-dec-s \$0-op4-dec-r empty
0 -8 0 10 -49933 -183085 -183085 0 256;
#X obj 632 220 nbx 4 18 0 100 0 0 \$0-op4-sus-s \$0-op4-sus-r empty
0 -8 0 10 -49933 -183085 -183085 100 256;
#X obj 632 243 nbx 4 18 0 9999 0 0 \$0-op4-rel-s \$0-op4-rel-r empty
0 -8 0 10 -49933 -183085 -183085 0 256;
#X obj 414 148 cnv 2 1 205 empty \$0-bar empty 20 12 0 14 -183085 -70738
0;
#X obj 561 148 cnv 2 1 205 empty \$0-bar empty 20 12 0 14 -183085 -70738
0;
#X obj 576 273 cnv 15 15 15 empty \$0-text freq 0 7 0 12 -70738 -183085
0;
#X obj 393 490 nbx 3 18 0 999 0 0 \$0-lfo-freq-s \$0-lfo-freq-r empty
0 -8 0 10 -49933 -183085 -183085 0 256;
#X obj 436 492 cnv 15 15 15 empty \$0-text hz 0 7 0 12 -70738 -183085
0;
#X obj 363 492 cnv 15 15 15 empty \$0-text freq 0 7 0 12 -70738 -183085
0;
#X obj 461 271 nbx 4 18 0 999 0 0 \$0-op3-freq-s \$0-op3-freq-r empty
0 -8 0 10 -49933 -183085 -183085 1 256;
#X obj 429 273 cnv 15 15 15 empty \$0-text freq 0 7 0 12 -70738 -183085
0;
#X obj 314 271 nbx 4 18 0 999 0 0 \$0-op2-freq-s \$0-op2-freq-r empty
0 -8 0 10 -49933 -183085 -183085 1 256;
#X obj 282 273 cnv 15 15 15 empty \$0-text freq 0 7 0 12 -70738 -183085
0;
#X obj 167 271 nbx 4 18 0 999 0 0 \$0-op1-freq-s \$0-op1-freq-r empty
0 -8 0 10 -49933 -183085 -183085 1 256;
#X obj 135 273 cnv 15 15 15 empty \$0-text freq 0 7 0 12 -70738 -183085
0;
#X obj 127 360 cnv 2 579 1 empty \$0-bar empty 20 12 0 14 -183085 -70738
0;
#X obj 459 368 cnv 2 1 142 empty \$0-bar empty 20 12 0 14 -183085 -70738
0;
#X obj 394 368 cnv 15 15 15 empty \$0-text lfo: 0 7 0 14 -70738 -183085
0;
#X obj 636 373 vsl 15 119 0 100 0 0 \$0-out-gain-s \$0-out-gain-r empty
0 -9 0 10 -49933 -183085 -183085 10620 1;
#X obj 577 368 cnv 2 1 128 empty \$0-bar empty 20 12 0 14 -183085 -70738
0;
#X obj 546 427 nbx 1 18 0 7 0 0 \$0-alg-s \$0-alg-r empty 0 -8 0 10
-49933 -183085 -183085 0 256;
#X obj 354 368 cnv 2 1 142 empty \$0-bar empty 20 12 0 14 -183085 -70738
0;
#X obj 224 419 tgl 15 0 \$0-legato-s \$0-legato-r empty 17 7 0 10 -49933
-183085 -183085 0 1;
#X obj 244 418 cnv 15 15 15 empty \$0-legato-text legato 0 7 0 12 -70738
-183085 0;
#X obj 375 296 cnv 15 15 15 empty \$0-text cent 0 7 0 12 -70738 -183085
0;
#X obj 522 296 cnv 15 15 15 empty \$0-text cent 0 7 0 12 -70738 -183085
0;
#X obj 669 296 cnv 15 15 15 empty \$0-text cent 0 7 0 12 -70738 -183085
0;
#X obj 769 508 dac~;
#X obj 768 158 notein, f 7;
#X obj 768 187 pack;
#X obj 856 158 bendin;
#X obj 487 389 cnv 15 15 15 empty \$0-route-op1 1 4 8 0 12 -49933 -183085
0;
#X obj 493 406 cnv 2 1 35 empty \$0-route-op1-cable empty 20 12 0 14
-183085 -70738 0;
#X obj 495 470 cnv 15 15 15 empty \$0-route-out V 4 8 0 12 -70738 -183085
0;
#X obj 504 389 cnv 15 15 15 empty \$0-route-op2 2 4 8 0 12 -49933 -183085
0;
#X obj 510 406 cnv 2 1 8 empty \$0-route-op2-cable empty 20 12 0 14
-183085 -70738 0;
#X obj 504 416 cnv 15 15 15 empty \$0-route-op3 3 4 8 0 12 -49933 -183085
0;
#X obj 510 433 cnv 2 1 8 empty \$0-route-op3-cable empty 20 12 0 14
-183085 -70738 0;
#X obj 495 443 cnv 15 15 15 empty \$0-route-op4 4 4 8 0 12 -49933 -183085
0;
#X obj 501 460 cnv 2 1 8 empty \$0-route-op4-cable empty 20 12 0 14
-183085 -70738 0;
#X obj 11 11 cnv 2 1 8 empty \$0-route-op1-cable2 empty 20 12 0 14
-183085 -70738 0;
#X obj 11 11 cnv 2 1 8 empty \$0-route-op1-cable3 empty 20 12 0 14
-183085 -70738 0;
#X obj 11 11 cnv 2 31 1 empty \$0-route-out-cable empty 20 12 0 14
-183085 -70738 0;
#X obj 11 11 cnv 2 30 1 empty \$0-route-op1-cableh empty 20 12 0 14
-183085 -70738 0;
#X obj 656 371 cnv 15 10 10 empty \$0-text 100dB 0 7 0 12 -70738 -183085
0;
#X obj 656 480 cnv 15 10 10 empty \$0-text 0dB 0 7 0 12 -70738 -183085
0;
#X obj 807 284 targetall;
#X obj 847 352 targetall;
#X obj 886 284 targetall;
#X obj 926 352 targetall;
#X obj 965 284 targetall;
#X obj 1005 352 targetall;
#X obj 612 503 cnv 15 102 15 empty \$0-author dylan_martin 1 7 0 14
-183085 -70738 0;
#X obj 513 503 cnv 15 95 15 empty \$0-name dm7617_v1.0 1 7 0 14 -183085
-70738 0;
#N canvas -8 -8 1366 685 camomile 0;
#N canvas -8 -8 1366 685 parameters-receive 0;
#X obj 12 12 r param;
#N canvas 329 174 792 300 r-global 0;
#X obj 12 12 inlet;
#X obj 12 100 change;
#X obj 141 100 change;
#X obj 141 71 route 2;
#X obj 235 100 change;
#X obj 364 100 change;
#X obj 479 100 change;
#X obj 235 71 route 3;
#X obj 364 71 route 4;
#X obj 479 71 route 5;
#X msg 22 129 set \$1;
#X msg 151 129 set \$1;
#X msg 245 129 set \$1;
#X msg 374 129 set \$1;
#X msg 489 129 set \$1;
#X obj 12 71 route 1;
#X obj 22 158 s \$0-out-gain-r;
#X obj 151 158 s \$0-alg-r;
#X obj 245 158 s \$0-bendMode-r;
#X obj 374 158 s \$0-legato-r;
#X obj 12 187 s \$0-out-gain;
#X obj 141 187 s \$0-alg;
#X obj 235 187 s \$0-bendMode;
#X obj 364 187 s \$0-legato;
#X obj 489 158 s \$0-voice-steal-r;
#X obj 479 187 s \$0-voice-steal;
#X obj 629 100 change;
#X msg 639 129 set \$1;
#X obj 639 158 s \$0-voice-poly-r;
#X obj 629 187 s \$0-voice-poly;
#X obj 629 71 route 6;
#X connect 0 0 3 0;
#X connect 0 0 9 0;
#X connect 0 0 8 0;
#X connect 0 0 7 0;
#X connect 0 0 15 0;
#X connect 0 0 30 0;
#X connect 1 0 10 0;
#X connect 1 0 20 0;
#X connect 2 0 11 0;
#X connect 2 0 21 0;
#X connect 3 0 2 0;
#X connect 4 0 12 0;
#X connect 4 0 22 0;
#X connect 5 0 13 0;
#X connect 5 0 23 0;
#X connect 6 0 14 0;
#X connect 6 0 25 0;
#X connect 7 0 4 0;
#X connect 8 0 5 0;
#X connect 9 0 6 0;
#X connect 10 0 16 0;
#X connect 11 0 17 0;
#X connect 12 0 18 0;
#X connect 13 0 19 0;
#X connect 14 0 24 0;
#X connect 15 0 1 0;
#X connect 26 0 27 0;
#X connect 26 0 29 0;
#X connect 27 0 28 0;
#X connect 30 0 26 0;
#X restore 19 51 pd r-global;
#N canvas 0 50 1370 300 r-op1 0;
#X obj 12 12 inlet;
#X obj 12 100 change;
#X obj 141 100 change;
#X obj 263 100 change;
#X obj 385 100 change;
#X obj 507 100 change;
#X obj 629 100 change;
#X obj 758 100 change;
#X obj 887 100 change;
#X obj 1009 100 change;
#X msg 22 129 set \$1;
#X msg 151 129 set \$1;
#X msg 273 129 set \$1;
#X msg 395 129 set \$1;
#X msg 517 129 set \$1;
#X msg 639 129 set \$1;
#X msg 768 129 set \$1;
#X msg 897 129 set \$1;
#X msg 1019 129 set \$1;
#X obj 22 158 s \$0-op1-gain-r;
#X obj 151 158 s \$0-op1-att-r;
#X obj 273 158 s \$0-op1-dec-r;
#X obj 395 158 s \$0-op1-sus-r;
#X obj 517 158 s \$0-op1-rel-r;
#X obj 639 158 s \$0-op1-freq-r;
#X obj 768 158 s \$0-op1-fine-r;
#X obj 897 158 s \$0-op1-lfo-r;
#X obj 12 187 s \$0-op1-gain;
#X obj 141 187 s \$0-op1-att;
#X obj 263 187 s \$0-op1-dec;
#X obj 385 187 s \$0-op1-sus;
#X obj 507 187 s \$0-op1-rel;
#X obj 629 187 s \$0-op1-freq;
#X obj 758 187 s \$0-op1-fine;
#X obj 887 187 s \$0-op1-lfo;
#X obj 1019 158 s \$0-op1-self-gain-r;
#X obj 1009 187 s \$0-op1-self-gain;
#X obj 1173 100 change;
#X msg 1183 129 set \$1;
#X obj 1173 187 s \$0-op1-self-lfo;
#X obj 1183 158 s \$0-op1-self-lfo-r;
#X obj 12 71 route 7;
#X obj 141 71 route 8;
#X obj 263 71 route 9;
#X obj 385 71 route 10;
#X obj 507 71 route 11;
#X obj 629 71 route 12;
#X obj 758 71 route 13;
#X obj 887 71 route 14;
#X obj 1009 71 route 15;
#X obj 1173 71 route 16;
#X connect 0 0 41 0;
#X connect 0 0 42 0;
#X connect 0 0 43 0;
#X connect 0 0 44 0;
#X connect 0 0 45 0;
#X connect 0 0 46 0;
#X connect 0 0 47 0;
#X connect 0 0 48 0;
#X connect 0 0 49 0;
#X connect 0 0 50 0;
#X connect 1 0 10 0;
#X connect 1 0 27 0;
#X connect 2 0 11 0;
#X connect 2 0 28 0;
#X connect 3 0 12 0;
#X connect 3 0 29 0;
#X connect 4 0 13 0;
#X connect 4 0 30 0;
#X connect 5 0 14 0;
#X connect 5 0 31 0;
#X connect 6 0 15 0;
#X connect 6 0 32 0;
#X connect 7 0 16 0;
#X connect 7 0 33 0;
#X connect 8 0 17 0;
#X connect 8 0 34 0;
#X connect 9 0 18 0;
#X connect 9 0 36 0;
#X connect 10 0 19 0;
#X connect 11 0 20 0;
#X connect 12 0 21 0;
#X connect 13 0 22 0;
#X connect 14 0 23 0;
#X connect 15 0 24 0;
#X connect 16 0 25 0;
#X connect 17 0 26 0;
#X connect 18 0 35 0;
#X connect 37 0 38 0;
#X connect 37 0 39 0;
#X connect 38 0 40 0;
#X connect 41 0 1 0;
#X connect 42 0 2 0;
#X connect 43 0 3 0;
#X connect 44 0 4 0;
#X connect 45 0 5 0;
#X connect 46 0 6 0;
#X connect 47 0 7 0;
#X connect 48 0 8 0;
#X connect 49 0 9 0;
#X connect 50 0 37 0;
#X restore 29 80 pd r-op1;
#N canvas 0 50 1315 300 r-op2 0;
#X obj 12 12 inlet;
#X obj 12 100 change;
#X obj 141 100 change;
#X obj 263 100 change;
#X obj 385 100 change;
#X obj 507 100 change;
#X obj 629 100 change;
#X obj 758 100 change;
#X obj 887 100 change;
#X msg 22 129 set \$1;
#X msg 151 129 set \$1;
#X msg 273 129 set \$1;
#X msg 395 129 set \$1;
#X msg 517 129 set \$1;
#X msg 639 129 set \$1;
#X msg 768 129 set \$1;
#X msg 897 129 set \$1;
#X obj 22 158 s \$0-op2-gain-r;
#X obj 151 158 s \$0-op2-att-r;
#X obj 273 158 s \$0-op2-dec-r;
#X obj 395 158 s \$0-op2-sus-r;
#X obj 517 158 s \$0-op2-rel-r;
#X obj 639 158 s \$0-op2-freq-r;
#X obj 768 158 s \$0-op2-fine-r;
#X obj 897 158 s \$0-op2-lfo-r;
#X obj 12 187 s \$0-op2-gain;
#X obj 141 187 s \$0-op2-att;
#X obj 263 187 s \$0-op2-dec;
#X obj 385 187 s \$0-op2-sus;
#X obj 507 187 s \$0-op2-rel;
#X obj 629 187 s \$0-op2-freq;
#X obj 758 187 s \$0-op2-fine;
#X obj 887 187 s \$0-op2-lfo;
#X obj 12 71 route 17;
#X obj 141 71 route 18;
#X obj 263 71 route 19;
#X obj 385 71 route 20;
#X obj 507 71 route 21;
#X obj 629 71 route 22;
#X obj 758 71 route 23;
#X obj 887 71 route 24;
#X connect 0 0 33 0;
#X connect 0 0 34 0;
#X connect 0 0 35 0;
#X connect 0 0 36 0;
#X connect 0 0 37 0;
#X connect 0 0 38 0;
#X connect 0 0 39 0;
#X connect 0 0 40 0;
#X connect 1 0 9 0;
#X connect 1 0 25 0;
#X connect 2 0 10 0;
#X connect 2 0 26 0;
#X connect 3 0 11 0;
#X connect 3 0 27 0;
#X connect 4 0 12 0;
#X connect 4 0 28 0;
#X connect 5 0 13 0;
#X connect 5 0 29 0;
#X connect 6 0 14 0;
#X connect 6 0 30 0;
#X connect 7 0 15 0;
#X connect 7 0 31 0;
#X connect 8 0 16 0;
#X connect 8 0 32 0;
#X connect 9 0 17 0;
#X connect 10 0 18 0;
#X connect 11 0 19 0;
#X connect 12 0 20 0;
#X connect 13 0 21 0;
#X connect 14 0 22 0;
#X connect 15 0 23 0;
#X connect 16 0 24 0;
#X connect 33 0 1 0;
#X connect 34 0 2 0;
#X connect 35 0 3 0;
#X connect 36 0 4 0;
#X connect 37 0 5 0;
#X connect 38 0 6 0;
#X connect 39 0 7 0;
#X connect 40 0 8 0;
#X restore 99 80 pd r-op2;
#N canvas 0 50 1315 300 r-op3 0;
#X obj 12 12 inlet;
#X obj 12 100 change;
#X obj 141 100 change;
#X obj 263 100 change;
#X obj 385 100 change;
#X obj 507 100 change;
#X obj 629 100 change;
#X obj 758 100 change;
#X obj 887 100 change;
#X msg 22 129 set \$1;
#X msg 151 129 set \$1;
#X msg 273 129 set \$1;
#X msg 395 129 set \$1;
#X msg 517 129 set \$1;
#X msg 639 129 set \$1;
#X msg 768 129 set \$1;
#X msg 897 129 set \$1;
#X obj 22 158 s \$0-op3-gain-r;
#X obj 151 158 s \$0-op3-att-r;
#X obj 273 158 s \$0-op3-dec-r;
#X obj 395 158 s \$0-op3-sus-r;
#X obj 517 158 s \$0-op3-rel-r;
#X obj 639 158 s \$0-op3-freq-r;
#X obj 768 158 s \$0-op3-fine-r;
#X obj 897 158 s \$0-op3-lfo-r;
#X obj 887 187 s \$0-op3-lfo;
#X obj 758 187 s \$0-op3-fine;
#X obj 629 187 s \$0-op3-freq;
#X obj 507 187 s \$0-op3-rel;
#X obj 385 187 s \$0-op3-sus;
#X obj 263 187 s \$0-op3-dec;
#X obj 141 187 s \$0-op3-att;
#X obj 12 187 s \$0-op3-gain;
#X obj 12 71 route 25;
#X obj 141 71 route 26;
#X obj 263 71 route 27;
#X obj 385 70 route 28;
#X obj 507 71 route 29;
#X obj 629 71 route 30;
#X obj 758 71 route 31;
#X obj 887 71 route 32;
#X connect 0 0 33 0;
#X connect 0 0 34 0;
#X connect 0 0 35 0;
#X connect 0 0 36 0;
#X connect 0 0 37 0;
#X connect 0 0 38 0;
#X connect 0 0 39 0;
#X connect 0 0 40 0;
#X connect 1 0 9 0;
#X connect 1 0 32 0;
#X connect 2 0 10 0;
#X connect 2 0 31 0;
#X connect 3 0 11 0;
#X connect 3 0 30 0;
#X connect 4 0 12 0;
#X connect 4 0 29 0;
#X connect 5 0 13 0;
#X connect 5 0 28 0;
#X connect 6 0 14 0;
#X connect 6 0 27 0;
#X connect 7 0 15 0;
#X connect 7 0 26 0;
#X connect 8 0 16 0;
#X connect 8 0 25 0;
#X connect 9 0 17 0;
#X connect 10 0 18 0;
#X connect 11 0 19 0;
#X connect 12 0 20 0;
#X connect 13 0 21 0;
#X connect 14 0 22 0;
#X connect 15 0 23 0;
#X connect 16 0 24 0;
#X connect 33 0 1 0;
#X connect 34 0 2 0;
#X connect 35 0 3 0;
#X connect 36 0 4 0;
#X connect 37 0 5 0;
#X connect 38 0 6 0;
#X connect 39 0 7 0;
#X connect 40 0 8 0;
#X restore 169 80 pd r-op3;
#N canvas 0 50 1315 300 r-op4 0;
#X obj 12 12 inlet;
#X obj 12 100 change;
#X obj 141 100 change;
#X obj 263 100 change;
#X obj 385 100 change;
#X obj 507 100 change;
#X obj 629 100 change;
#X obj 758 100 change;
#X obj 887 100 change;
#X msg 22 129 set \$1;
#X msg 151 129 set \$1;
#X msg 273 129 set \$1;
#X msg 395 129 set \$1;
#X msg 517 129 set \$1;
#X msg 639 129 set \$1;
#X msg 768 129 set \$1;
#X msg 897 129 set \$1;
#X obj 22 158 s \$0-op4-gain-r;
#X obj 151 158 s \$0-op4-att-r;
#X obj 273 158 s \$0-op4-dec-r;
#X obj 395 158 s \$0-op4-sus-r;
#X obj 517 158 s \$0-op4-rel-r;
#X obj 639 158 s \$0-op4-freq-r;
#X obj 768 158 s \$0-op4-fine-r;
#X obj 897 158 s \$0-op4-lfo-r;
#X obj 887 187 s \$0-op4-lfo;
#X obj 758 187 s \$0-op4-fine;
#X obj 629 187 s \$0-op4-freq;
#X obj 507 187 s \$0-op4-rel;
#X obj 385 187 s \$0-op4-sus;
#X obj 263 187 s \$0-op4-dec;
#X obj 141 187 s \$0-op4-att;
#X obj 12 187 s \$0-op4-gain;
#X obj 12 71 route 33;
#X obj 141 71 route 34;
#X obj 263 71 route 35;
#X obj 385 71 route 36;
#X obj 507 71 route 37;
#X obj 629 71 route 38;
#X obj 758 71 route 39;
#X obj 887 71 route 40;
#X connect 0 0 33 0;
#X connect 0 0 34 0;
#X connect 0 0 35 0;
#X connect 0 0 36 0;
#X connect 0 0 37 0;
#X connect 0 0 38 0;
#X connect 0 0 39 0;
#X connect 0 0 40 0;
#X connect 1 0 9 0;
#X connect 1 0 32 0;
#X connect 2 0 10 0;
#X connect 2 0 31 0;
#X connect 3 0 11 0;
#X connect 3 0 30 0;
#X connect 4 0 12 0;
#X connect 4 0 29 0;
#X connect 5 0 13 0;
#X connect 5 0 28 0;
#X connect 6 0 14 0;
#X connect 6 0 27 0;
#X connect 7 0 15 0;
#X connect 7 0 26 0;
#X connect 8 0 16 0;
#X connect 8 0 25 0;
#X connect 9 0 17 0;
#X connect 10 0 18 0;
#X connect 11 0 19 0;
#X connect 12 0 20 0;
#X connect 13 0 21 0;
#X connect 14 0 22 0;
#X connect 15 0 23 0;
#X connect 16 0 24 0;
#X connect 33 0 1 0;
#X connect 34 0 2 0;
#X connect 35 0 3 0;
#X connect 36 0 4 0;
#X connect 37 0 5 0;
#X connect 38 0 6 0;
#X connect 39 0 7 0;
#X connect 40 0 8 0;
#X restore 239 80 pd r-op4;
#N canvas 0 50 1315 300 r-lfo 0;
#X obj 12 12 inlet;
#X obj 12 100 change;
#X obj 141 100 change;
#X msg 22 129 set \$1;
#X msg 151 129 set \$1;
#X obj 151 158 s \$0-lfo-freq-r;
#X obj 22 158 s \$0-lfo-gain-r;
#X obj 12 187 s \$0-lfo-gain;
#X obj 141 187 s \$0-lfo-freq;
#X obj 12 71 route 41;
#X obj 141 71 route 42;
#X connect 0 0 9 0;
#X connect 0 0 10 0;
#X connect 1 0 3 0;
#X connect 1 0 7 0;
#X connect 2 0 4 0;
#X connect 2 0 8 0;
#X connect 3 0 6 0;
#X connect 4 0 5 0;
#X connect 9 0 1 0;
#X connect 10 0 2 0;
#X restore 309 80 pd r-lfo;
#X connect 0 0 2 0;
#X connect 0 0 1 0;
#X connect 0 0 3 0;
#X connect 0 0 4 0;
#X connect 0 0 5 0;
#X connect 0 0 6 0;
#X restore 12 12 pd parameters-receive;
#N canvas -8 -8 1366 685 parameters-send 0;
#X obj 12 100 send camomile;
#N canvas -8 -8 1366 685 s-global 0;
#X obj 12 12 r \$0-out-gain-s;
#X obj 12 149 t b f b;
#X msg 151 207 param change \$1 1;
#X msg 161 265 param change \$1 0;
#X msg 35 265 param set \$1 \$2;
#X obj 161 236 f;
#X obj 35 207 swap;
#X obj 35 236 pack;
#X obj 12 80 t f b;
#X obj 179 178 f;
#X msg 224 159 1;
#X obj 131 80 t f b;
#X obj 131 12 r \$0-alg-s;
#X obj 334 12 r \$0-legato-s;
#X msg 259 159 2;
#X obj 215 80 t f b;
#X msg 294 159 3;
#X obj 334 80 t f b;
#X obj 439 80 t f b;
#X msg 471 159 5;
#X msg 366 159 4;
#X obj 151 324 outlet;
#X obj 215 12 r \$0-bendMode-s;
#X obj 439 12 r \$0-voice-steal-s;
#X obj 449 41 s \$0-voice-steal;
#X obj 344 41 s \$0-legato;
#X obj 22 41 s \$0-out-gain;
#X obj 141 41 s \$0-alg;
#X obj 226 41 s \$0-bendMode;
#X obj 589 41 s \$0-voice-poly;
#X obj 579 12 r \$0-voice-poly-s;
#X obj 579 80 t f b;
#X msg 611 159 6;
#X connect 0 0 26 0;
#X connect 0 0 8 0;
#X connect 1 0 5 0;
#X connect 1 1 6 0;
#X connect 1 2 9 0;
#X connect 2 0 21 0;
#X connect 3 0 21 0;
#X connect 4 0 21 0;
#X connect 5 0 3 0;
#X connect 6 0 7 0;
#X connect 6 1 7 1;
#X connect 7 0 4 0;
#X connect 8 0 1 0;
#X connect 8 1 10 0;
#X connect 9 0 5 1;
#X connect 9 0 6 1;
#X connect 9 0 2 0;
#X connect 10 0 9 1;
#X connect 11 0 1 0;
#X connect 11 1 14 0;
#X connect 12 0 27 0;
#X connect 12 0 11 0;
#X connect 13 0 25 0;
#X connect 13 0 17 0;
#X connect 14 0 9 1;
#X connect 15 0 1 0;
#X connect 15 1 16 0;
#X connect 16 0 9 1;
#X connect 17 0 1 0;
#X connect 17 1 20 0;
#X connect 18 0 1 0;
#X connect 18 1 19 0;
#X connect 19 0 9 1;
#X connect 20 0 9 1;
#X connect 22 0 28 0;
#X connect 22 0 15 0;
#X connect 23 0 24 0;
#X connect 23 0 18 0;
#X connect 30 0 29 0;
#X connect 30 0 31 0;
#X connect 31 0 1 0;
#X connect 31 1 32 0;
#X connect 32 0 9 1;
#X restore 12 12 pd s-global;
#N canvas -8 -8 1366 685 s-op1 0;
#X obj 12 149 t b f b;
#X msg 151 207 param change \$1 1;
#X msg 161 265 param change \$1 0;
#X msg 35 265 param set \$1 \$2;
#X obj 161 236 f;
#X obj 35 207 swap;
#X obj 35 236 pack;
#X obj 12 80 t f b;
#X obj 179 178 f;
#X obj 131 80 t f b;
#X obj 243 80 t f b;
#X obj 355 80 t f b;
#X obj 467 80 t f b;
#X obj 151 324 outlet;
#X obj 12 12 r \$0-op1-gain-s;
#X obj 131 12 r \$0-op1-att-s;
#X obj 243 12 r \$0-op1-dec-s;
#X obj 355 12 r \$0-op1-sus-s;
#X obj 467 12 r \$0-op1-rel-s;
#X obj 579 80 t f b;
#X obj 579 12 r \$0-op1-freq-s;
#X obj 698 80 t f b;
#X obj 698 12 r \$0-op1-fine-s;
#X obj 817 80 t f b;
#X obj 817 12 r \$0-op1-lfo-s;
#X obj 929 80 t f b;
#X obj 827 41 s \$0-op1-lfo;
#X obj 708 41 s \$0-op1-fine;
#X obj 589 41 s \$0-op1-freq;
#X obj 477 41 s \$0-op1-rel;
#X obj 365 41 s \$0-op1-sus;
#X obj 253 41 s \$0-op1-dec;
#X obj 141 41 s \$0-op1-att;
#X obj 22 41 s \$0-op1-gain;
#X obj 929 12 r \$0-op1-self-gain-s;
#X obj 939 41 s \$0-op1-self-gain;
#X obj 1083 80 t f b;
#X obj 1093 41 s \$0-op1-self-lfo;
#X obj 1083 12 r \$0-op1-self-lfo-s;
#X msg 224 159 7;
#X msg 259 159 8;
#X msg 294 159 9;
#X msg 387 159 10;
#X msg 499 159 11;
#X msg 611 159 12;
#X msg 730 159 13;
#X msg 849 159 14;
#X msg 961 159 15;
#X msg 1115 159 16;
#X connect 0 0 4 0;
#X connect 0 1 5 0;
#X connect 0 2 8 0;
#X connect 1 0 13 0;
#X connect 2 0 13 0;
#X connect 3 0 13 0;
#X connect 4 0 2 0;
#X connect 5 0 6 0;
#X connect 5 1 6 1;
#X connect 6 0 3 0;
#X connect 7 0 0 0;
#X connect 7 1 39 0;
#X connect 8 0 4 1;
#X connect 8 0 5 1;
#X connect 8 0 1 0;
#X connect 9 0 0 0;
#X connect 9 1 40 0;
#X connect 10 0 0 0;
#X connect 10 1 41 0;
#X connect 11 0 0 0;
#X connect 11 1 42 0;
#X connect 12 0 0 0;
#X connect 12 1 43 0;
#X connect 14 0 33 0;
#X connect 14 0 7 0;
#X connect 15 0 32 0;
#X connect 15 0 9 0;
#X connect 16 0 31 0;
#X connect 16 0 10 0;
#X connect 17 0 30 0;
#X connect 17 0 11 0;
#X connect 18 0 29 0;
#X connect 18 0 12 0;
#X connect 19 0 0 0;
#X connect 19 1 44 0;
#X connect 20 0 28 0;
#X connect 20 0 19 0;
#X connect 21 0 0 0;
#X connect 21 1 45 0;
#X connect 22 0 27 0;
#X connect 22 0 21 0;
#X connect 23 0 0 0;
#X connect 23 1 46 0;
#X connect 24 0 26 0;
#X connect 24 0 23 0;
#X connect 25 0 0 0;
#X connect 25 1 47 0;
#X connect 34 0 25 0;
#X connect 34 0 35 0;
#X connect 36 0 0 0;
#X connect 36 1 48 0;
#X connect 38 0 36 0;
#X connect 38 0 37 0;
#X connect 39 0 8 1;
#X connect 40 0 8 1;
#X connect 41 0 8 1;
#X connect 42 0 8 1;
#X connect 43 0 8 1;
#X connect 44 0 8 1;
#X connect 45 0 8 1;
#X connect 46 0 8 1;
#X connect 47 0 8 1;
#X connect 48 0 8 1;
#X restore 22 41 pd s-op1;
#N canvas -8 -8 1366 685 s-op2 0;
#X obj 12 149 t b f b;
#X msg 151 207 param change \$1 1;
#X msg 161 265 param change \$1 0;
#X msg 35 265 param set \$1 \$2;
#X obj 161 236 f;
#X obj 35 207 swap;
#X obj 35 236 pack;
#X obj 12 80 t f b;
#X obj 179 178 f;
#X obj 131 80 t f b;
#X obj 243 80 t f b;
#X obj 355 80 t f b;
#X obj 467 80 t f b;
#X obj 151 324 outlet;
#X obj 579 80 t f b;
#X obj 698 80 t f b;
#X obj 817 80 t f b;
#X obj 12 12 r \$0-op2-gain-s;
#X obj 131 12 r \$0-op2-att-s;
#X obj 243 12 r \$0-op2-dec-s;
#X obj 355 12 r \$0-op2-sus-s;
#X obj 467 12 r \$0-op2-rel-s;
#X obj 579 12 r \$0-op2-freq-s;
#X obj 698 12 r \$0-op2-fine-s;
#X obj 817 12 r \$0-op2-lfo-s;
#X obj 22 41 s \$0-op2-gain;
#X obj 141 41 s \$0-op2-att;
#X obj 253 41 s \$0-op2-dec;
#X obj 365 41 s \$0-op2-sus;
#X obj 477 41 s \$0-op2-rel;
#X obj 589 41 s \$0-op2-freq;
#X obj 708 41 s \$0-op2-fine;
#X obj 827 41 s \$0-op2-lfo;
#X msg 224 159 17;
#X msg 259 159 18;
#X msg 294 159 19;
#X msg 387 159 20;
#X msg 499 159 21;
#X msg 611 159 22;
#X msg 730 159 23;
#X msg 849 159 24;
#X connect 0 0 4 0;
#X connect 0 1 5 0;
#X connect 0 2 8 0;
#X connect 1 0 13 0;
#X connect 2 0 13 0;
#X connect 3 0 13 0;
#X connect 4 0 2 0;
#X connect 5 0 6 0;
#X connect 5 1 6 1;
#X connect 6 0 3 0;
#X connect 7 0 0 0;
#X connect 7 1 33 0;
#X connect 8 0 4 1;
#X connect 8 0 5 1;
#X connect 8 0 1 0;
#X connect 9 0 0 0;
#X connect 9 1 34 0;
#X connect 10 0 0 0;
#X connect 10 1 35 0;
#X connect 11 0 0 0;
#X connect 11 1 36 0;
#X connect 12 0 0 0;
#X connect 12 1 37 0;
#X connect 14 0 0 0;
#X connect 14 1 38 0;
#X connect 15 0 0 0;
#X connect 15 1 39 0;
#X connect 16 0 0 0;
#X connect 16 1 40 0;
#X connect 17 0 25 0;
#X connect 17 0 7 0;
#X connect 18 0 26 0;
#X connect 18 0 9 0;
#X connect 19 0 27 0;
#X connect 19 0 10 0;
#X connect 20 0 28 0;
#X connect 20 0 11 0;
#X connect 21 0 29 0;
#X connect 21 0 12 0;
#X connect 22 0 30 0;
#X connect 22 0 14 0;
#X connect 23 0 31 0;
#X connect 23 0 15 0;
#X connect 24 0 32 0;
#X connect 24 0 16 0;
#X connect 33 0 8 1;
#X connect 34 0 8 1;
#X connect 35 0 8 1;
#X connect 36 0 8 1;
#X connect 37 0 8 1;
#X connect 38 0 8 1;
#X connect 39 0 8 1;
#X connect 40 0 8 1;
#X restore 92 41 pd s-op2;
#N canvas -8 -8 1366 685 s-op3 0;
#X obj 12 149 t b f b;
#X msg 151 207 param change \$1 1;
#X msg 161 265 param change \$1 0;
#X msg 35 265 param set \$1 \$2;
#X obj 161 236 f;
#X obj 35 207 swap;
#X obj 35 236 pack;
#X obj 12 80 t f b;
#X obj 179 178 f;
#X obj 131 80 t f b;
#X obj 243 80 t f b;
#X obj 355 80 t f b;
#X obj 467 80 t f b;
#X obj 151 324 outlet;
#X obj 579 80 t f b;
#X obj 698 80 t f b;
#X obj 817 80 t f b;
#X obj 817 12 r \$0-op3-lfo-s;
#X obj 698 12 r \$0-op3-fine-s;
#X obj 579 12 r \$0-op3-freq-s;
#X obj 467 12 r \$0-op3-rel-s;
#X obj 355 12 r \$0-op3-sus-s;
#X obj 243 12 r \$0-op3-dec-s;
#X obj 131 12 r \$0-op3-att-s;
#X obj 12 12 r \$0-op3-gain-s;
#X obj 827 41 s \$0-op3-lfo;
#X obj 708 41 s \$0-op3-fine;
#X obj 589 41 s \$0-op3-freq;
#X obj 477 41 s \$0-op3-rel;
#X obj 365 41 s \$0-op3-sus;
#X obj 253 41 s \$0-op3-dec;
#X obj 141 41 s \$0-op3-att;
#X obj 22 41 s \$0-op3-gain;
#X msg 224 159 25;
#X msg 259 159 26;
#X msg 294 159 27;
#X msg 387 159 28;
#X msg 499 159 29;
#X msg 611 159 30;
#X msg 730 159 31;
#X msg 849 159 32;
#X connect 0 0 4 0;
#X connect 0 1 5 0;
#X connect 0 2 8 0;
#X connect 1 0 13 0;
#X connect 2 0 13 0;
#X connect 3 0 13 0;
#X connect 4 0 2 0;
#X connect 5 0 6 0;
#X connect 5 1 6 1;
#X connect 6 0 3 0;
#X connect 7 0 0 0;
#X connect 7 1 33 0;
#X connect 8 0 4 1;
#X connect 8 0 5 1;
#X connect 8 0 1 0;
#X connect 9 0 0 0;
#X connect 9 1 34 0;
#X connect 10 0 0 0;
#X connect 10 1 35 0;
#X connect 11 0 0 0;
#X connect 11 1 36 0;
#X connect 12 0 0 0;
#X connect 12 1 37 0;
#X connect 14 0 0 0;
#X connect 14 1 38 0;
#X connect 15 0 0 0;
#X connect 15 1 39 0;
#X connect 16 0 0 0;
#X connect 16 1 40 0;
#X connect 17 0 25 0;
#X connect 17 0 16 0;
#X connect 18 0 26 0;
#X connect 18 0 15 0;
#X connect 19 0 27 0;
#X connect 19 0 14 0;
#X connect 20 0 28 0;
#X connect 20 0 12 0;
#X connect 21 0 29 0;
#X connect 21 0 11 0;
#X connect 22 0 30 0;
#X connect 22 0 10 0;
#X connect 23 0 31 0;
#X connect 23 0 9 0;
#X connect 24 0 32 0;
#X connect 24 0 7 0;
#X connect 33 0 8 1;
#X connect 34 0 8 1;
#X connect 35 0 8 1;
#X connect 36 0 8 1;
#X connect 37 0 8 1;
#X connect 38 0 8 1;
#X connect 39 0 8 1;
#X connect 40 0 8 1;
#X restore 162 41 pd s-op3;
#N canvas -8 -8 1366 685 s-op4 0;
#X obj 12 149 t b f b;
#X msg 151 207 param change \$1 1;
#X msg 161 265 param change \$1 0;
#X msg 35 265 param set \$1 \$2;
#X obj 161 236 f;
#X obj 35 207 swap;
#X obj 35 236 pack;
#X obj 12 80 t f b;
#X obj 179 178 f;
#X obj 131 80 t f b;
#X obj 243 80 t f b;
#X obj 355 80 t f b;
#X obj 467 80 t f b;
#X obj 151 324 outlet;
#X obj 579 80 t f b;
#X obj 698 80 t f b;
#X obj 817 80 t f b;
#X obj 12 12 r \$0-op4-gain-s;
#X obj 131 12 r \$0-op4-att-s;
#X obj 243 12 r \$0-op4-dec-s;
#X obj 355 12 r \$0-op4-sus-s;
#X obj 467 12 r \$0-op4-rel-s;
#X obj 579 12 r \$0-op4-freq-s;
#X obj 698 12 r \$0-op4-fine-s;
#X obj 817 12 r \$0-op4-lfo-s;
#X obj 827 41 s \$0-op4-lfo;
#X obj 708 41 s \$0-op4-fine;
#X obj 589 41 s \$0-op4-freq;
#X obj 477 41 s \$0-op4-rel;
#X obj 365 41 s \$0-op4-sus;
#X obj 253 41 s \$0-op4-dec;
#X obj 141 41 s \$0-op4-att;
#X obj 22 41 s \$0-op4-gain;
#X msg 224 159 33;
#X msg 259 159 34;
#X msg 294 159 35;
#X msg 387 159 36;
#X msg 499 159 37;
#X msg 611 159 38;
#X msg 730 159 39;
#X msg 849 159 40;
#X connect 0 0 4 0;
#X connect 0 1 5 0;
#X connect 0 2 8 0;
#X connect 1 0 13 0;
#X connect 2 0 13 0;
#X connect 3 0 13 0;
#X connect 4 0 2 0;
#X connect 5 0 6 0;
#X connect 5 1 6 1;
#X connect 6 0 3 0;
#X connect 7 0 0 0;
#X connect 7 1 33 0;
#X connect 8 0 4 1;
#X connect 8 0 5 1;
#X connect 8 0 1 0;
#X connect 9 0 0 0;
#X connect 9 1 34 0;
#X connect 10 0 0 0;
#X connect 10 1 35 0;
#X connect 11 0 0 0;
#X connect 11 1 36 0;
#X connect 12 0 0 0;
#X connect 12 1 37 0;
#X connect 14 0 0 0;
#X connect 14 1 38 0;
#X connect 15 0 0 0;
#X connect 15 1 39 0;
#X connect 16 0 0 0;
#X connect 16 1 40 0;
#X connect 17 0 32 0;
#X connect 17 0 7 0;
#X connect 18 0 31 0;
#X connect 18 0 9 0;
#X connect 19 0 30 0;
#X connect 19 0 10 0;
#X connect 20 0 29 0;
#X connect 20 0 11 0;
#X connect 21 0 28 0;
#X connect 21 0 12 0;
#X connect 22 0 27 0;
#X connect 22 0 14 0;
#X connect 23 0 26 0;
#X connect 23 0 15 0;
#X connect 24 0 25 0;
#X connect 24 0 16 0;
#X connect 33 0 8 1;
#X connect 34 0 8 1;
#X connect 35 0 8 1;
#X connect 36 0 8 1;
#X connect 37 0 8 1;
#X connect 38 0 8 1;
#X connect 39 0 8 1;
#X connect 40 0 8 1;
#X restore 232 41 pd s-op4;
#N canvas -8 -8 1366 685 s-lfo 0;
#X obj 12 149 t b f b;
#X msg 151 207 param change \$1 1;
#X msg 161 265 param change \$1 0;
#X msg 35 265 param set \$1 \$2;
#X obj 161 236 f;
#X obj 35 207 swap;
#X obj 35 236 pack;
#X obj 12 80 t f b;
#X obj 179 178 f;
#X obj 131 80 t f b;
#X obj 151 324 outlet;
#X obj 12 12 r \$0-lfo-gain-s;
#X obj 131 12 r \$0-lfo-freq-s;
#X obj 22 41 s \$0-lfo-gain;
#X obj 141 41 s \$0-lfo-freq;
#X msg 224 159 41;
#X msg 259 159 42;
#X connect 0 0 4 0;
#X connect 0 1 5 0;
#X connect 0 2 8 0;
#X connect 1 0 10 0;
#X connect 2 0 10 0;
#X connect 3 0 10 0;
#X connect 4 0 2 0;
#X connect 5 0 6 0;
#X connect 5 1 6 1;
#X connect 6 0 3 0;
#X connect 7 0 0 0;
#X connect 7 1 15 0;
#X connect 8 0 4 1;
#X connect 8 0 5 1;
#X connect 8 0 1 0;
#X connect 9 0 0 0;
#X connect 9 1 16 0;
#X connect 11 0 13 0;
#X connect 11 0 7 0;
#X connect 12 0 14 0;
#X connect 12 0 9 0;
#X connect 15 0 8 1;
#X connect 16 0 8 1;
#X restore 302 41 pd s-lfo;
#X connect 1 0 0 0;
#X connect 2 0 0 0;
#X connect 3 0 0 0;
#X connect 4 0 0 0;
#X connect 5 0 0 0;
#X connect 6 0 0 0;
#X restore 173 12 pd parameters-send;
#X text 65 66 acá está el código necesario para que camomile y el
host puedan leer y escribir cada parámetro apropiadamente \, como
también guardar y cargar el estado del parche;
#X restore 1128 36 pd camomile;
#N canvas -8 -8 1366 685 color-palette 0;
#X obj 201 83 pack symbol symbol symbol;
#X msg 201 122 color \$1 \$2 \$3;
#X obj 12 83 pack symbol symbol symbol;
#X msg 12 122 color \$1 \$2 \$3;
#X msg 201 12 list #303030 #b0b0b0 #b0b0b0, f 7;
#X msg 12 12 list #444444 #b0b0b0 #b0b0b0, f 7;
#X obj 390 83 pack symbol symbol symbol;
#X msg 390 122 color \$1 \$2 \$3;
#X msg 390 12 list #b0b0b0 #b0b0b0 #444444, f 7;
#X connect 0 0 1 0;
#X connect 2 0 3 0;
#X connect 4 0 0 0;
#X connect 5 0 2 0;
#X connect 6 0 7 0;
#X connect 8 0 6 0;
#X restore 1128 60 pd color-palette;
#N canvas 0 50 450 300 out 0;
#X msg 12 99 \$1 1;
#X obj 12 167 outlet~;
#X obj 12 70 dbtorms;
#X obj 12 128 line~;
#X obj 12 12 r \$0-out-gain;
#X obj 117 12 r \$0-init;
#X msg 117 41 90;
#X obj 12 41 change;
#X obj 117 99 s \$0-out-gain-r;
#X msg 117 70 set \$1;
#X connect 0 0 3 0;
#X connect 2 0 0 0;
#X connect 3 0 1 0;
#X connect 4 0 7 0;
#X connect 5 0 6 0;
#X connect 6 0 2 0;
#X connect 6 0 9 0;
#X connect 7 0 2 0;
#X connect 9 0 8 0;
#X restore 787 440 pd out gain;
#X obj 587 368 cnv 15 15 15 empty \$0-text out: 0 7 0 14 -70738 -183085
0;
#N canvas -8 -8 1366 685 fine 0;
#X obj 190 159 outlet;
#X msg 369 100 op4 \$1;
#X msg 250 100 op3 \$1;
#X msg 131 100 op2 \$1;
#X msg 12 100 op1 \$1;
#X obj 369 71 expr ($f1*0.01);
#X obj 250 71 expr ($f1*0.01);
#X obj 131 71 expr ($f1*0.01);
#X obj 12 71 expr ($f1*0.01);
#X obj 12 12 r \$0-op1-fine;
#X obj 131 12 r \$0-op2-fine;
#X obj 250 12 r \$0-op3-fine;
#X obj 369 12 r \$0-op4-fine;
#X text 112 195 ajuste fino de altura (en cents) para cada operador
;
#X obj 518 13 r \$0-init;
#X msg 518 42 0;
#X msg 518 71 set \$1;
#X obj 564 121 s \$0-op3-fine-r;
#X obj 574 150 s \$0-op4-fine-r;
#X obj 459 150 s \$0-op2-fine-r;
#X obj 449 121 s \$0-op1-fine-r;
#X connect 1 0 0 0;
#X connect 2 0 0 0;
#X connect 3 0 0 0;
#X connect 4 0 0 0;
#X connect 5 0 1 0;
#X connect 6 0 2 0;
#X connect 7 0 3 0;
#X connect 8 0 4 0;
#X connect 9 0 8 0;
#X connect 10 0 7 0;
#X connect 11 0 6 0;
#X connect 12 0 5 0;
#X connect 14 0 15 0;
#X connect 15 0 5 0;
#X connect 15 0 6 0;
#X connect 15 0 7 0;
#X connect 15 0 8 0;
#X connect 15 0 16 0;
#X connect 16 0 17 0;
#X connect 16 0 18 0;
#X connect 16 0 19 0;
#X connect 16 0 20 0;
#X restore 886 255 pd fine;
#N canvas 712 43 643 574 freq 0;
#X obj 124 139 outlet;
#X msg 12 80 op1 \$1;
#X msg 68 80 op2 \$1;
#X msg 124 80 op3 \$1;
#X msg 180 80 op4 \$1;
#X msg 236 80 lfo \$1;
#X obj 236 12 r \$0-lfo-freq;
#X obj 180 41 r \$0-op4-freq;
#X obj 124 12 r \$0-op3-freq;
#X obj 68 41 r \$0-op2-freq;
#X obj 12 12 r \$0-op1-freq;
#X text 32 186 multiplicador de frecuencia fundamental para cada operador
;
#X obj 350 22 r \$0-init;
#X msg 350 51 1;
#X msg 350 80 set \$1;
#X msg 385 51 0;
#X obj 231 130 s \$0-op1-freq-r;
#X obj 346 130 s \$0-op3-freq-r;
#X obj 356 159 s \$0-op4-freq-r;
#X obj 241 159 s \$0-op2-freq-r;
#X connect 1 0 0 0;
#X connect 2 0 0 0;
#X connect 3 0 0 0;
#X connect 4 0 0 0;
#X connect 5 0 0 0;
#X connect 6 0 5 0;
#X connect 7 0 4 0;
#X connect 8 0 3 0;
#X connect 9 0 2 0;
#X connect 10 0 1 0;
#X connect 12 0 13 0;
#X connect 12 0 15 0;
#X connect 13 0 4 0;
#X connect 13 0 3 0;
#X connect 13 0 2 0;
#X connect 13 0 1 0;
#X connect 13 0 14 0;
#X connect 14 0 16 0;
#X connect 14 0 17 0;
#X connect 14 0 18 0;
#X connect 14 0 19 0;
#X connect 15 0 5 0;
#X restore 965 255 pd freq;
#N canvas -8 -8 1366 685 gain 0;
#X msg 341 99 op2 \$1;
#X msg 446 99 op3 \$1;
#X msg 551 99 op4 \$1;
#X msg 656 99 lfo \$1;
#X msg 96 99 op1 \$1;
#X obj 391 158 outlet;
#X obj 341 70 * 0.01;
#X obj 446 70 * 0.01;
#X obj 551 70 * 0.01;
#X obj 656 70 * 0.01;
#X obj 96 70 * 0.01;
#X obj 201 70 * 0.01;
#X obj 96 12 r \$0-op1-gain;
#X obj 341 12 r \$0-op2-gain;
#X obj 446 12 r \$0-op3-gain;
#X obj 551 12 r \$0-op4-gain;
#X obj 656 12 r \$0-lfo-gain;
#X text 332 192 ganancia para cada operador;
#X msg 201 99 op1-self \$1;
#X obj 201 12 r \$0-op1-self-gain;
#X obj 789 12 r \$0-init;
#X msg 789 41 0;
#X msg 819 41 100;
#X obj 819 99 s \$0-op4-gain-r;
#X msg 819 70 set \$1;
#X connect 0 0 5 0;
#X connect 1 0 5 0;
#X connect 2 0 5 0;
#X connect 3 0 5 0;
#X connect 4 0 5 0;
#X connect 6 0 0 0;
#X connect 7 0 1 0;
#X connect 8 0 2 0;
#X connect 9 0 3 0;
#X connect 10 0 4 0;
#X connect 11 0 18 0;
#X connect 12 0 10 0;
#X connect 13 0 6 0;
#X connect 14 0 7 0;
#X connect 15 0 8 0;
#X connect 16 0 9 0;
#X connect 18 0 5 0;
#X connect 19 0 11 0;
#X connect 20 0 21 0;
#X connect 20 0 22 0;
#X connect 21 0 9 0;
#X connect 21 0 7 0;
#X connect 21 0 6 0;
#X connect 21 0 11 0;
#X connect 21 0 10 0;
#X connect 22 0 8 0;
#X connect 22 0 24 0;
#X connect 24 0 23 0;
#X restore 926 323 pd gain;
#N canvas -8 -8 1366 685 midi-input 0;
#X obj 93 400 outlet;
#X obj 93 169 - 1;
#X obj 93 228 pack 0 0 0;
#X obj 93 140 poly 16 1, f 10;
#X obj 12 12 inlet;
#X obj 177 12 inlet;
#X obj 12 81 unpack;
#X obj 192 208 spigot;
#X obj 177 332 list prepend;
#X obj 177 361 list trim;
#X msg 359 303 all;
#X obj 359 216 sel 0 1, f 10;
#X msg 177 303 bend \$1;
#X obj 508 400 s \$0-bendMode-label;
#X msg 428 342 label \$1;
#X obj 428 313 symbol;
#X msg 428 284 global;
#X obj 12 140 poly 1 1, f 10;
#X obj 12 169 - 1;
#X obj 12 228 pack 0 0 0;
#X obj 428 458 s camomile;
#X msg 428 429 gui redraw;
#X obj 428 400 delay 10;
#X obj 428 371 t b a;
#X obj 93 361 spigot;
#X obj 132 346 tgl 15 0 empty empty empty 17 7 0 10 -262144 -1 -1 0
1;
#X obj 12 361 spigot;
#X obj 51 346 tgl 15 0 empty empty empty 17 7 0 10 -262144 -1 -1 1
1;
#X obj 160 71 r \$0-voice-steal;
#X obj 359 158 r \$0-bendMode;
#X obj 177 130 expr (($f1/16383)-0.5)*4;
#X obj 258 303 spigot;
#X msg 297 284 1;
#X msg 322 284 0;
#X obj 359 245 t b b;
#N canvas -8 -8 1366 685 polystuff 0;
#X obj 12 11 r \$0-voice-poly;
#X obj 12 99 sel 0 1, f 9;
#X obj 12 69 t f b;
#X msg 96 99 0;
#X obj 12 148 outlet;
#X obj 96 148 outlet;
#X obj 131 11 r \$0-init;
#X msg 131 40 0;
#X obj 12 40 change;
#X connect 0 0 8 0;
#X connect 1 0 4 0;
#X connect 1 1 5 0;
#X connect 2 0 1 0;
#X connect 2 1 3 0;
#X connect 3 0 5 0;
#X connect 3 0 4 0;
#X connect 6 0 7 0;
#X connect 7 0 2 0;
#X connect 8 0 2 0;
#X restore 51 317 pd polystuff;
#N canvas 0 50 450 300 panic 0;
#X obj 48 32 r \$0-panic-s;
#X obj 48 61 uzi 128;
#X obj 94 90 t f b;
#X msg 126 119 0;
#X obj 94 148 pack f f;
#X obj 94 177 outlet;
#X connect 0 0 1 0;
#X connect 1 2 2 0;
#X connect 2 0 4 0;
#X connect 2 1 3 0;
#X connect 3 0 4 1;
#X connect 4 0 5 0;
#X restore 61 12 pd panic;
#X text 645 86 cada mensaje noteoff se envía a la voz más antigua
que esté ocupada con sus respectiva nota;
#X text 645 11 cada mensaje noteon se envía a la siguiente voz disponible
en la polifonía \, o si voice_steal esta activado la voz más antigua
en caso de no haber voces disponibles;
#X text 562 276 los valores de pitch bend se envían a las 16 voces
o a la voz más nueva en la polifonía \, dependiendo si el bend_mode
es global o last_note respectivamente;
#X text 237 208 filtrar noteoff;
#X obj 103 42 r \$0-init;
#X msg 103 71 0;
#X obj 468 158 r \$0-init;
#X msg 468 187 0;
#X obj 359 187 change;
#X obj 160 100 change;
#X msg 484 284 last;
#X connect 1 0 2 0;
#X connect 1 0 7 0;
#X connect 2 0 24 0;
#X connect 3 0 1 0;
#X connect 3 1 2 1;
#X connect 3 2 2 2;
#X connect 3 2 7 1;
#X connect 4 0 6 0;
#X connect 5 0 30 0;
#X connect 6 0 3 0;
#X connect 6 0 17 0;
#X connect 6 1 3 1;
#X connect 6 1 17 1;
#X connect 7 0 31 0;
#X connect 8 0 9 0;
#X connect 9 0 0 0;
#X connect 10 0 8 1;
#X connect 11 0 34 0;
#X connect 11 1 47 0;
#X connect 11 1 32 0;
#X connect 12 0 8 0;
#X connect 14 0 23 0;
#X connect 15 0 14 0;
#X connect 16 0 15 0;
#X connect 17 0 18 0;
#X connect 17 1 19 1;
#X connect 17 2 19 2;
#X connect 18 0 19 0;
#X connect 19 0 26 0;
#X connect 21 0 20 0;
#X connect 22 0 21 0;
#X connect 23 0 22 0;
#X connect 23 1 13 0;
#X connect 24 0 0 0;
#X connect 25 0 24 1;
#X connect 26 0 0 0;
#X connect 27 0 26 1;
#X connect 28 0 46 0;
#X connect 29 0 45 0;
#X connect 30 0 12 0;
#X connect 31 0 8 1;
#X connect 32 0 31 1;
#X connect 33 0 31 1;
#X connect 34 0 10 0;
#X connect 34 0 16 0;
#X connect 34 1 33 0;
#X connect 35 0 27 0;
#X connect 35 1 25 0;
#X connect 36 0 6 0;
#X connect 41 0 42 0;
#X connect 42 0 3 1;
#X connect 43 0 44 0;
#X connect 44 0 11 0;
#X connect 45 0 11 0;
#X connect 46 0 3 1;
#X connect 47 0 15 0;
#X restore 768 216 pd midi-input;
#N canvas 676 0 681 676 lfo-per-operator 0;
#X obj 75 157 outlet;
#X obj 12 69 * 0.01;
#X obj 195 69 * 0.01;
#X obj 258 69 * 0.01;
#X obj 321 69 * 0.01;
#X msg 12 108 op1 \$1;
#X msg 195 108 op2 \$1;
#X msg 258 108 op3 \$1;
#X msg 321 108 op4 \$1;
#X obj 12 11 r \$0-op1-lfo;
#X obj 195 11 r \$0-op2-lfo;
#X obj 258 40 r \$0-op3-lfo;
#X obj 321 11 r \$0-op4-lfo;
#X text 21 200 ganancia de la copia de la lfo que es enviada a cada
operador;
#X obj 100 69 * 0.01;
#X obj 100 40 r \$0-op1-self-lfo;
#X msg 100 108 op1-self \$1;
#X obj 740 236 r \$0-init;
#X msg 740 265 0;
#X obj 750 246 r \$0-init;
#X msg 750 275 0;
#X obj 760 256 r \$0-init;
#X msg 760 285 0;
#X obj 429 11 r \$0-init;
#X msg 429 40 0;
#X connect 1 0 5 0;
#X connect 2 0 6 0;
#X connect 3 0 7 0;
#X connect 4 0 8 0;
#X connect 5 0 0 0;
#X connect 6 0 0 0;
#X connect 7 0 0 0;
#X connect 8 0 0 0;
#X connect 9 0 1 0;
#X connect 10 0 2 0;
#X connect 11 0 3 0;
#X connect 12 0 4 0;
#X connect 14 0 16 0;
#X connect 15 0 14 0;
#X connect 16 0 0 0;
#X connect 17 0 18 0;
#X connect 19 0 20 0;
#X connect 21 0 22 0;
#X connect 23 0 24 0;
#X connect 24 0 4 0;
#X connect 24 0 3 0;
#X connect 24 0 2 0;
#X connect 24 0 14 0;
#X connect 24 0 1 0;
#X restore 1005 323 pd lfo-per-operator;
#N canvas -8 -8 1366 685 alg-visualization 0;
#X obj 126 90 sel 0 1 2 3 4 5 6 7;
#N canvas -8 -8 1366 685 alg0 0;
#X obj 32 42 inlet;
#X obj 32 305 s \$0-route-op1;
#X obj 144 305 s \$0-route-op1-cable;
#X obj 32 188 pack;
#X obj 32 159 +;
#X obj 64 159 +;
#X obj 32 101 t b b;
#X msg 32 246 pos \$1 \$2;
#X obj 144 217 pack;
#X msg 144 246 pos \$1 \$2;
#X obj 144 188 + 6;
#X obj 179 188 + 17;
#X msg 32 130 0;
#X msg 64 130 0;
#X obj 298 188 pack;
#X obj 298 159 +;
#X obj 330 159 +;
#X msg 298 246 pos \$1 \$2;
#X obj 410 217 pack;
#X msg 410 246 pos \$1 \$2;
#X obj 410 188 + 6;
#X obj 445 188 + 17;
#X obj 298 101 t b b;
#X obj 298 305 s \$0-route-op2;
#X obj 410 305 s \$0-route-op2-cable;
#X msg 298 130 0;
#X msg 330 130 27;
#X obj 564 188 pack;
#X obj 564 159 +;
#X obj 596 159 +;
#X obj 564 101 t b b;
#X msg 564 246 pos \$1 \$2;
#X obj 676 217 pack;
#X msg 676 246 pos \$1 \$2;
#X obj 676 188 + 6;
#X obj 711 188 + 17;
#X msg 564 130 0;
#X obj 830 188 pack;
#X obj 830 159 +;
#X obj 862 159 +;
#X msg 830 246 pos \$1 \$2;
#X obj 942 217 pack;
#X msg 942 246 pos \$1 \$2;
#X obj 942 188 + 6;
#X obj 977 188 + 17;
#X obj 830 101 t b b;
#X msg 830 130 0;
#X msg 596 130 54;
#X msg 862 130 81;
#X obj 830 305 s \$0-route-op4;
#X obj 942 305 s \$0-route-op4-cable;
#X obj 676 305 s \$0-route-op3-cable;
#X obj 564 305 s \$0-route-op3;
#X obj 698 111 loadbang;
#X obj 1096 188 pack;
#X obj 1096 159 +;
#X obj 1128 159 +;
#X msg 1096 246 pos \$1 \$2;
#X obj 1096 101 t b b;
#X msg 1128 130 108;
#X obj 1096 305 s \$0-route-out;
#X msg 154 275 vis_size 1 8;
#X msg 420 275 vis_size 1 8;
#X msg 686 275 vis_size 1 8;
#X msg 952 275 vis_size 1 8;
#X msg 1096 130 0;
#X obj 193 480 s \$0-route-op1-cable3;
#X obj 193 364 t b b;
#X obj 193 422 pack;
#X msg 193 451 pos \$1 \$2;
#X obj 32 364 t b b;
#X obj 32 422 pack;
#X msg 32 451 pos \$1 \$2;
#X obj 32 480 s \$0-route-op1-cable2;
#X obj 32 509 t b b;
#X obj 32 567 pack;
#X msg 32 596 pos \$1 \$2;
#X obj 32 625 s \$0-route-op1-cableh;
#X obj 354 364 t b b;
#X obj 354 422 pack;
#X msg 354 451 pos \$1 \$2;
#X obj 354 480 s \$0-route-out-cable;
#X msg 193 393 11;
#X msg 225 393 11;
#X msg 354 393 11;
#X msg 386 393 11;
#X msg 32 393 11;
#X msg 64 393 11;
#X msg 32 538 11;
#X msg 64 538 11;
#X msg 729 140 389;
#X msg 667 140 494;
#X connect 0 0 6 0;
#X connect 0 0 58 0;
#X connect 0 0 45 0;
#X connect 0 0 30 0;
#X connect 0 0 22 0;
#X connect 0 0 70 0;
#X connect 0 0 67 0;
#X connect 0 0 74 0;
#X connect 0 0 78 0;
#X connect 3 0 7 0;
#X connect 4 0 3 0;
#X connect 4 0 10 0;
#X connect 5 0 3 1;
#X connect 5 0 11 0;
#X connect 6 0 12 0;
#X connect 6 1 13 0;
#X connect 7 0 1 0;
#X connect 8 0 9 0;
#X connect 9 0 2 0;
#X connect 9 0 61 0;
#X connect 10 0 8 0;
#X connect 11 0 8 1;
#X connect 12 0 4 0;
#X connect 13 0 5 0;
#X connect 14 0 17 0;
#X connect 15 0 14 0;
#X connect 15 0 20 0;
#X connect 16 0 14 1;
#X connect 16 0 21 0;
#X connect 17 0 23 0;
#X connect 18 0 19 0;
#X connect 19 0 24 0;
#X connect 19 0 62 0;
#X connect 20 0 18 0;
#X connect 21 0 18 1;
#X connect 22 0 25 0;
#X connect 22 1 26 0;
#X connect 25 0 15 0;
#X connect 26 0 16 0;
#X connect 27 0 31 0;
#X connect 28 0 27 0;
#X connect 28 0 34 0;
#X connect 29 0 27 1;
#X connect 29 0 35 0;
#X connect 30 0 36 0;
#X connect 30 1 47 0;
#X connect 31 0 52 0;
#X connect 32 0 33 0;
#X connect 33 0 51 0;
#X connect 33 0 63 0;
#X connect 34 0 32 0;
#X connect 35 0 32 1;
#X connect 36 0 28 0;
#X connect 37 0 40 0;
#X connect 38 0 37 0;
#X connect 38 0 43 0;
#X connect 39 0 37 1;
#X connect 39 0 44 0;
#X connect 40 0 49 0;
#X connect 41 0 42 0;
#X connect 42 0 50 0;
#X connect 42 0 64 0;
#X connect 43 0 41 0;
#X connect 44 0 41 1;
#X connect 45 0 46 0;
#X connect 45 1 48 0;
#X connect 46 0 38 0;
#X connect 47 0 29 0;
#X connect 48 0 39 0;
#X connect 53 0 91 0;
#X connect 53 0 90 0;
#X connect 54 0 57 0;
#X connect 55 0 54 0;
#X connect 56 0 54 1;
#X connect 57 0 60 0;
#X connect 58 0 65 0;
#X connect 58 1 59 0;
#X connect 59 0 56 0;
#X connect 61 0 2 0;
#X connect 62 0 24 0;
#X connect 63 0 51 0;
#X connect 64 0 50 0;
#X connect 65 0 55 0;
#X connect 67 0 82 0;
#X connect 67 1 83 0;
#X connect 68 0 69 0;
#X connect 69 0 66 0;
#X connect 70 0 86 0;
#X connect 70 1 87 0;
#X connect 71 0 72 0;
#X connect 72 0 73 0;
#X connect 74 0 88 0;
#X connect 74 1 89 0;
#X connect 75 0 76 0;
#X connect 76 0 77 0;
#X connect 78 0 84 0;
#X connect 78 1 85 0;
#X connect 79 0 80 0;
#X connect 80 0 81 0;
#X connect 82 0 68 0;
#X connect 83 0 68 1;
#X connect 84 0 79 0;
#X connect 85 0 79 1;
#X connect 86 0 71 0;
#X connect 87 0 71 1;
#X connect 88 0 75 0;
#X connect 89 0 75 1;
#X connect 90 0 5 1;
#X connect 90 0 16 1;
#X connect 90 0 29 1;
#X connect 90 0 39 1;
#X connect 90 0 56 1;
#X connect 91 0 4 1;
#X connect 91 0 15 1;
#X connect 91 0 28 1;
#X connect 91 0 38 1;
#X connect 91 0 55 1;
#X restore 126 119 pd alg0;
#N canvas -8 -8 1366 685 alg1 0;
#X obj 32 42 inlet;
#X obj 32 305 s \$0-route-op1;
#X obj 144 305 s \$0-route-op1-cable;
#X obj 32 188 pack;
#X obj 32 159 +;
#X obj 64 159 +;
#X obj 32 101 t b b;
#X msg 32 246 pos \$1 \$2;
#X obj 144 217 pack;
#X msg 144 246 pos \$1 \$2;
#X obj 144 188 + 6;
#X obj 179 188 + 17;
#X msg 32 130 0;
#X msg 64 130 0;
#X obj 298 188 pack;
#X obj 298 159 +;
#X obj 330 159 +;
#X msg 298 246 pos \$1 \$2;
#X obj 410 217 pack;
#X msg 410 246 pos \$1 \$2;
#X obj 410 188 + 6;
#X obj 445 188 + 17;
#X obj 298 101 t b b;
#X obj 298 305 s \$0-route-op2;
#X obj 410 305 s \$0-route-op2-cable;
#X obj 564 188 pack;
#X obj 564 159 +;
#X obj 596 159 +;
#X obj 564 101 t b b;
#X msg 564 246 pos \$1 \$2;
#X obj 676 217 pack;
#X msg 676 246 pos \$1 \$2;
#X obj 676 188 + 6;
#X obj 711 188 + 17;
#X obj 830 188 pack;
#X obj 830 159 +;
#X obj 862 159 +;
#X msg 830 246 pos \$1 \$2;
#X obj 942 217 pack;
#X msg 942 246 pos \$1 \$2;
#X obj 942 188 + 6;
#X obj 977 188 + 17;
#X obj 830 101 t b b;
#X obj 830 305 s \$0-route-op4;
#X obj 942 305 s \$0-route-op4-cable;
#X obj 676 305 s \$0-route-op3-cable;
#X obj 564 305 s \$0-route-op3;
#X obj 698 111 loadbang;
#X obj 1096 188 pack;
#X obj 1096 159 +;
#X obj 1128 159 +;
#X msg 1096 246 pos \$1 \$2;
#X obj 1096 101 t b b;
#X obj 1096 305 s \$0-route-out;
#X msg 330 130 0;
#X msg 596 130 27;
#X msg 862 130 54;
#X msg 1128 130 81;
#X msg 298 130 17;
#X msg 564 130 8;
#X msg 830 130 8;
#X msg 1096 130 8;
#X msg 154 275 vis_size 1 8;
#X msg 420 275 vis_size 1 8;
#X msg 686 275 vis_size 1 8;
#X msg 952 275 vis_size 1 8;
#X obj 193 480 s \$0-route-op1-cable3;
#X obj 193 364 t b b;
#X obj 193 422 pack;
#X msg 193 451 pos \$1 \$2;
#X obj 32 364 t b b;
#X obj 32 422 pack;
#X msg 32 451 pos \$1 \$2;
#X obj 32 480 s \$0-route-op1-cable2;
#X obj 32 509 t b b;
#X obj 32 567 pack;
#X msg 32 596 pos \$1 \$2;
#X obj 32 625 s \$0-route-op1-cableh;
#X obj 354 364 t b b;
#X obj 354 422 pack;
#X msg 354 451 pos \$1 \$2;
#X obj 354 480 s \$0-route-out-cable;
#X msg 32 393 11;
#X msg 64 393 11;
#X msg 193 393 11;
#X msg 225 393 11;
#X msg 354 393 11;
#X msg 386 393 11;
#X msg 32 538 11;
#X msg 64 538 11;
#X msg 729 140 389;
#X msg 667 140 487;
#X connect 0 0 6 0;
#X connect 0 0 22 0;
#X connect 0 0 28 0;
#X connect 0 0 42 0;
#X connect 0 0 52 0;
#X connect 0 0 70 0;
#X connect 0 0 67 0;
#X connect 0 0 74 0;
#X connect 0 0 78 0;
#X connect 3 0 7 0;
#X connect 4 0 3 0;
#X connect 4 0 10 0;
#X connect 5 0 3 1;
#X connect 5 0 11 0;
#X connect 6 0 12 0;
#X connect 6 1 13 0;
#X connect 7 0 1 0;
#X connect 8 0 9 0;
#X connect 9 0 2 0;
#X connect 9 0 62 0;
#X connect 10 0 8 0;
#X connect 11 0 8 1;
#X connect 12 0 4 0;
#X connect 13 0 5 0;
#X connect 14 0 17 0;
#X connect 15 0 14 0;
#X connect 15 0 20 0;
#X connect 16 0 14 1;
#X connect 16 0 21 0;
#X connect 17 0 23 0;
#X connect 18 0 19 0;
#X connect 19 0 24 0;
#X connect 19 0 63 0;
#X connect 20 0 18 0;
#X connect 21 0 18 1;
#X connect 22 0 58 0;
#X connect 22 1 54 0;
#X connect 25 0 29 0;
#X connect 26 0 25 0;
#X connect 26 0 32 0;
#X connect 27 0 25 1;
#X connect 27 0 33 0;
#X connect 28 0 59 0;
#X connect 28 1 55 0;
#X connect 29 0 46 0;
#X connect 30 0 31 0;
#X connect 31 0 45 0;
#X connect 31 0 64 0;
#X connect 32 0 30 0;
#X connect 33 0 30 1;
#X connect 34 0 37 0;
#X connect 35 0 34 0;
#X connect 35 0 40 0;
#X connect 36 0 34 1;
#X connect 36 0 41 0;
#X connect 37 0 43 0;
#X connect 38 0 39 0;
#X connect 39 0 44 0;
#X connect 39 0 65 0;
#X connect 40 0 38 0;
#X connect 41 0 38 1;
#X connect 42 0 60 0;
#X connect 42 1 56 0;
#X connect 47 0 91 0;
#X connect 47 0 90 0;
#X connect 48 0 51 0;
#X connect 49 0 48 0;
#X connect 50 0 48 1;
#X connect 51 0 53 0;
#X connect 52 0 61 0;
#X connect 52 1 57 0;
#X connect 54 0 16 0;
#X connect 55 0 27 0;
#X connect 56 0 36 0;
#X connect 57 0 50 0;
#X connect 58 0 15 0;
#X connect 59 0 26 0;
#X connect 60 0 35 0;
#X connect 61 0 49 0;
#X connect 62 0 2 0;
#X connect 63 0 24 0;
#X connect 64 0 45 0;
#X connect 65 0 44 0;
#X connect 67 0 84 0;
#X connect 67 1 85 0;
#X connect 68 0 69 0;
#X connect 69 0 66 0;
#X connect 70 0 82 0;
#X connect 70 1 83 0;
#X connect 71 0 72 0;
#X connect 72 0 73 0;
#X connect 74 0 88 0;
#X connect 74 1 89 0;
#X connect 75 0 76 0;
#X connect 76 0 77 0;
#X connect 78 0 86 0;
#X connect 78 1 87 0;
#X connect 79 0 80 0;
#X connect 80 0 81 0;
#X connect 82 0 71 0;
#X connect 83 0 71 1;
#X connect 84 0 68 0;
#X connect 85 0 68 1;
#X connect 86 0 79 0;
#X connect 87 0 79 1;
#X connect 88 0 75 0;
#X connect 89 0 75 1;
#X connect 90 0 5 1;
#X connect 90 0 16 1;
#X connect 90 0 27 1;
#X connect 90 0 36 1;
#X connect 90 0 50 1;
#X connect 91 0 4 1;
#X connect 91 0 15 1;
#X connect 91 0 26 1;
#X connect 91 0 35 1;
#X connect 91 0 49 1;
#X restore 142 148 pd alg1;
#N canvas -8 -8 1366 685 alg2 0;
#X obj 32 42 inlet;
#X obj 32 305 s \$0-route-op1;
#X obj 144 305 s \$0-route-op1-cable;
#X obj 32 188 pack;
#X obj 32 159 +;
#X obj 64 159 +;
#X obj 32 101 t b b;
#X msg 32 246 pos \$1 \$2;
#X obj 144 217 pack;
#X msg 144 246 pos \$1 \$2;
#X obj 144 188 + 6;
#X obj 179 188 + 17;
#X msg 32 130 0;
#X msg 64 130 0;
#X obj 298 188 pack;
#X obj 298 159 +;
#X obj 330 159 +;
#X msg 298 246 pos \$1 \$2;
#X obj 410 217 pack;
#X msg 410 246 pos \$1 \$2;
#X obj 410 188 + 6;
#X obj 445 188 + 17;
#X obj 298 101 t b b;
#X obj 298 305 s \$0-route-op2;
#X obj 410 305 s \$0-route-op2-cable;
#X obj 564 188 pack;
#X obj 564 159 +;
#X obj 596 159 +;
#X obj 564 101 t b b;
#X msg 564 246 pos \$1 \$2;
#X obj 676 217 pack;
#X msg 676 246 pos \$1 \$2;
#X obj 676 188 + 6;
#X obj 711 188 + 17;
#X obj 830 188 pack;
#X obj 830 159 +;
#X obj 862 159 +;
#X msg 830 246 pos \$1 \$2;
#X obj 942 217 pack;
#X msg 942 246 pos \$1 \$2;
#X obj 942 188 + 6;
#X obj 977 188 + 17;
#X obj 830 101 t b b;
#X obj 830 305 s \$0-route-op4;
#X obj 942 305 s \$0-route-op4-cable;
#X obj 676 305 s \$0-route-op3-cable;
#X obj 564 305 s \$0-route-op3;
#X obj 698 111 loadbang;
#X obj 1096 188 pack;
#X obj 1096 159 +;
#X obj 1128 159 +;
#X msg 1096 246 pos \$1 \$2;
#X obj 1096 101 t b b;
#X obj 1096 305 s \$0-route-out;
#X msg 330 130 0;
#X msg 596 130 27;
#X msg 862 130 54;
#X msg 1128 130 81;
#X msg 298 130 17;
#X msg 830 130 8;
#X msg 1096 130 8;
#X msg 564 130 17;
#X msg 420 275 vis_size 1 8;
#X msg 686 275 vis_size 1 8;
#X msg 952 275 vis_size 1 8;
#X msg 154 275 vis_size 1 35;
#X obj 193 480 s \$0-route-op1-cable3;
#X obj 193 364 t b b;
#X obj 193 422 pack;
#X msg 193 451 pos \$1 \$2;
#X obj 32 364 t b b;
#X obj 32 422 pack;
#X msg 32 451 pos \$1 \$2;
#X obj 32 480 s \$0-route-op1-cable2;
#X obj 32 509 t b b;
#X obj 32 567 pack;
#X msg 32 596 pos \$1 \$2;
#X obj 32 625 s \$0-route-op1-cableh;
#X obj 354 364 t b b;
#X obj 354 422 pack;
#X msg 354 451 pos \$1 \$2;
#X obj 354 480 s \$0-route-out-cable;
#X msg 32 393 11;
#X msg 64 393 11;
#X msg 193 393 11;
#X msg 225 393 11;
#X msg 354 393 11;
#X msg 386 393 11;
#X msg 64 538 11;
#X msg 32 538 11;
#X msg 729 140 389;
#X msg 667 140 487;
#X connect 0 0 6 0;
#X connect 0 0 22 0;
#X connect 0 0 28 0;
#X connect 0 0 42 0;
#X connect 0 0 52 0;
#X connect 0 0 70 0;
#X connect 0 0 67 0;
#X connect 0 0 74 0;
#X connect 0 0 78 0;
#X connect 3 0 7 0;
#X connect 4 0 3 0;
#X connect 4 0 10 0;
#X connect 5 0 3 1;
#X connect 5 0 11 0;
#X connect 6 0 12 0;
#X connect 6 1 13 0;
#X connect 7 0 1 0;
#X connect 8 0 9 0;
#X connect 9 0 2 0;
#X connect 9 0 65 0;
#X connect 10 0 8 0;
#X connect 11 0 8 1;
#X connect 12 0 4 0;
#X connect 13 0 5 0;
#X connect 14 0 17 0;
#X connect 15 0 14 0;
#X connect 15 0 20 0;
#X connect 16 0 14 1;
#X connect 16 0 21 0;
#X connect 17 0 23 0;
#X connect 18 0 19 0;
#X connect 19 0 24 0;
#X connect 19 0 62 0;
#X connect 20 0 18 0;
#X connect 21 0 18 1;
#X connect 22 0 58 0;
#X connect 22 1 54 0;
#X connect 25 0 29 0;
#X connect 26 0 25 0;
#X connect 26 0 32 0;
#X connect 27 0 25 1;
#X connect 27 0 33 0;
#X connect 28 0 61 0;
#X connect 28 1 55 0;
#X connect 29 0 46 0;
#X connect 30 0 31 0;
#X connect 31 0 45 0;
#X connect 31 0 63 0;
#X connect 32 0 30 0;
#X connect 33 0 30 1;
#X connect 34 0 37 0;
#X connect 35 0 34 0;
#X connect 35 0 40 0;
#X connect 36 0 34 1;
#X connect 36 0 41 0;
#X connect 37 0 43 0;
#X connect 38 0 39 0;
#X connect 39 0 44 0;
#X connect 39 0 64 0;
#X connect 40 0 38 0;
#X connect 41 0 38 1;
#X connect 42 0 59 0;
#X connect 42 1 56 0;
#X connect 47 0 91 0;
#X connect 47 0 90 0;
#X connect 48 0 51 0;
#X connect 49 0 48 0;
#X connect 50 0 48 1;
#X connect 51 0 53 0;
#X connect 52 0 60 0;
#X connect 52 1 57 0;
#X connect 54 0 16 0;
#X connect 55 0 27 0;
#X connect 56 0 36 0;
#X connect 57 0 50 0;
#X connect 58 0 15 0;
#X connect 59 0 35 0;
#X connect 60 0 49 0;
#X connect 61 0 26 0;
#X connect 62 0 24 0;
#X connect 63 0 45 0;
#X connect 64 0 44 0;
#X connect 65 0 2 0;
#X connect 67 0 84 0;
#X connect 67 1 85 0;
#X connect 68 0 69 0;
#X connect 69 0 66 0;
#X connect 70 0 82 0;
#X connect 70 1 83 0;
#X connect 71 0 72 0;
#X connect 72 0 73 0;
#X connect 74 0 89 0;
#X connect 74 1 88 0;
#X connect 75 0 76 0;
#X connect 76 0 77 0;
#X connect 78 0 86 0;
#X connect 78 1 87 0;
#X connect 79 0 80 0;
#X connect 80 0 81 0;
#X connect 82 0 71 0;
#X connect 83 0 71 1;
#X connect 84 0 68 0;
#X connect 85 0 68 1;
#X connect 86 0 79 0;
#X connect 87 0 79 1;
#X connect 88 0 75 1;
#X connect 89 0 75 0;
#X connect 90 0 5 1;
#X connect 90 0 16 1;
#X connect 90 0 27 1;
#X connect 90 0 36 1;
#X connect 90 0 50 1;
#X connect 91 0 4 1;
#X connect 91 0 15 1;
#X connect 91 0 26 1;
#X connect 91 0 35 1;
#X connect 91 0 49 1;
#X restore 158 177 pd alg2;
#N canvas -8 -8 1366 685 alg3 0;
#X obj 32 42 inlet;
#X obj 32 305 s \$0-route-op1;
#X obj 144 305 s \$0-route-op1-cable;
#X obj 32 188 pack;
#X obj 32 159 +;
#X obj 64 159 +;
#X obj 32 101 t b b;
#X msg 32 246 pos \$1 \$2;
#X obj 144 217 pack;
#X msg 144 246 pos \$1 \$2;
#X obj 144 188 + 6;
#X obj 179 188 + 17;
#X msg 32 130 0;
#X msg 64 130 0;
#X obj 298 188 pack;
#X obj 298 159 +;
#X obj 330 159 +;
#X msg 298 246 pos \$1 \$2;
#X obj 410 217 pack;
#X msg 410 246 pos \$1 \$2;
#X obj 410 188 + 6;
#X obj 445 188 + 17;
#X obj 298 101 t b b;
#X obj 298 305 s \$0-route-op2;
#X obj 410 305 s \$0-route-op2-cable;
#X obj 564 188 pack;
#X obj 564 159 +;
#X obj 596 159 +;
#X obj 564 101 t b b;
#X msg 564 246 pos \$1 \$2;
#X obj 676 217 pack;
#X msg 676 246 pos \$1 \$2;
#X obj 676 188 + 6;
#X obj 711 188 + 17;
#X obj 830 188 pack;
#X obj 830 159 +;
#X obj 862 159 +;
#X msg 830 246 pos \$1 \$2;
#X obj 942 217 pack;
#X msg 942 246 pos \$1 \$2;
#X obj 942 188 + 6;
#X obj 977 188 + 17;
#X obj 830 101 t b b;
#X obj 830 305 s \$0-route-op4;
#X obj 942 305 s \$0-route-op4-cable;
#X obj 676 305 s \$0-route-op3-cable;
#X obj 564 305 s \$0-route-op3;
#X obj 698 111 loadbang;
#X obj 1096 188 pack;
#X obj 1096 159 +;
#X obj 1128 159 +;
#X msg 1096 246 pos \$1 \$2;
#X obj 1096 101 t b b;
#X obj 1096 305 s \$0-route-out;
#X msg 862 130 54;
#X msg 1128 130 81;
#X msg 830 130 8;
#X msg 1096 130 8;
#X msg 564 130 17;
#X msg 420 275 vis_size 1 8;
#X msg 952 275 vis_size 1 8;
#X msg 596 130 0;
#X msg 298 130 0;
#X msg 330 130 27;
#X msg 154 275 vis_size 1 8;
#X msg 686 275 vis_size 1 35;
#X obj 193 480 s \$0-route-op1-cable3;
#X obj 193 364 t b b;
#X obj 193 422 pack;
#X msg 193 451 pos \$1 \$2;
#X obj 32 364 t b b;
#X obj 32 422 pack;
#X msg 32 451 pos \$1 \$2;
#X obj 32 480 s \$0-route-op1-cable2;
#X obj 32 509 t b b;
#X obj 32 567 pack;
#X msg 32 596 pos \$1 \$2;
#X obj 32 625 s \$0-route-op1-cableh;
#X obj 354 364 t b b;
#X obj 354 422 pack;
#X msg 354 451 pos \$1 \$2;
#X obj 354 480 s \$0-route-out-cable;
#X msg 32 393 11;
#X msg 64 393 11;
#X msg 193 393 11;
#X msg 225 393 11;
#X msg 354 393 11;
#X msg 386 393 11;
#X msg 64 538 11;
#X msg 32 538 11;
#X msg 729 140 389;
#X msg 667 140 487;
#X connect 0 0 6 0;
#X connect 0 0 22 0;
#X connect 0 0 28 0;
#X connect 0 0 42 0;
#X connect 0 0 52 0;
#X connect 0 0 70 0;
#X connect 0 0 67 0;
#X connect 0 0 74 0;
#X connect 0 0 78 0;
#X connect 3 0 7 0;
#X connect 4 0 3 0;
#X connect 4 0 10 0;
#X connect 5 0 3 1;
#X connect 5 0 11 0;
#X connect 6 0 12 0;
#X connect 6 1 13 0;
#X connect 7 0 1 0;
#X connect 8 0 9 0;
#X connect 9 0 2 0;
#X connect 9 0 64 0;
#X connect 10 0 8 0;
#X connect 11 0 8 1;
#X connect 12 0 4 0;
#X connect 13 0 5 0;
#X connect 14 0 17 0;
#X connect 15 0 14 0;
#X connect 15 0 20 0;
#X connect 16 0 14 1;
#X connect 16 0 21 0;
#X connect 17 0 23 0;
#X connect 18 0 19 0;
#X connect 19 0 24 0;
#X connect 19 0 59 0;
#X connect 20 0 18 0;
#X connect 21 0 18 1;
#X connect 22 0 62 0;
#X connect 22 1 63 0;
#X connect 25 0 29 0;
#X connect 26 0 25 0;
#X connect 26 0 32 0;
#X connect 27 0 25 1;
#X connect 27 0 33 0;
#X connect 28 0 58 0;
#X connect 28 1 61 0;
#X connect 29 0 46 0;
#X connect 30 0 31 0;
#X connect 31 0 45 0;
#X connect 31 0 65 0;
#X connect 32 0 30 0;
#X connect 33 0 30 1;
#X connect 34 0 37 0;
#X connect 35 0 34 0;
#X connect 35 0 40 0;
#X connect 36 0 34 1;
#X connect 36 0 41 0;
#X connect 37 0 43 0;
#X connect 38 0 39 0;
#X connect 39 0 44 0;
#X connect 39 0 60 0;
#X connect 40 0 38 0;
#X connect 41 0 38 1;
#X connect 42 0 56 0;
#X connect 42 1 54 0;
#X connect 47 0 91 0;
#X connect 47 0 90 0;
#X connect 48 0 51 0;
#X connect 49 0 48 0;
#X connect 50 0 48 1;
#X connect 51 0 53 0;
#X connect 52 0 57 0;
#X connect 52 1 55 0;
#X connect 54 0 36 0;
#X connect 55 0 50 0;
#X connect 56 0 35 0;
#X connect 57 0 49 0;
#X connect 58 0 26 0;
#X connect 59 0 24 0;
#X connect 60 0 44 0;
#X connect 61 0 27 0;
#X connect 62 0 15 0;
#X connect 63 0 16 0;
#X connect 64 0 2 0;
#X connect 65 0 45 0;
#X connect 67 0 84 0;
#X connect 67 1 85 0;
#X connect 68 0 69 0;
#X connect 69 0 66 0;
#X connect 70 0 82 0;
#X connect 70 1 83 0;
#X connect 71 0 72 0;
#X connect 72 0 73 0;
#X connect 74 0 89 0;
#X connect 74 1 88 0;
#X connect 75 0 76 0;
#X connect 76 0 77 0;
#X connect 78 0 86 0;
#X connect 78 1 87 0;
#X connect 79 0 80 0;
#X connect 80 0 81 0;
#X connect 82 0 71 0;
#X connect 83 0 71 1;
#X connect 84 0 68 0;
#X connect 85 0 68 1;
#X connect 86 0 79 0;
#X connect 87 0 79 1;
#X connect 88 0 75 1;
#X connect 89 0 75 0;
#X connect 90 0 5 1;
#X connect 90 0 16 1;
#X connect 90 0 27 1;
#X connect 90 0 36 1;
#X connect 90 0 50 1;
#X connect 91 0 4 1;
#X connect 91 0 15 1;
#X connect 91 0 26 1;
#X connect 91 0 35 1;
#X connect 91 0 49 1;
#X restore 174 206 pd alg3;
#N canvas -8 -8 1366 685 alg4 0;
#X obj 32 42 inlet;
#X obj 32 305 s \$0-route-op1;
#X obj 144 305 s \$0-route-op1-cable;
#X obj 32 188 pack;
#X obj 32 159 +;
#X obj 64 159 +;
#X obj 32 101 t b b;
#X msg 32 246 pos \$1 \$2;
#X obj 144 217 pack;
#X msg 144 246 pos \$1 \$2;
#X obj 144 188 + 6;
#X obj 179 188 + 17;
#X msg 32 130 0;
#X msg 64 130 0;
#X obj 298 188 pack;
#X obj 298 159 +;
#X obj 330 159 +;
#X msg 298 246 pos \$1 \$2;
#X obj 410 217 pack;
#X msg 410 246 pos \$1 \$2;
#X obj 410 188 + 6;
#X obj 445 188 + 17;
#X obj 298 101 t b b;
#X obj 298 305 s \$0-route-op2;
#X obj 410 305 s \$0-route-op2-cable;
#X obj 564 188 pack;
#X obj 564 159 +;
#X obj 596 159 +;
#X obj 564 101 t b b;
#X msg 564 246 pos \$1 \$2;
#X obj 676 217 pack;
#X msg 676 246 pos \$1 \$2;
#X obj 676 188 + 6;
#X obj 711 188 + 17;
#X obj 830 188 pack;
#X obj 830 159 +;
#X obj 862 159 +;
#X msg 830 246 pos \$1 \$2;
#X obj 942 217 pack;
#X msg 942 246 pos \$1 \$2;
#X obj 942 188 + 6;
#X obj 977 188 + 17;
#X obj 830 101 t b b;
#X obj 830 305 s \$0-route-op4;
#X obj 942 305 s \$0-route-op4-cable;
#X obj 676 305 s \$0-route-op3-cable;
#X obj 564 305 s \$0-route-op3;
#X obj 698 111 loadbang;
#X obj 1096 188 pack;
#X obj 1096 159 +;
#X obj 1128 159 +;
#X msg 1096 246 pos \$1 \$2;
#X obj 1096 101 t b b;
#X obj 1096 305 s \$0-route-out;
#X msg 1096 130 8;
#X msg 564 130 17;
#X msg 420 275 vis_size 1 8;
#X msg 952 275 vis_size 1 8;
#X msg 596 130 0;
#X msg 298 130 0;
#X msg 330 130 27;
#X msg 154 275 vis_size 1 8;
#X msg 687 275 vis_size 1 8;
#X msg 862 130 27;
#X msg 1128 130 54;
#X msg 830 130 17;
#X obj 193 480 s \$0-route-op1-cable3;
#X obj 193 364 t b b;
#X obj 193 422 pack;
#X msg 193 451 pos \$1 \$2;
#X obj 32 364 t b b;
#X obj 32 422 pack;
#X msg 32 451 pos \$1 \$2;
#X obj 32 480 s \$0-route-op1-cable2;
#X obj 32 509 t b b;
#X obj 32 567 pack;
#X msg 32 596 pos \$1 \$2;
#X obj 32 625 s \$0-route-op1-cableh;
#X obj 354 364 t b b;
#X obj 354 422 pack;
#X msg 354 451 pos \$1 \$2;
#X obj 354 480 s \$0-route-out-cable;
#X msg 193 393 11;
#X msg 225 393 11;
#X msg 354 393 11;
#X msg 386 393 11;
#X msg 32 393 11;
#X msg 64 393 11;
#X msg 32 538 11;
#X msg 64 538 11;
#X msg 729 140 403;
#X msg 667 140 487;
#X connect 0 0 6 0;
#X connect 0 0 22 0;
#X connect 0 0 28 0;
#X connect 0 0 42 0;
#X connect 0 0 52 0;
#X connect 0 0 70 0;
#X connect 0 0 67 0;
#X connect 0 0 74 0;
#X connect 0 0 78 0;
#X connect 3 0 7 0;
#X connect 4 0 3 0;
#X connect 4 0 10 0;
#X connect 5 0 3 1;
#X connect 5 0 11 0;
#X connect 6 0 12 0;
#X connect 6 1 13 0;
#X connect 7 0 1 0;
#X connect 8 0 9 0;
#X connect 9 0 2 0;
#X connect 9 0 61 0;
#X connect 10 0 8 0;
#X connect 11 0 8 1;
#X connect 12 0 4 0;
#X connect 13 0 5 0;
#X connect 14 0 17 0;
#X connect 15 0 14 0;
#X connect 15 0 20 0;
#X connect 16 0 14 1;
#X connect 16 0 21 0;
#X connect 17 0 23 0;
#X connect 18 0 19 0;
#X connect 19 0 24 0;
#X connect 19 0 56 0;
#X connect 20 0 18 0;
#X connect 21 0 18 1;
#X connect 22 0 59 0;
#X connect 22 1 60 0;
#X connect 25 0 29 0;
#X connect 26 0 25 0;
#X connect 26 0 32 0;
#X connect 27 0 25 1;
#X connect 27 0 33 0;
#X connect 28 0 55 0;
#X connect 28 1 58 0;
#X connect 29 0 46 0;
#X connect 30 0 31 0;
#X connect 31 0 45 0;
#X connect 31 0 62 0;
#X connect 32 0 30 0;
#X connect 33 0 30 1;
#X connect 34 0 37 0;
#X connect 35 0 34 0;
#X connect 35 0 40 0;
#X connect 36 0 34 1;
#X connect 36 0 41 0;
#X connect 37 0 43 0;
#X connect 38 0 39 0;
#X connect 39 0 44 0;
#X connect 39 0 57 0;
#X connect 40 0 38 0;
#X connect 41 0 38 1;
#X connect 42 0 65 0;
#X connect 42 1 63 0;
#X connect 47 0 91 0;
#X connect 47 0 90 0;
#X connect 48 0 51 0;
#X connect 49 0 48 0;
#X connect 50 0 48 1;
#X connect 51 0 53 0;
#X connect 52 0 54 0;
#X connect 52 1 64 0;
#X connect 54 0 49 0;
#X connect 55 0 26 0;
#X connect 56 0 24 0;
#X connect 57 0 44 0;
#X connect 58 0 27 0;
#X connect 59 0 15 0;
#X connect 60 0 16 0;
#X connect 61 0 2 0;
#X connect 62 0 45 0;
#X connect 63 0 36 0;
#X connect 64 0 50 0;
#X connect 65 0 35 0;
#X connect 67 0 82 0;
#X connect 67 1 83 0;
#X connect 68 0 69 0;
#X connect 69 0 66 0;
#X connect 70 0 86 0;
#X connect 70 1 87 0;
#X connect 71 0 72 0;
#X connect 72 0 73 0;
#X connect 74 0 88 0;
#X connect 74 1 89 0;
#X connect 75 0 76 0;
#X connect 76 0 77 0;
#X connect 78 0 84 0;
#X connect 78 1 85 0;
#X connect 79 0 80 0;
#X connect 80 0 81 0;
#X connect 82 0 68 0;
#X connect 83 0 68 1;
#X connect 84 0 79 0;
#X connect 85 0 79 1;
#X connect 86 0 71 0;
#X connect 87 0 71 1;
#X connect 88 0 75 0;
#X connect 89 0 75 1;
#X connect 90 0 5 1;
#X connect 90 0 16 1;
#X connect 90 0 27 1;
#X connect 90 0 36 1;
#X connect 90 0 50 1;
#X connect 91 0 4 1;
#X connect 91 0 15 1;
#X connect 91 0 26 1;
#X connect 91 0 35 1;
#X connect 91 0 49 1;
#X restore 191 119 pd alg4;
#N canvas -8 -8 1366 685 alg7 0;
#X obj 32 42 inlet;
#X obj 32 305 s \$0-route-op1;
#X obj 144 305 s \$0-route-op1-cable;
#X obj 32 188 pack;
#X obj 32 159 +;
#X obj 64 159 +;
#X obj 32 101 t b b;
#X msg 32 246 pos \$1 \$2;
#X obj 144 217 pack;
#X msg 144 246 pos \$1 \$2;
#X obj 144 188 + 6;
#X obj 179 188 + 17;
#X msg 32 130 0;
#X msg 64 130 0;
#X obj 298 188 pack;
#X obj 298 159 +;
#X obj 330 159 +;
#X msg 298 246 pos \$1 \$2;
#X obj 410 217 pack;
#X msg 410 246 pos \$1 \$2;
#X obj 410 188 + 6;
#X obj 445 188 + 17;
#X obj 298 101 t b b;
#X obj 298 305 s \$0-route-op2;
#X obj 410 305 s \$0-route-op2-cable;
#X obj 564 188 pack;
#X obj 564 159 +;
#X obj 596 159 +;
#X obj 564 101 t b b;
#X msg 564 246 pos \$1 \$2;
#X obj 676 217 pack;
#X msg 676 246 pos \$1 \$2;
#X obj 676 188 + 6;
#X obj 711 188 + 17;
#X obj 830 188 pack;
#X obj 830 159 +;
#X obj 862 159 +;
#X msg 830 246 pos \$1 \$2;
#X obj 942 217 pack;
#X msg 942 246 pos \$1 \$2;
#X obj 942 188 + 6;
#X obj 977 188 + 17;
#X obj 830 101 t b b;
#X obj 830 305 s \$0-route-op4;
#X obj 942 305 s \$0-route-op4-cable;
#X obj 676 305 s \$0-route-op3-cable;
#X obj 564 305 s \$0-route-op3;
#X obj 698 111 loadbang;
#X obj 1096 188 pack;
#X obj 1096 159 +;
#X obj 1128 159 +;
#X msg 1096 246 pos \$1 \$2;
#X obj 1096 101 t b b;
#X obj 1096 305 s \$0-route-out;
#X msg 420 275 vis_size 1 8;
#X msg 952 275 vis_size 1 8;
#X msg 596 130 0;
#X msg 154 275 vis_size 1 8;
#X msg 687 275 vis_size 1 8;
#X msg 298 130 17;
#X msg 564 130 34;
#X msg 330 130 0;
#X msg 1128 130 27;
#X msg 862 130 0;
#X msg 830 130 51;
#X msg 1096 130 26;
#X obj 193 480 s \$0-route-op1-cable3;
#X obj 193 364 t b b;
#X obj 193 422 pack;
#X msg 193 451 pos \$1 \$2;
#X obj 32 364 t b b;
#X obj 32 422 pack;
#X msg 32 451 pos \$1 \$2;
#X obj 32 480 s \$0-route-op1-cable2;
#X obj 354 451 pack;
#X obj 354 422 +;
#X obj 386 422 +;
#X msg 354 480 pos \$1 \$2;
#X obj 354 364 t b b;
#X obj 354 538 s \$0-route-out-cable;
#X msg 354 393 8;
#X msg 386 393 24;
#X msg 364 509 vis_size 48 1;
#X obj 32 509 t b b;
#X obj 32 567 pack;
#X msg 32 596 pos \$1 \$2;
#X obj 32 625 s \$0-route-op1-cableh;
#X msg 225 393 11;
#X msg 193 393 11;
#X msg 64 393 11;
#X msg 32 393 11;
#X msg 32 538 11;
#X msg 64 538 11;
#X msg 729 140 417;
#X msg 667 140 470;
#X connect 0 0 6 0;
#X connect 0 0 22 0;
#X connect 0 0 28 0;
#X connect 0 0 42 0;
#X connect 0 0 52 0;
#X connect 0 0 70 0;
#X connect 0 0 67 0;
#X connect 0 0 78 0;
#X connect 0 0 83 0;
#X connect 3 0 7 0;
#X connect 4 0 3 0;
#X connect 4 0 10 0;
#X connect 5 0 3 1;
#X connect 5 0 11 0;
#X connect 6 0 12 0;
#X connect 6 1 13 0;
#X connect 7 0 1 0;
#X connect 8 0 9 0;
#X connect 9 0 2 0;
#X connect 9 0 57 0;
#X connect 10 0 8 0;
#X connect 11 0 8 1;
#X connect 12 0 4 0;
#X connect 13 0 5 0;
#X connect 14 0 17 0;
#X connect 15 0 14 0;
#X connect 15 0 20 0;
#X connect 16 0 14 1;
#X connect 16 0 21 0;
#X connect 17 0 23 0;
#X connect 18 0 19 0;
#X connect 19 0 24 0;
#X connect 19 0 54 0;
#X connect 20 0 18 0;
#X connect 21 0 18 1;
#X connect 22 0 59 0;
#X connect 22 1 61 0;
#X connect 25 0 29 0;
#X connect 26 0 25 0;
#X connect 26 0 32 0;
#X connect 27 0 25 1;
#X connect 27 0 33 0;
#X connect 28 0 60 0;
#X connect 28 1 56 0;
#X connect 29 0 46 0;
#X connect 30 0 31 0;
#X connect 31 0 45 0;
#X connect 31 0 58 0;
#X connect 32 0 30 0;
#X connect 33 0 30 1;
#X connect 34 0 37 0;
#X connect 35 0 34 0;
#X connect 35 0 40 0;
#X connect 36 0 34 1;
#X connect 36 0 41 0;
#X connect 37 0 43 0;
#X connect 38 0 39 0;
#X connect 39 0 44 0;
#X connect 39 0 55 0;
#X connect 40 0 38 0;
#X connect 41 0 38 1;
#X connect 42 0 64 0;
#X connect 42 1 63 0;
#X connect 47 0 94 0;
#X connect 47 0 93 0;
#X connect 48 0 51 0;
#X connect 49 0 48 0;
#X connect 50 0 48 1;
#X connect 51 0 53 0;
#X connect 52 0 65 0;
#X connect 52 1 62 0;
#X connect 54 0 24 0;
#X connect 55 0 44 0;
#X connect 56 0 27 0;
#X connect 57 0 2 0;
#X connect 58 0 45 0;
#X connect 59 0 15 0;
#X connect 60 0 26 0;
#X connect 61 0 16 0;
#X connect 62 0 50 0;
#X connect 63 0 36 0;
#X connect 64 0 35 0;
#X connect 65 0 49 0;
#X connect 67 0 88 0;
#X connect 67 1 87 0;
#X connect 68 0 69 0;
#X connect 69 0 66 0;
#X connect 70 0 90 0;
#X connect 70 1 89 0;
#X connect 71 0 72 0;
#X connect 72 0 73 0;
#X connect 74 0 77 0;
#X connect 75 0 74 0;
#X connect 76 0 74 1;
#X connect 77 0 82 0;
#X connect 77 0 79 0;
#X connect 78 0 80 0;
#X connect 78 1 81 0;
#X connect 80 0 75 0;
#X connect 81 0 76 0;
#X connect 82 0 79 0;
#X connect 83 0 91 0;
#X connect 83 1 92 0;
#X connect 84 0 85 0;
#X connect 85 0 86 0;
#X connect 87 0 68 1;
#X connect 88 0 68 0;
#X connect 89 0 71 1;
#X connect 90 0 71 0;
#X connect 91 0 84 0;
#X connect 92 0 84 1;
#X connect 93 0 5 1;
#X connect 93 0 16 1;
#X connect 93 0 27 1;
#X connect 93 0 36 1;
#X connect 93 0 50 1;
#X connect 93 0 76 1;
#X connect 94 0 4 1;
#X connect 94 0 15 1;
#X connect 94 0 26 1;
#X connect 94 0 35 1;
#X connect 94 0 49 1;
#X connect 94 0 75 1;
#X restore 239 206 pd alg7;
#N canvas -8 -8 1366 685 alg5 0;
#X obj 32 42 inlet;
#X obj 32 305 s \$0-route-op1;
#X obj 144 305 s \$0-route-op1-cable;
#X obj 32 188 pack;
#X obj 32 159 +;
#X obj 64 159 +;
#X obj 32 101 t b b;
#X msg 32 246 pos \$1 \$2;
#X obj 144 217 pack;
#X msg 144 246 pos \$1 \$2;
#X obj 144 188 + 6;
#X obj 179 188 + 17;
#X msg 64 130 0;
#X obj 298 188 pack;
#X obj 298 159 +;
#X obj 330 159 +;
#X msg 298 246 pos \$1 \$2;
#X obj 410 217 pack;
#X msg 410 246 pos \$1 \$2;
#X obj 410 188 + 6;
#X obj 445 188 + 17;
#X obj 298 101 t b b;
#X obj 298 305 s \$0-route-op2;
#X obj 410 305 s \$0-route-op2-cable;
#X obj 564 188 pack;
#X obj 564 159 +;
#X obj 596 159 +;
#X obj 564 101 t b b;
#X msg 564 246 pos \$1 \$2;
#X obj 676 217 pack;
#X msg 676 246 pos \$1 \$2;
#X obj 676 188 + 6;
#X obj 711 188 + 17;
#X obj 830 188 pack;
#X obj 830 159 +;
#X obj 862 159 +;
#X msg 830 246 pos \$1 \$2;
#X obj 942 217 pack;
#X msg 942 246 pos \$1 \$2;
#X obj 942 188 + 6;
#X obj 977 188 + 17;
#X obj 830 101 t b b;
#X obj 830 305 s \$0-route-op4;
#X obj 942 305 s \$0-route-op4-cable;
#X obj 676 305 s \$0-route-op3-cable;
#X obj 564 305 s \$0-route-op3;
#X obj 698 111 loadbang;
#X obj 1096 188 pack;
#X obj 1096 159 +;
#X obj 1128 159 +;
#X msg 1096 246 pos \$1 \$2;
#X obj 1096 101 t b b;
#X obj 1096 305 s \$0-route-out;
#X msg 564 130 17;
#X msg 420 275 vis_size 1 8;
#X msg 952 275 vis_size 1 8;
#X msg 298 130 0;
#X msg 330 130 27;
#X msg 154 275 vis_size 1 8;
#X msg 687 275 vis_size 1 8;
#X msg 862 130 27;
#X msg 596 130 27;
#X msg 830 130 34;
#X msg 1128 130 54;
#X msg 32 130 17;
#X msg 1096 130 17;
#X obj 193 538 s \$0-route-op1-cable3;
#X obj 193 422 +;
#X obj 225 422 +;
#X obj 193 364 t b b;
#X obj 193 480 pack;
#X msg 193 509 pos \$1 \$2;
#X obj 193 451 + 6;
#X obj 225 451 + 17;
#X msg 225 393 0;
#X obj 32 422 +;
#X obj 64 422 +;
#X obj 32 364 t b b;
#X obj 32 480 pack;
#X msg 32 509 pos \$1 \$2;
#X obj 32 451 + 6;
#X obj 64 451 + 17;
#X msg 64 393 0;
#X obj 32 538 s \$0-route-op1-cable2;
#X msg 32 393 0;
#X msg 193 393 34;
#X obj 354 451 pack;
#X obj 354 422 +;
#X obj 386 422 +;
#X msg 354 480 pos \$1 \$2;
#X obj 354 364 t b b;
#X obj 354 538 s \$0-route-out-cable;
#X msg 354 393 8;
#X msg 386 393 51;
#X msg 364 509 vis_size 31 1;
#X obj 32 625 +;
#X obj 64 625 +;
#X obj 32 567 t b b;
#X obj 32 683 pack;
#X msg 32 712 pos \$1 \$2;
#X obj 32 654 + 6;
#X obj 64 654 + 17;
#X msg 64 596 0;
#X obj 32 741 s \$0-route-op1-cableh;
#X msg 32 596 3;
#X msg 729 140 403;
#X msg 667 140 478;
#X connect 0 0 6 0;
#X connect 0 0 21 0;
#X connect 0 0 27 0;
#X connect 0 0 41 0;
#X connect 0 0 51 0;
#X connect 0 0 69 0;
#X connect 0 0 77 0;
#X connect 0 0 90 0;
#X connect 0 0 97 0;
#X connect 3 0 7 0;
#X connect 4 0 3 0;
#X connect 4 0 10 0;
#X connect 5 0 3 1;
#X connect 5 0 11 0;
#X connect 6 0 64 0;
#X connect 6 1 12 0;
#X connect 7 0 1 0;
#X connect 8 0 9 0;
#X connect 9 0 2 0;
#X connect 9 0 58 0;
#X connect 10 0 8 0;
#X connect 11 0 8 1;
#X connect 12 0 5 0;
#X connect 13 0 16 0;
#X connect 14 0 13 0;
#X connect 14 0 19 0;
#X connect 15 0 13 1;
#X connect 15 0 20 0;
#X connect 16 0 22 0;
#X connect 17 0 18 0;
#X connect 18 0 23 0;
#X connect 18 0 54 0;
#X connect 19 0 17 0;
#X connect 20 0 17 1;
#X connect 21 0 56 0;
#X connect 21 1 57 0;
#X connect 24 0 28 0;
#X connect 25 0 24 0;
#X connect 25 0 31 0;
#X connect 26 0 24 1;
#X connect 26 0 32 0;
#X connect 27 0 53 0;
#X connect 27 1 61 0;
#X connect 28 0 45 0;
#X connect 29 0 30 0;
#X connect 30 0 44 0;
#X connect 30 0 59 0;
#X connect 31 0 29 0;
#X connect 32 0 29 1;
#X connect 33 0 36 0;
#X connect 34 0 33 0;
#X connect 34 0 39 0;
#X connect 35 0 33 1;
#X connect 35 0 40 0;
#X connect 36 0 42 0;
#X connect 37 0 38 0;
#X connect 38 0 43 0;
#X connect 38 0 55 0;
#X connect 39 0 37 0;
#X connect 40 0 37 1;
#X connect 41 0 62 0;
#X connect 41 1 60 0;
#X connect 46 0 106 0;
#X connect 46 0 105 0;
#X connect 47 0 50 0;
#X connect 48 0 47 0;
#X connect 49 0 47 1;
#X connect 50 0 52 0;
#X connect 51 0 65 0;
#X connect 51 1 63 0;
#X connect 53 0 25 0;
#X connect 54 0 23 0;
#X connect 55 0 43 0;
#X connect 56 0 14 0;
#X connect 57 0 15 0;
#X connect 58 0 2 0;
#X connect 59 0 44 0;
#X connect 60 0 35 0;
#X connect 61 0 26 0;
#X connect 62 0 34 0;
#X connect 63 0 49 0;
#X connect 64 0 4 0;
#X connect 65 0 48 0;
#X connect 67 0 72 0;
#X connect 68 0 73 0;
#X connect 69 0 85 0;
#X connect 69 1 74 0;
#X connect 70 0 71 0;
#X connect 71 0 66 0;
#X connect 72 0 70 0;
#X connect 73 0 70 1;
#X connect 74 0 68 0;
#X connect 75 0 80 0;
#X connect 76 0 81 0;
#X connect 77 0 84 0;
#X connect 77 1 82 0;
#X connect 78 0 79 0;
#X connect 79 0 83 0;
#X connect 80 0 78 0;
#X connect 81 0 78 1;
#X connect 82 0 76 0;
#X connect 84 0 75 0;
#X connect 85 0 67 0;
#X connect 86 0 89 0;
#X connect 87 0 86 0;
#X connect 88 0 86 1;
#X connect 89 0 94 0;
#X connect 89 0 91 0;
#X connect 90 0 92 0;
#X connect 90 1 93 0;
#X connect 92 0 87 0;
#X connect 93 0 88 0;
#X connect 94 0 91 0;
#X connect 95 0 100 0;
#X connect 96 0 101 0;
#X connect 97 0 104 0;
#X connect 97 1 102 0;
#X connect 98 0 99 0;
#X connect 99 0 103 0;
#X connect 100 0 98 0;
#X connect 101 0 98 1;
#X connect 102 0 96 0;
#X connect 104 0 95 0;
#X connect 105 0 5 1;
#X connect 105 0 15 1;
#X connect 105 0 26 1;
#X connect 105 0 35 1;
#X connect 105 0 49 1;
#X connect 105 0 68 1;
#X connect 105 0 76 1;
#X connect 105 0 88 1;
#X connect 105 0 96 1;
#X connect 106 0 4 1;
#X connect 106 0 14 1;
#X connect 106 0 25 1;
#X connect 106 0 34 1;
#X connect 106 0 48 1;
#X connect 106 0 75 1;
#X connect 106 0 67 1;
#X connect 106 0 87 1;
#X connect 106 0 95 1;
#X restore 207 148 pd alg5;
#N canvas -8 -8 1366 685 alg6 0;
#X obj 32 42 inlet;
#X obj 32 305 s \$0-route-op1;
#X obj 144 305 s \$0-route-op1-cable;
#X obj 32 188 pack;
#X obj 32 159 +;
#X obj 64 159 +;
#X obj 32 101 t b b;
#X msg 32 246 pos \$1 \$2;
#X obj 144 217 pack;
#X msg 144 246 pos \$1 \$2;
#X obj 144 188 + 6;
#X obj 179 188 + 17;
#X msg 64 130 0;
#X obj 298 188 pack;
#X obj 298 159 +;
#X obj 330 159 +;
#X msg 298 246 pos \$1 \$2;
#X obj 410 217 pack;
#X msg 410 246 pos \$1 \$2;
#X obj 410 188 + 6;
#X obj 445 188 + 17;
#X obj 298 101 t b b;
#X obj 298 305 s \$0-route-op2;
#X obj 410 305 s \$0-route-op2-cable;
#X obj 564 188 pack;
#X obj 564 159 +;
#X obj 596 159 +;
#X obj 564 101 t b b;
#X msg 564 246 pos \$1 \$2;
#X obj 676 217 pack;
#X msg 676 246 pos \$1 \$2;
#X obj 676 188 + 6;
#X obj 711 188 + 17;
#X obj 830 188 pack;
#X obj 830 159 +;
#X obj 862 159 +;
#X msg 830 246 pos \$1 \$2;
#X obj 942 217 pack;
#X msg 942 246 pos \$1 \$2;
#X obj 942 188 + 6;
#X obj 977 188 + 17;
#X obj 830 101 t b b;
#X obj 830 305 s \$0-route-op4;
#X obj 942 305 s \$0-route-op4-cable;
#X obj 676 305 s \$0-route-op3-cable;
#X obj 564 305 s \$0-route-op3;
#X obj 698 111 loadbang;
#X obj 1096 188 pack;
#X obj 1096 159 +;
#X obj 1128 159 +;
#X msg 1096 246 pos \$1 \$2;
#X obj 1096 101 t b b;
#X obj 1096 305 s \$0-route-out;
#X msg 564 130 17;
#X msg 420 275 vis_size 1 8;
#X msg 952 275 vis_size 1 8;
#X msg 298 130 0;
#X msg 330 130 27;
#X msg 154 275 vis_size 1 8;
#X msg 687 275 vis_size 1 8;
#X msg 862 130 27;
#X msg 596 130 27;
#X msg 830 130 34;
#X msg 1128 130 54;
#X msg 1096 130 17;
#X obj 193 480 s \$0-route-op1-cable3;
#X obj 193 364 t b b;
#X obj 193 422 pack;
#X msg 193 451 pos \$1 \$2;
#X obj 32 364 t b b;
#X obj 32 422 pack;
#X msg 32 451 pos \$1 \$2;
#X obj 32 480 s \$0-route-op1-cable2;
#X obj 354 451 pack;
#X obj 354 422 +;
#X obj 386 422 +;
#X msg 354 480 pos \$1 \$2;
#X obj 354 364 t b b;
#X obj 354 538 s \$0-route-out-cable;
#X msg 354 393 8;
#X msg 386 393 51;
#X msg 364 509 vis_size 31 1;
#X obj 32 509 t b b;
#X obj 32 567 pack;
#X msg 32 596 pos \$1 \$2;
#X obj 32 625 s \$0-route-op1-cableh;
#X msg 32 130 0;
#X msg 64 393 11;
#X msg 32 393 11;
#X msg 193 393 11;
#X msg 225 393 11;
#X msg 64 538 11;
#X msg 32 538 11;
#X msg 729 140 403;
#X msg 667 140 478;
#X connect 0 0 6 0;
#X connect 0 0 21 0;
#X connect 0 0 27 0;
#X connect 0 0 41 0;
#X connect 0 0 51 0;
#X connect 0 0 66 0;
#X connect 0 0 69 0;
#X connect 0 0 77 0;
#X connect 0 0 82 0;
#X connect 3 0 7 0;
#X connect 4 0 3 0;
#X connect 4 0 10 0;
#X connect 5 0 3 1;
#X connect 5 0 11 0;
#X connect 6 0 86 0;
#X connect 6 1 12 0;
#X connect 7 0 1 0;
#X connect 8 0 9 0;
#X connect 9 0 2 0;
#X connect 9 0 58 0;
#X connect 10 0 8 0;
#X connect 11 0 8 1;
#X connect 12 0 5 0;
#X connect 13 0 16 0;
#X connect 14 0 13 0;
#X connect 14 0 19 0;
#X connect 15 0 13 1;
#X connect 15 0 20 0;
#X connect 16 0 22 0;
#X connect 17 0 18 0;
#X connect 18 0 23 0;
#X connect 18 0 54 0;
#X connect 19 0 17 0;
#X connect 20 0 17 1;
#X connect 21 0 56 0;
#X connect 21 1 57 0;
#X connect 24 0 28 0;
#X connect 25 0 24 0;
#X connect 25 0 31 0;
#X connect 26 0 24 1;
#X connect 26 0 32 0;
#X connect 27 0 53 0;
#X connect 27 1 61 0;
#X connect 28 0 45 0;
#X connect 29 0 30 0;
#X connect 30 0 44 0;
#X connect 30 0 59 0;
#X connect 31 0 29 0;
#X connect 32 0 29 1;
#X connect 33 0 36 0;
#X connect 34 0 33 0;
#X connect 34 0 39 0;
#X connect 35 0 33 1;
#X connect 35 0 40 0;
#X connect 36 0 42 0;
#X connect 37 0 38 0;
#X connect 38 0 43 0;
#X connect 38 0 55 0;
#X connect 39 0 37 0;
#X connect 40 0 37 1;
#X connect 41 0 62 0;
#X connect 41 1 60 0;
#X connect 46 0 94 0;
#X connect 46 0 93 0;
#X connect 47 0 50 0;
#X connect 48 0 47 0;
#X connect 49 0 47 1;
#X connect 50 0 52 0;
#X connect 51 0 64 0;
#X connect 51 1 63 0;
#X connect 53 0 25 0;
#X connect 54 0 23 0;
#X connect 55 0 43 0;
#X connect 56 0 14 0;
#X connect 57 0 15 0;
#X connect 58 0 2 0;
#X connect 59 0 44 0;
#X connect 60 0 35 0;
#X connect 61 0 26 0;
#X connect 62 0 34 0;
#X connect 63 0 49 0;
#X connect 64 0 48 0;
#X connect 66 0 89 0;
#X connect 66 1 90 0;
#X connect 67 0 68 0;
#X connect 68 0 65 0;
#X connect 69 0 88 0;
#X connect 69 1 87 0;
#X connect 70 0 71 0;
#X connect 71 0 72 0;
#X connect 73 0 76 0;
#X connect 74 0 73 0;
#X connect 75 0 73 1;
#X connect 76 0 81 0;
#X connect 76 0 78 0;
#X connect 77 0 79 0;
#X connect 77 1 80 0;
#X connect 79 0 74 0;
#X connect 80 0 75 0;
#X connect 81 0 78 0;
#X connect 82 0 92 0;
#X connect 82 1 91 0;
#X connect 83 0 84 0;
#X connect 84 0 85 0;
#X connect 86 0 4 0;
#X connect 87 0 70 1;
#X connect 88 0 70 0;
#X connect 89 0 67 0;
#X connect 90 0 67 1;
#X connect 91 0 83 1;
#X connect 92 0 83 0;
#X connect 93 0 5 1;
#X connect 93 0 15 1;
#X connect 93 0 26 1;
#X connect 93 0 35 1;
#X connect 93 0 49 1;
#X connect 93 0 75 1;
#X connect 94 0 4 1;
#X connect 94 0 14 1;
#X connect 94 0 25 1;
#X connect 94 0 34 1;
#X connect 94 0 48 1;
#X connect 94 0 74 1;
#X restore 223 177 pd alg6;
#X obj 12 188 s camomile;
#X msg 12 129 gui redraw;
#X obj 12 100 delay 10;
#X obj 12 71 t b f;
#X obj 12 12 r \$0-alg;
#X text 16 251 probablemente la parte más fea del proyecto \, es la
lógia detrás del gráfico del ruteo del algoritmo seleccionado;
#X connect 0 0 1 0;
#X connect 0 1 2 0;
#X connect 0 2 3 0;
#X connect 0 3 4 0;
#X connect 0 4 5 0;
#X connect 0 5 7 0;
#X connect 0 6 8 0;
#X connect 0 7 6 0;
#X connect 10 0 9 0;
#X connect 11 0 10 0;
#X connect 12 0 11 0;
#X connect 12 1 0 0;
#X connect 13 0 12 0;
#X restore 1128 12 pd alg-visualization;
#N canvas 751 0 603 676 initialize 0;
#X obj 12 12 loadbang;
#X obj 12 41 s \$0-init;
#X connect 0 0 1 0;
#X restore 1128 84 pd initialize;
#X obj 393 396 vsl 24 83 0 100 0 0 \$0-lfo-gain-s \$0-lfo-gain-r empty
0 -9 0 10 -49933 -183085 -183085 0 1;
#X obj 684 222 cnv 15 15 15 empty \$0-text % 0 7 0 12 -70738 -183085
0;
#X obj 537 222 cnv 15 15 15 empty \$0-text % 0 7 0 12 -70738 -183085
0;
#X obj 390 222 cnv 15 15 15 empty \$0-text % 0 7 0 12 -70738 -183085
0;
#X obj 243 222 cnv 15 15 15 empty \$0-text % 0 7 0 12 -70738 -183085
0;
#X obj 300 443 cnv 15 15 15 empty \$0-bendMode-label global 0 7 0 12
-70738 -183085 0;
#X obj 258 443 cnv 15 15 15 empty \$0-bendMode-text bend: 0 7 0 12
-70738 -183085 0;
#X obj 469 368 cnv 15 15 15 empty \$0-text algorithm: 0 7 0 14 -70738
-183085 0;
#N canvas -8 -8 1366 685 voices 0;
#X obj 457 138 symbol;
#X msg 457 167 label \$1;
#X msg 12 138 1;
#X msg 44 138 0;
#X obj 12 177 outlet;
#X obj 457 283 s camomile;
#X msg 457 254 gui redraw;
#X obj 457 225 delay 10;
#X obj 457 196 t b a;
#X obj 12 80 t b b;
#X obj 12 109 delay 10;
#X obj 489 312 s \$0-voice-poly-label;
#X obj 12 12 r \$0-voice-poly;
#X text 11 208 forzosamente apaga el dsp de todas las voces \, luego
de 10 ms vuelve a permitir que sea encendido;
#X obj 203 12 r \$0-init;
#X msg 203 41 0;
#X obj 12 41 change;
#X obj 457 80 sel 0 1, f 24;
#X msg 539 109 polyphonic;
#X msg 457 109 monophonic;
#X connect 0 0 1 0;
#X connect 1 0 8 0;
#X connect 2 0 4 0;
#X connect 3 0 4 0;
#X connect 6 0 5 0;
#X connect 7 0 6 0;
#X connect 8 0 7 0;
#X connect 8 1 11 0;
#X connect 9 0 10 0;
#X connect 9 1 3 0;
#X connect 10 0 2 0;
#X connect 12 0 16 0;
#X connect 14 0 15 0;
#X connect 15 0 9 0;
#X connect 15 0 17 0;
#X connect 16 0 9 0;
#X connect 16 0 17 0;
#X connect 17 0 19 0;
#X connect 17 1 18 0;
#X connect 18 0 0 0;
#X connect 19 0 0 0;
#X restore 1045 255 pd voices;
#X f 11;
#X obj 1045 284 targetall;
#X obj 296 419 tgl 15 0 \$0-voice-steal-s \$0-voice-steal-r empty 17
7 0 10 -49933 -183085 -183085 0 1;
#X obj 316 418 cnv 15 15 15 empty \$0-text steal 0 7 0 12 -70738 -183085
0;
#X obj 224 444 hradio 15 1 0 2 \$0-bendMode-s \$0-bendMode-r empty
0 -8 0 10 -49933 -183085 -183085 0;
#X obj 224 394 hradio 15 1 0 2 \$0-voice-poly-s \$0-voice-poly-r empty
0 -8 0 10 -49933 -183085 -183085 1;
#X obj 259 393 cnv 15 15 15 empty \$0-voice-poly-label monophonic 0
7 0 12 -70738 -183085 0;
#X obj 224 368 cnv 15 15 15 empty \$0-text voices: 0 7 0 14 -70738
-183085 0;
#X obj 713 140 cnv 2 1 356 empty \$0-bar empty 20 12 0 14 -183085 -70738
0;
#X obj 119 140 cnv 2 1 378 empty \$0-bar empty 20 12 0 14 -183085 -70738
0;
#X obj 127 517 cnv 2 379 1 empty \$0-bar empty 20 12 0 14 -183085 -70738
0;
#X obj 127 140 cnv 2 580 1 empty \$0-bar empty 20 12 0 14 -183085 -70738
0;
#X obj 224 493 bng 15 250 50 0 \$0-panic-s \$0-panic-r empty 17 7 0
10 -49933 -183085 -183085;
#X obj 244 492 cnv 15 15 15 empty \$0-text midi_panic 0 7 0 12 -70738
-183085 0;
#X text 201 26 para usar el sinte como abstracción dentro de pd en
vez de como plugin vst: reemplazar notein|pack y bendin por inlets
para poder recibir la información midi desde fuera \, y reemplazar
dac~ por outlet~ para poder devolver el audio fuera de la abstracción
;
#X text 865 202 acá se reciben las notas midi y los valores de pitch
bend \, y se formatean para que la polifonía de los objetos clone
funcione correctamente;
#X text 904 377 acá cada parámetro se formatea para ser recibido
por todas las voces del objeto clone;
#X obj 131 368 cnv 15 15 15 empty \$0-text op1_self: 0 7 0 14 -70738
-183085 0;
#X obj 212 368 cnv 2 1 142 empty \$0-bar empty 20 12 0 14 -183085 -70738
0;
#X obj 153 396 vsl 25 83 0 100 0 0 \$0-op1-self-gain-s \$0-op1-self-gain-r
empty 0 -9 0 10 -49933 -183085 -183085 0 1;
#X obj 129 493 hsl 73 15 0 100 0 0 \$0-op1-self-lfo-s \$0-op1-self-lfo-r
empty -2 -8 0 10 -49933 -183085 -183085 0 1;
#X obj 126 477 cnv 15 15 15 empty \$0-text lfo 0 7 0 12 -70738 -183085
0;
#N canvas -8 -8 1366 685 alg 0;
#X obj 12 12 r \$0-alg;
#X obj 12 70 outlet;
#X obj 82 12 r \$0-init;
#X msg 82 41 0;
#X connect 0 0 1 0;
#X connect 2 0 3 0;
#X connect 3 0 1 0;
#X restore 807 255 pd alg;
#X connect 0 0 99 0;
#X connect 0 0 99 1;
#X connect 1 0 119 0;
#X connect 2 0 0 0;
#X connect 100 0 101 0;
#X connect 100 1 101 1;
#X connect 101 0 133 0;
#X connect 102 0 133 1;
#X connect 118 0 2 1;
#X connect 119 0 2 2;
#X connect 120 0 2 3;
#X connect 121 0 2 4;
#X connect 122 0 2 5;
#X connect 123 0 2 6;
#X connect 128 0 0 1;
#X connect 130 0 120 0;
#X connect 131 0 122 0;
#X connect 132 0 121 0;
#X connect 133 0 2 0;
#X connect 134 0 123 0;
#X connect 145 0 146 0;
#X connect 146 0 2 7;
#X connect 167 0 118 0;
#X coords 0 -1 1 1 604 387 2 115 136;
