#N canvas -8 -8 1366 685 12;
#X obj 486 385 *~;
#N canvas -8 -8 1366 685 adsr 0;
#X msg 376 41 legato \$1;
#N canvas -8 -8 1366 685 adsr-op1 0;
#X obj 12 186 outlet;
#X obj 124 186 outlet;
#X obj 236 186 outlet;
#X obj 348 186 outlet;
#X msg 236 127 op1 sus \$1;
#X msg 348 127 op1 rel \$1;
#X msg 124 127 op1 dec \$1;
#X msg 12 127 op1 att \$1;
#X obj 12 11 r \$0-op1-att;
#X obj 124 11 r \$0-op1-dec;
#X obj 236 11 r \$0-op1-sus;
#X obj 348 11 r \$0-op1-rel;
#X obj 236 58 * 0.01;
#X connect 4 0 2 0;
#X connect 5 0 3 0;
#X connect 6 0 1 0;
#X connect 7 0 0 0;
#X connect 8 0 7 0;
#X connect 9 0 6 0;
#X connect 10 0 12 0;
#X connect 11 0 5 0;
#X connect 12 0 4 0;
#X restore 12 12 pd adsr-op1;
#N canvas -8 -8 1366 685 adsr-op2 0;
#X obj 12 196 outlet;
#X obj 124 196 outlet;
#X obj 236 196 outlet;
#X obj 348 196 outlet;
#X msg 348 137 op2 rel \$1;
#X msg 236 137 op2 sus \$1;
#X msg 124 137 op2 dec \$1;
#X msg 12 137 op2 att \$1;
#X obj 12 11 r \$0-op2-att;
#X obj 124 11 r \$0-op2-dec;
#X obj 236 11 r \$0-op2-sus;
#X obj 348 11 r \$0-op2-rel;
#X obj 236 58 * 0.01;
#X connect 4 0 3 0;
#X connect 5 0 2 0;
#X connect 6 0 1 0;
#X connect 7 0 0 0;
#X connect 8 0 7 0;
#X connect 9 0 6 0;
#X connect 10 0 12 0;
#X connect 11 0 4 0;
#X connect 12 0 5 0;
#X restore 103 12 pd adsr-op2;
#N canvas -8 -8 1366 685 adsr-op3 0;
#X obj 12 187 outlet;
#X obj 124 187 outlet;
#X obj 236 187 outlet;
#X obj 348 187 outlet;
#X msg 236 128 op3 sus \$1;
#X msg 348 128 op3 rel \$1;
#X msg 124 128 op3 dec \$1;
#X msg 12 128 op3 att \$1;
#X obj 12 12 r \$0-op3-att;
#X obj 124 12 r \$0-op3-dec;
#X obj 236 12 r \$0-op3-sus;
#X obj 348 12 r \$0-op3-rel;
#X obj 236 58 * 0.01;
#X connect 4 0 2 0;
#X connect 5 0 3 0;
#X connect 6 0 1 0;
#X connect 7 0 0 0;
#X connect 8 0 7 0;
#X connect 9 0 6 0;
#X connect 10 0 12 0;
#X connect 11 0 5 0;
#X connect 12 0 4 0;
#X restore 194 12 pd adsr-op3;
#N canvas -8 -8 1366 685 adsr-op4 0;
#X obj 12 197 outlet;
#X obj 124 197 outlet;
#X obj 236 197 outlet;
#X obj 348 197 outlet;
#X msg 12 138 op4 att \$1;
#X msg 124 138 op4 dec \$1;
#X msg 236 138 op4 sus \$1;
#X msg 348 138 op4 rel \$1;
#X obj 12 12 r \$0-op4-att;
#X obj 124 12 r \$0-op4-dec;
#X obj 236 12 r \$0-op4-sus;
#X obj 348 12 r \$0-op4-rel;
#X obj 236 58 * 0.01;
#X connect 4 0 0 0;
#X connect 5 0 1 0;
#X connect 6 0 2 0;
#X connect 7 0 3 0;
#X connect 8 0 4 0;
#X connect 9 0 5 0;
#X connect 10 0 12 0;
#X connect 11 0 7 0;
#X connect 12 0 6 0;
#X restore 285 12 pd adsr-op4;
#X obj 376 12 r \$0-legato;
#X msg 463 41 anticlick \$1;
#X obj 224 137 list prepend adsr;
#X obj 224 219 outlet;
#X obj 463 12 r \$0-anticlick;
#X text 66 261 parámetros de envolvente para cada operador \, legato
y anticlick;
#X connect 0 0 7 0;
#X connect 1 0 7 0;
#X connect 1 1 7 0;
#X connect 1 2 7 0;
#X connect 1 3 7 0;
#X connect 2 0 7 0;
#X connect 2 1 7 0;
#X connect 2 2 7 0;
#X connect 2 3 7 0;
#X connect 3 0 7 0;
#X connect 3 1 7 0;
#X connect 3 2 7 0;
#X connect 3 3 7 0;
#X connect 4 0 7 0;
#X connect 4 1 7 0;
#X connect 4 2 7 0;
#X connect 4 3 7 0;
#X connect 5 0 0 0;
#X connect 6 0 7 0;
#X connect 7 0 8 0;
#X connect 9 0 6 0;
#X restore 541 249 pd adsr;
#X obj 16 87 cnv 15 428 247 empty \$0-text empty 20 12 0 14 #fcfcfc
#b0b0b0 0;
#X obj 406 273 vsl 10 53 -100 0 0 0 \$0-out \$0-out-r out: 0 -12 0
10 #fc80c0 #fcfcfc #8080fc 0 1;
#X obj 21 107 vsl 10 70 0 100 0 0 \$0-op1-gain \$0-op1-gain-r op1:
0 -12 0 10 #fc80c0 #fcfcfc #8080fc 0 1;
#X obj 57 105 nbx 4 15 0 1e+37 0 0 \$0-op1-att \$0-op1-att-r ms 50
8 0 10 #fc80c0 #fcfcfc #8080fc 0 256;
#X obj 57 125 nbx 4 15 0 1e+37 0 0 \$0-op1-dec \$0-op1-dec-r ms 50
8 0 10 #fc80c0 #fcfcfc #8080fc 0 256;
#X obj 57 145 nbx 4 15 -100 1e+37 0 0 \$0-op1-sus \$0-op1-sus-r dB
50 8 0 10 #fc80c0 #fcfcfc #8080fc 0 256;
#X obj 57 165 nbx 4 15 0 1e+37 0 0 \$0-op1-rel \$0-op1-rel-r ms 50
8 0 10 #fc80c0 #fcfcfc #8080fc 0 256;
#X obj 50 205 nbx 5 15 -1e+37 1e+37 0 0 \$0-op1-fine \$0-op1-fine-r
empty 58 8 0 10 #fc80c0 #fcfcfc #8080fc 0 256;
#X obj 41 225 hsl 74 10 0 100 0 0 \$0-op1-lfo-am \$0-op1-lfo-am-r am
-20 4 0 10 #fc80c0 #fcfcfc #8080fc 0 1;
#X obj 122 97 cnv 2 1 145 empty \$0-bar empty 20 12 0 14 #8080fc #444444
0;
#X obj 233 292 nbx 3 15 0 1e+37 0 0 \$0-lfo-freq \$0-lfo-freq-r hz
41 8 0 10 #fc80c0 #fcfcfc #8080fc 0 256;
#X obj 50 185 nbx 4 15 -1e+37 1e+37 0 0 \$0-op1-freq \$0-op1-freq-r
empty 0 -8 0 10 #fc80c0 #fcfcfc #8080fc 0 256;
#X obj 26 253 cnv 2 408 1 empty \$0-bar empty 20 12 0 14 #8080fc #444444
0;
#X obj 358 287 nbx 1 15 0 7 0 0 \$0-alg \$0-alg-r empty 0 -8 0 10 #fc80c0
#fcfcfc #b0b0b0 0 256;
#X obj 83 289 tgl 10 0 \$0-legato \$0-legato-r legato 15 4 0 10 #fc80c0
#fcfcfc #8080fc 0 1;
#X obj 333 273 cnv 2 1 5 empty \$0-route-op1-cable empty 20 12 0 14
#fc80c0 #444444 0;
#X obj 333 290 cnv 2 1 5 empty \$0-route-op2-cable empty 20 12 0 14
#fc80c0 #444444 0;
#X obj 333 307 cnv 2 1 5 empty \$0-route-op3-cable empty 20 12 0 14
#fc80c0 #444444 0;
#X obj 333 324 cnv 2 1 5 empty \$0-route-op4-cable empty 20 12 0 14
#fc80c0 #444444 0;
#X obj 11 11 cnv 2 1 5 empty \$0-route-op1-cable2 empty 20 12 0 14
#fc80c0 #444444 0;
#X obj 11 11 cnv 2 1 5 empty \$0-route-op1-cable3 empty 20 12 0 14
#fc80c0 #444444 0;
#X obj 11 11 cnv 2 30 1 empty \$0-route-op1-cableh empty 20 12 0 14
#fc80c0 #444444 0;
#N canvas 674 178 677 300 out 0;
#X msg 12 114 \$1 1;
#X obj 12 167 outlet~;
#X obj 12 90 dbtorms;
#X obj 12 138 line~;
#X obj 12 37 r \$0-out;
#X obj 12 66 + 100;
#X text 134 46 acá se recibe el parámetro out (ganancia de salida
en decibeles \, número de -100 a 0) \, se lo opera matemáticamente
para convertir los decibeles en un valor lineal que pueda ser interpretado
por un objeto [*~] (antes se le suma 100 ya que la escala de decibeles
utilizada por pd no utiliza el 0 como valor de pico máximo \, sino
100) \; se utiliza el objeto [line~] para hacer una rampa de 1 ms entre
el valor anterior y el actual \, de manera que no hayan saltos que
produzcan clicks;
#X connect 0 0 3 0;
#X connect 2 0 0 0;
#X connect 3 0 1 0;
#X connect 4 0 5 0;
#X connect 5 0 2 0;
#X restore 504 356 pd out gain;
#N canvas -8 -8 1366 685 fine 0;
#X msg 369 100 op4 \$1;
#X msg 250 100 op3 \$1;
#X msg 131 100 op2 \$1;
#X msg 12 100 op1 \$1;
#X obj 369 71 expr ($f1*0.01);
#X obj 250 71 expr ($f1*0.01);
#X obj 131 71 expr ($f1*0.01);
#X obj 12 71 expr ($f1*0.01);
#X obj 12 12 r \$0-op1-fine;
#X obj 131 12 r \$0-op2-fine;
#X obj 250 12 r \$0-op3-fine;
#X obj 369 12 r \$0-op4-fine;
#X obj 190 159 list prepend fine;
#X obj 190 241 outlet;
#X text 112 305 ajuste fino de altura para cada operador;
#X connect 0 0 12 0;
#X connect 1 0 12 0;
#X connect 2 0 12 0;
#X connect 3 0 12 0;
#X connect 4 0 0 0;
#X connect 5 0 1 0;
#X connect 6 0 2 0;
#X connect 7 0 3 0;
#X connect 8 0 7 0;
#X connect 9 0 6 0;
#X connect 10 0 5 0;
#X connect 11 0 4 0;
#X connect 12 0 13 0;
#X restore 650 249 pd fine;
#N canvas 712 43 643 574 freq 0;
#X msg 12 80 op1 \$1;
#X msg 68 80 op2 \$1;
#X msg 124 80 op3 \$1;
#X msg 180 80 op4 \$1;
#X msg 236 80 lfo \$1;
#X obj 236 12 r \$0-lfo-freq;
#X obj 180 41 r \$0-op4-freq;
#X obj 124 12 r \$0-op3-freq;
#X obj 68 41 r \$0-op2-freq;
#X obj 12 12 r \$0-op1-freq;
#X text 33 245 multiplicador de frecuencia fundamental para cada operador
;
#X obj 124 139 list prepend freq;
#X obj 124 221 outlet;
#X connect 0 0 11 0;
#X connect 1 0 11 0;
#X connect 2 0 11 0;
#X connect 3 0 11 0;
#X connect 4 0 11 0;
#X connect 5 0 4 0;
#X connect 6 0 3 0;
#X connect 7 0 2 0;
#X connect 8 0 1 0;
#X connect 9 0 0 0;
#X connect 11 0 12 0;
#X restore 708 249 pd freq;
#N canvas -8 -8 1366 685 gain 0;
#X msg 341 99 op2 \$1;
#X msg 446 99 op3 \$1;
#X msg 551 99 op4 \$1;
#X msg 656 99 lfo \$1;
#X msg 96 99 op1 \$1;
#X obj 96 12 r \$0-op1-gain;
#X obj 341 12 r \$0-op2-gain;
#X obj 446 12 r \$0-op3-gain;
#X obj 551 12 r \$0-op4-gain;
#X obj 656 12 r \$0-lfo-gain;
#X text 315 280 ganancia para cada operador;
#X msg 201 99 op1-self \$1;
#X obj 201 12 r \$0-op1-self-gain;
#X obj 656 50 * 0.01;
#X obj 551 50 * 0.01;
#X obj 446 50 * 0.01;
#X obj 341 50 * 0.01;
#X obj 201 50 * 0.01;
#X obj 96 50 * 0.01;
#X obj 391 158 list prepend gain;
#X obj 391 240 outlet;
#X connect 0 0 19 0;
#X connect 1 0 19 0;
#X connect 2 0 19 0;
#X connect 3 0 19 0;
#X connect 4 0 19 0;
#X connect 5 0 18 0;
#X connect 6 0 16 0;
#X connect 7 0 15 0;
#X connect 8 0 14 0;
#X connect 9 0 13 0;
#X connect 11 0 19 0;
#X connect 12 0 17 0;
#X connect 13 0 3 0;
#X connect 14 0 2 0;
#X connect 15 0 1 0;
#X connect 16 0 0 0;
#X connect 17 0 11 0;
#X connect 18 0 4 0;
#X connect 19 0 20 0;
#X restore 766 249 pd gain;
#N canvas -8 -8 1366 685 midi-input 0;
#X obj 93 400 outlet;
#X obj 93 169 - 1;
#X obj 93 228 pack 0 0 0;
#X obj 93 140 poly 16 1, f 10;
#X obj 12 3 inlet;
#X obj 12 81 unpack;
#X obj 192 208 spigot;
#X obj 177 332 list prepend;
#X obj 177 361 list trim;
#X msg 359 303 all;
#X obj 359 216 sel 0 1, f 10;
#X msg 177 303 bend \$1;
#X msg 448 361 label \$1;
#X obj 448 337 symbol;
#X obj 12 140 poly 1 1, f 10;
#X obj 12 169 - 1;
#X obj 12 228 pack 0 0 0;
#X obj 93 361 spigot;
#X obj 132 346 tgl 15 0 empty empty empty 17 7 0 10 #fcfcfc #000000
#000000 0 1;
#X obj 12 361 spigot;
#X obj 51 346 tgl 15 0 empty empty empty 17 7 0 10 #fcfcfc #000000
#000000 0 1;
#X obj 258 303 spigot;
#X msg 297 284 1;
#X msg 322 284 0;
#X obj 359 245 t b b;
#N canvas -8 -8 1366 685 polystuff 0;
#X obj 12 99 sel 0 1, f 9;
#X obj 12 69 t f b;
#X msg 96 99 0;
#X obj 12 148 outlet;
#X obj 96 148 outlet;
#X msg 89 40 0;
#X obj 12 11 r \$0-poly;
#X obj 89 11 loadbang;
#X connect 0 0 3 0;
#X connect 0 1 4 0;
#X connect 1 0 0 0;
#X connect 1 1 2 0;
#X connect 2 0 4 0;
#X connect 2 0 3 0;
#X connect 5 0 1 0;
#X connect 6 0 1 0;
#X connect 7 0 5 0;
#X restore 51 317 pd polystuff;
#X obj 160 96 r \$0-steal;
#X msg 448 284 bend:_global;
#X msg 458 308 bend:_last;
#X obj 177 135 expr (($f1/16383)-0.5)*$f2;
#X obj 356 82 r \$0-bendRange;
#X obj 356 111 * 2;
#X text 239 210 filter noteoffs;
#X obj 359 187 r \$0-bendMode;
#X obj 448 385 s \$0-bendMode-r;
#X obj 12 32 route bend;
#X text 736 24 acá se manipulan los mensajes midi entrantes (note-on/note-off
y pich bend);
#X text 527 336 cambiar label del objeto de control de modo de pitch
bend;
#X connect 1 0 2 0;
#X connect 1 0 6 0;
#X connect 2 0 17 0;
#X connect 3 0 1 0;
#X connect 3 1 2 1;
#X connect 3 2 2 2;
#X connect 3 2 6 1;
#X connect 4 0 35 0;
#X connect 5 0 3 0;
#X connect 5 0 14 0;
#X connect 5 1 3 1;
#X connect 5 1 14 1;
#X connect 6 0 21 0;
#X connect 7 0 8 0;
#X connect 8 0 0 0;
#X connect 9 0 7 1;
#X connect 10 0 24 0;
#X connect 10 1 28 0;
#X connect 10 1 22 0;
#X connect 11 0 7 0;
#X connect 12 0 34 0;
#X connect 13 0 12 0;
#X connect 14 0 15 0;
#X connect 14 1 16 1;
#X connect 14 2 16 2;
#X connect 15 0 16 0;
#X connect 16 0 19 0;
#X connect 17 0 0 0;
#X connect 18 0 17 1;
#X connect 19 0 0 0;
#X connect 20 0 19 1;
#X connect 21 0 7 1;
#X connect 22 0 21 1;
#X connect 23 0 21 1;
#X connect 24 0 9 0;
#X connect 24 0 27 0;
#X connect 24 1 23 0;
#X connect 25 0 20 0;
#X connect 25 1 18 0;
#X connect 26 0 3 1;
#X connect 27 0 13 0;
#X connect 28 0 13 0;
#X connect 29 0 11 0;
#X connect 30 0 31 0;
#X connect 31 0 29 1;
#X connect 33 0 10 0;
#X connect 35 0 29 0;
#X connect 35 1 5 0;
#X restore 485 109 pd midi-input;
#N canvas 320 0 1037 676 lfo-per-operator 0;
#X obj 17 129 * 0.01;
#X obj 200 129 * 0.01;
#X obj 273 129 * 0.01;
#X obj 333 129 * 0.01;
#X msg 17 211 op1 \$1;
#X msg 200 211 op2 \$1;
#X msg 273 211 op3 \$1;
#X msg 333 211 op4 \$1;
#X obj 105 129 * 0.01;
#X msg 105 211 op1-self \$1;
#X obj 105 408 outlet;
#X obj 17 71 r \$0-op1-lfo-am;
#X obj 105 100 r \$0-op1-self-lfo-am;
#X obj 200 71 r \$0-op2-lfo-am;
#X obj 333 71 r \$0-op4-lfo-am;
#X obj 273 100 r \$0-op3-lfo-am;
#X text 28 26 ganancia de la copia de la lfo que afecta la amplitud
de cada operador;
#X obj 105 326 list prepend lfo;
#X obj 105 260 list prepend am;
#X text 522 22 ganancia de la copia de la lfo que afecta la frecuencia
de cada operador;
#X msg 507 211 op1 \$1;
#X msg 690 211 op2 \$1;
#X msg 763 211 op3 \$1;
#X msg 823 211 op4 \$1;
#X msg 595 211 op1-self \$1;
#X obj 507 71 r \$0-op1-lfo-fm;
#X obj 690 71 r \$0-op2-lfo-fm;
#X obj 595 99 r \$0-op1-self-lfo-fm;
#X obj 763 99 r \$0-op3-lfo-fm;
#X obj 823 71 r \$0-op4-lfo-fm;
#X obj 595 260 list prepend fm;
#X obj 507 123 * 0.01;
#X obj 595 123 * 0.01;
#X obj 690 123 * 0.01;
#X obj 763 123 * 0.01;
#X obj 823 123 * 0.01;
#X obj 507 182 *;
#X obj 892 130 t b f;
#X obj 595 182 *;
#X obj 690 182 *;
#X obj 763 182 *;
#X obj 823 182 *;
#X obj 892 106 r \$0-lfo-fm;
#X connect 0 0 4 0;
#X connect 1 0 5 0;
#X connect 2 0 6 0;
#X connect 3 0 7 0;
#X connect 4 0 18 0;
#X connect 5 0 18 0;
#X connect 6 0 18 0;
#X connect 7 0 18 0;
#X connect 8 0 9 0;
#X connect 9 0 18 0;
#X connect 11 0 0 0;
#X connect 12 0 8 0;
#X connect 13 0 1 0;
#X connect 14 0 3 0;
#X connect 15 0 2 0;
#X connect 17 0 10 0;
#X connect 18 0 17 0;
#X connect 20 0 30 0;
#X connect 21 0 30 0;
#X connect 22 0 30 0;
#X connect 23 0 30 0;
#X connect 24 0 30 0;
#X connect 25 0 31 0;
#X connect 26 0 33 0;
#X connect 27 0 32 0;
#X connect 28 0 34 0;
#X connect 29 0 35 0;
#X connect 30 0 17 0;
#X connect 31 0 36 0;
#X connect 32 0 38 0;
#X connect 33 0 39 0;
#X connect 34 0 40 0;
#X connect 35 0 41 0;
#X connect 36 0 20 0;
#X connect 37 0 41 0;
#X connect 37 0 40 0;
#X connect 37 0 39 0;
#X connect 37 0 38 0;
#X connect 37 0 36 0;
#X connect 37 1 41 1;
#X connect 37 1 40 1;
#X connect 37 1 39 1;
#X connect 37 1 38 1;
#X connect 37 1 36 1;
#X connect 38 0 24 0;
#X connect 39 0 21 0;
#X connect 40 0 22 0;
#X connect 41 0 23 0;
#X connect 42 0 37 0;
#X restore 824 249 pd lfo-per-operator;
#N canvas -8 -8 1366 685 alg-visualization 0;
#X obj 12 41 sel 0 1 2 3 4 5 6 7;
#N canvas -8 -8 1366 685 alg0 0;
#X obj 32 42 inlet;
#X obj 32 305 s \$0-route-op1;
#X obj 144 305 s \$0-route-op1-cable;
#X obj 32 188 pack;
#X obj 32 159 +;
#X obj 64 159 +;
#X obj 32 101 t b b;
#X msg 32 246 pos \$1 \$2;
#X obj 144 217 pack;
#X msg 144 246 pos \$1 \$2;
#X msg 32 130 0;
#X msg 64 130 0;
#X obj 298 188 pack;
#X obj 298 159 +;
#X obj 330 159 +;
#X msg 298 246 pos \$1 \$2;
#X obj 410 217 pack;
#X msg 410 246 pos \$1 \$2;
#X obj 298 101 t b b;
#X obj 298 305 s \$0-route-op2;
#X obj 410 305 s \$0-route-op2-cable;
#X msg 298 130 0;
#X obj 564 188 pack;
#X obj 564 159 +;
#X obj 596 159 +;
#X obj 564 101 t b b;
#X msg 564 246 pos \$1 \$2;
#X obj 676 217 pack;
#X msg 676 246 pos \$1 \$2;
#X msg 564 130 0;
#X obj 830 188 pack;
#X obj 830 159 +;
#X obj 862 159 +;
#X msg 830 246 pos \$1 \$2;
#X obj 942 217 pack;
#X msg 942 246 pos \$1 \$2;
#X obj 830 101 t b b;
#X msg 830 130 0;
#X obj 830 305 s \$0-route-op4;
#X obj 942 305 s \$0-route-op4-cable;
#X obj 676 305 s \$0-route-op3-cable;
#X obj 564 305 s \$0-route-op3;
#X obj 193 480 s \$0-route-op1-cable3;
#X obj 193 364 t b b;
#X obj 193 422 pack;
#X msg 193 451 pos \$1 \$2;
#X obj 32 364 t b b;
#X obj 32 422 pack;
#X msg 32 451 pos \$1 \$2;
#X obj 32 480 s \$0-route-op1-cable2;
#X obj 32 509 t b b;
#X obj 32 567 pack;
#X msg 32 596 pos \$1 \$2;
#X obj 32 625 s \$0-route-op1-cableh;
#X obj 354 364 t b b;
#X obj 354 422 pack;
#X msg 354 451 pos \$1 \$2;
#X obj 354 480 s \$0-route-out-cable;
#X msg 193 393 11;
#X msg 225 393 11;
#X msg 354 393 11;
#X msg 386 393 11;
#X msg 32 393 11;
#X msg 64 393 11;
#X msg 32 538 11;
#X msg 64 538 11;
#X obj 179 188 + 11;
#X obj 445 188 + 11;
#X obj 711 188 + 11;
#X obj 977 188 + 11;
#X obj 942 188 + 4;
#X obj 676 188 + 4;
#X obj 410 188 + 4;
#X obj 144 188 + 4;
#X msg 330 130 17;
#X msg 596 130 34;
#X msg 862 130 51;
#X msg 154 275 vis_size 1 5;
#X msg 420 275 vis_size 1 5;
#X msg 686 275 vis_size 1 5;
#X msg 952 275 vis_size 1 5;
#X obj 965 140 r \$0-alg-graph-x;
#X obj 1091 140 r \$0-alg-graph-y;
#X connect 0 0 6 0;
#X connect 0 0 36 0;
#X connect 0 0 25 0;
#X connect 0 0 18 0;
#X connect 0 0 46 0;
#X connect 0 0 43 0;
#X connect 0 0 50 0;
#X connect 0 0 54 0;
#X connect 3 0 7 0;
#X connect 4 0 3 0;
#X connect 4 0 73 0;
#X connect 5 0 3 1;
#X connect 5 0 66 0;
#X connect 6 0 10 0;
#X connect 6 1 11 0;
#X connect 7 0 1 0;
#X connect 8 0 9 0;
#X connect 9 0 2 0;
#X connect 9 0 77 0;
#X connect 10 0 4 0;
#X connect 11 0 5 0;
#X connect 12 0 15 0;
#X connect 13 0 12 0;
#X connect 13 0 72 0;
#X connect 14 0 12 1;
#X connect 14 0 67 0;
#X connect 15 0 19 0;
#X connect 16 0 17 0;
#X connect 17 0 20 0;
#X connect 17 0 78 0;
#X connect 18 0 21 0;
#X connect 18 1 74 0;
#X connect 21 0 13 0;
#X connect 22 0 26 0;
#X connect 23 0 22 0;
#X connect 23 0 71 0;
#X connect 24 0 22 1;
#X connect 24 0 68 0;
#X connect 25 0 29 0;
#X connect 25 1 75 0;
#X connect 26 0 41 0;
#X connect 27 0 28 0;
#X connect 28 0 40 0;
#X connect 28 0 79 0;
#X connect 29 0 23 0;
#X connect 30 0 33 0;
#X connect 31 0 30 0;
#X connect 31 0 70 0;
#X connect 32 0 30 1;
#X connect 32 0 69 0;
#X connect 33 0 38 0;
#X connect 34 0 35 0;
#X connect 35 0 39 0;
#X connect 35 0 80 0;
#X connect 36 0 37 0;
#X connect 36 1 76 0;
#X connect 37 0 31 0;
#X connect 43 0 58 0;
#X connect 43 1 59 0;
#X connect 44 0 45 0;
#X connect 45 0 42 0;
#X connect 46 0 62 0;
#X connect 46 1 63 0;
#X connect 47 0 48 0;
#X connect 48 0 49 0;
#X connect 50 0 64 0;
#X connect 50 1 65 0;
#X connect 51 0 52 0;
#X connect 52 0 53 0;
#X connect 54 0 60 0;
#X connect 54 1 61 0;
#X connect 55 0 56 0;
#X connect 56 0 57 0;
#X connect 58 0 44 0;
#X connect 59 0 44 1;
#X connect 60 0 55 0;
#X connect 61 0 55 1;
#X connect 62 0 47 0;
#X connect 63 0 47 1;
#X connect 64 0 51 0;
#X connect 65 0 51 1;
#X connect 66 0 8 1;
#X connect 67 0 16 1;
#X connect 68 0 27 1;
#X connect 69 0 34 1;
#X connect 70 0 34 0;
#X connect 71 0 27 0;
#X connect 72 0 16 0;
#X connect 73 0 8 0;
#X connect 74 0 14 0;
#X connect 75 0 24 0;
#X connect 76 0 32 0;
#X connect 77 0 2 0;
#X connect 78 0 20 0;
#X connect 79 0 40 0;
#X connect 80 0 39 0;
#X connect 81 0 23 1;
#X connect 81 0 13 1;
#X connect 81 0 4 1;
#X connect 81 0 31 1;
#X connect 82 0 32 1;
#X connect 82 0 24 1;
#X connect 82 0 14 1;
#X connect 82 0 5 1;
#X restore 12 70 pd alg0;
#N canvas -8 -8 1366 685 alg1 0;
#X obj 32 42 inlet;
#X obj 32 305 s \$0-route-op1;
#X obj 144 305 s \$0-route-op1-cable;
#X obj 32 188 pack;
#X obj 32 159 +;
#X obj 64 159 +;
#X obj 32 101 t b b;
#X msg 32 246 pos \$1 \$2;
#X obj 144 217 pack;
#X msg 144 246 pos \$1 \$2;
#X msg 64 130 0;
#X obj 298 188 pack;
#X obj 298 159 +;
#X obj 330 159 +;
#X msg 298 246 pos \$1 \$2;
#X obj 410 217 pack;
#X msg 410 246 pos \$1 \$2;
#X obj 298 101 t b b;
#X obj 298 305 s \$0-route-op2;
#X obj 410 305 s \$0-route-op2-cable;
#X obj 564 188 pack;
#X obj 564 159 +;
#X obj 596 159 +;
#X obj 564 101 t b b;
#X msg 564 246 pos \$1 \$2;
#X obj 676 217 pack;
#X msg 676 246 pos \$1 \$2;
#X obj 830 188 pack;
#X obj 830 159 +;
#X obj 862 159 +;
#X msg 830 246 pos \$1 \$2;
#X obj 942 217 pack;
#X msg 942 246 pos \$1 \$2;
#X obj 830 101 t b b;
#X obj 830 305 s \$0-route-op4;
#X obj 942 305 s \$0-route-op4-cable;
#X obj 676 305 s \$0-route-op3-cable;
#X obj 564 305 s \$0-route-op3;
#X msg 330 130 0;
#X obj 193 480 s \$0-route-op1-cable3;
#X obj 193 364 t b b;
#X obj 193 422 pack;
#X msg 193 451 pos \$1 \$2;
#X obj 32 364 t b b;
#X obj 32 422 pack;
#X msg 32 451 pos \$1 \$2;
#X obj 32 480 s \$0-route-op1-cable2;
#X obj 32 509 t b b;
#X obj 32 567 pack;
#X msg 32 596 pos \$1 \$2;
#X obj 32 625 s \$0-route-op1-cableh;
#X obj 354 364 t b b;
#X obj 354 422 pack;
#X msg 354 451 pos \$1 \$2;
#X obj 354 480 s \$0-route-out-cable;
#X msg 32 393 11;
#X msg 64 393 11;
#X msg 193 393 11;
#X msg 225 393 11;
#X msg 354 393 11;
#X msg 386 393 11;
#X msg 32 538 11;
#X msg 64 538 11;
#X obj 711 188 + 11;
#X obj 676 188 + 4;
#X obj 942 188 + 4;
#X obj 977 188 + 11;
#X obj 445 188 + 11;
#X obj 410 188 + 4;
#X obj 144 188 + 4;
#X obj 179 188 + 11;
#X msg 596 130 17;
#X msg 862 130 34;
#X msg 32 130 -7;
#X msg 298 130 7;
#X msg 564 130 0;
#X msg 830 130 0;
#X msg 154 275 vis_size 1 5;
#X msg 420 275 vis_size 1 5;
#X msg 686 275 vis_size 1 5;
#X msg 952 275 vis_size 1 5;
#X obj 965 140 r \$0-alg-graph-x;
#X obj 1091 116 r \$0-alg-graph-y;
#X obj 1091 140 + 9;
#X connect 0 0 6 0;
#X connect 0 0 17 0;
#X connect 0 0 23 0;
#X connect 0 0 33 0;
#X connect 0 0 43 0;
#X connect 0 0 40 0;
#X connect 0 0 47 0;
#X connect 0 0 51 0;
#X connect 3 0 7 0;
#X connect 4 0 3 0;
#X connect 4 0 69 0;
#X connect 5 0 3 1;
#X connect 5 0 70 0;
#X connect 6 0 73 0;
#X connect 6 1 10 0;
#X connect 7 0 1 0;
#X connect 8 0 9 0;
#X connect 9 0 2 0;
#X connect 9 0 77 0;
#X connect 10 0 5 0;
#X connect 11 0 14 0;
#X connect 12 0 11 0;
#X connect 12 0 68 0;
#X connect 13 0 11 1;
#X connect 13 0 67 0;
#X connect 14 0 18 0;
#X connect 15 0 16 0;
#X connect 16 0 19 0;
#X connect 16 0 78 0;
#X connect 17 0 74 0;
#X connect 17 1 38 0;
#X connect 20 0 24 0;
#X connect 21 0 20 0;
#X connect 21 0 64 0;
#X connect 22 0 20 1;
#X connect 22 0 63 0;
#X connect 23 0 75 0;
#X connect 23 1 71 0;
#X connect 24 0 37 0;
#X connect 25 0 26 0;
#X connect 26 0 36 0;
#X connect 26 0 79 0;
#X connect 27 0 30 0;
#X connect 28 0 27 0;
#X connect 28 0 65 0;
#X connect 29 0 27 1;
#X connect 29 0 66 0;
#X connect 30 0 34 0;
#X connect 31 0 32 0;
#X connect 32 0 35 0;
#X connect 32 0 80 0;
#X connect 33 0 76 0;
#X connect 33 1 72 0;
#X connect 38 0 13 0;
#X connect 40 0 57 0;
#X connect 40 1 58 0;
#X connect 41 0 42 0;
#X connect 42 0 39 0;
#X connect 43 0 55 0;
#X connect 43 1 56 0;
#X connect 44 0 45 0;
#X connect 45 0 46 0;
#X connect 47 0 61 0;
#X connect 47 1 62 0;
#X connect 48 0 49 0;
#X connect 49 0 50 0;
#X connect 51 0 59 0;
#X connect 51 1 60 0;
#X connect 52 0 53 0;
#X connect 53 0 54 0;
#X connect 55 0 44 0;
#X connect 56 0 44 1;
#X connect 57 0 41 0;
#X connect 58 0 41 1;
#X connect 59 0 52 0;
#X connect 60 0 52 1;
#X connect 61 0 48 0;
#X connect 62 0 48 1;
#X connect 63 0 25 1;
#X connect 64 0 25 0;
#X connect 65 0 31 0;
#X connect 66 0 31 1;
#X connect 67 0 15 1;
#X connect 68 0 15 0;
#X connect 69 0 8 0;
#X connect 70 0 8 1;
#X connect 71 0 22 0;
#X connect 72 0 29 0;
#X connect 73 0 4 0;
#X connect 74 0 12 0;
#X connect 75 0 21 0;
#X connect 76 0 28 0;
#X connect 77 0 2 0;
#X connect 78 0 19 0;
#X connect 79 0 36 0;
#X connect 80 0 35 0;
#X connect 81 0 28 1;
#X connect 81 0 21 1;
#X connect 81 0 12 1;
#X connect 81 0 4 1;
#X connect 82 0 83 0;
#X connect 83 0 29 1;
#X connect 83 0 22 1;
#X connect 83 0 13 1;
#X connect 83 0 5 1;
#X restore 28 99 pd alg1;
#N canvas -8 -8 1366 685 alg2 0;
#X obj 32 42 inlet;
#X obj 32 305 s \$0-route-op1;
#X obj 144 305 s \$0-route-op1-cable;
#X obj 32 188 pack;
#X obj 32 159 +;
#X obj 64 159 +;
#X obj 32 101 t b b;
#X msg 32 246 pos \$1 \$2;
#X obj 144 217 pack;
#X msg 144 246 pos \$1 \$2;
#X msg 64 130 0;
#X obj 298 188 pack;
#X obj 298 159 +;
#X obj 330 159 +;
#X msg 298 246 pos \$1 \$2;
#X obj 410 217 pack;
#X msg 410 246 pos \$1 \$2;
#X obj 298 101 t b b;
#X obj 298 305 s \$0-route-op2;
#X obj 410 305 s \$0-route-op2-cable;
#X obj 564 188 pack;
#X obj 564 159 +;
#X obj 596 159 +;
#X obj 564 101 t b b;
#X msg 564 246 pos \$1 \$2;
#X obj 676 217 pack;
#X msg 676 246 pos \$1 \$2;
#X obj 830 188 pack;
#X obj 830 159 +;
#X obj 862 159 +;
#X msg 830 246 pos \$1 \$2;
#X obj 942 217 pack;
#X msg 942 246 pos \$1 \$2;
#X obj 830 101 t b b;
#X obj 830 305 s \$0-route-op4;
#X obj 942 305 s \$0-route-op4-cable;
#X obj 676 305 s \$0-route-op3-cable;
#X obj 564 305 s \$0-route-op3;
#X msg 330 130 0;
#X obj 193 480 s \$0-route-op1-cable3;
#X obj 193 364 t b b;
#X obj 193 422 pack;
#X msg 193 451 pos \$1 \$2;
#X obj 32 364 t b b;
#X obj 32 422 pack;
#X msg 32 451 pos \$1 \$2;
#X obj 32 480 s \$0-route-op1-cable2;
#X obj 32 509 t b b;
#X obj 32 567 pack;
#X msg 32 596 pos \$1 \$2;
#X obj 32 625 s \$0-route-op1-cableh;
#X obj 354 364 t b b;
#X obj 354 422 pack;
#X msg 354 451 pos \$1 \$2;
#X obj 354 480 s \$0-route-out-cable;
#X msg 32 393 11;
#X msg 64 393 11;
#X msg 193 393 11;
#X msg 225 393 11;
#X msg 354 393 11;
#X msg 386 393 11;
#X msg 64 538 11;
#X msg 32 538 11;
#X obj 711 188 + 11;
#X obj 676 188 + 4;
#X obj 942 188 + 4;
#X obj 977 188 + 11;
#X obj 445 188 + 11;
#X obj 410 188 + 4;
#X obj 179 188 + 11;
#X obj 144 188 + 4;
#X msg 32 130 -7;
#X msg 298 130 7;
#X msg 564 130 7;
#X msg 596 130 17;
#X msg 862 130 34;
#X msg 830 130 0;
#X msg 420 275 vis_size 1 5;
#X msg 686 275 vis_size 1 5;
#X msg 952 275 vis_size 1 5;
#X msg 154 275 vis_size 1 22;
#X obj 965 140 r \$0-alg-graph-x;
#X obj 1091 116 r \$0-alg-graph-y;
#X obj 1091 140 + 9;
#X connect 0 0 6 0;
#X connect 0 0 17 0;
#X connect 0 0 23 0;
#X connect 0 0 33 0;
#X connect 0 0 43 0;
#X connect 0 0 40 0;
#X connect 0 0 47 0;
#X connect 0 0 51 0;
#X connect 3 0 7 0;
#X connect 4 0 3 0;
#X connect 4 0 70 0;
#X connect 5 0 3 1;
#X connect 5 0 69 0;
#X connect 6 0 71 0;
#X connect 6 1 10 0;
#X connect 7 0 1 0;
#X connect 8 0 9 0;
#X connect 9 0 2 0;
#X connect 9 0 80 0;
#X connect 10 0 5 0;
#X connect 11 0 14 0;
#X connect 12 0 11 0;
#X connect 12 0 68 0;
#X connect 13 0 11 1;
#X connect 13 0 67 0;
#X connect 14 0 18 0;
#X connect 15 0 16 0;
#X connect 16 0 19 0;
#X connect 16 0 77 0;
#X connect 17 0 72 0;
#X connect 17 1 38 0;
#X connect 20 0 24 0;
#X connect 21 0 20 0;
#X connect 21 0 64 0;
#X connect 22 0 20 1;
#X connect 22 0 63 0;
#X connect 23 0 73 0;
#X connect 23 1 74 0;
#X connect 24 0 37 0;
#X connect 25 0 26 0;
#X connect 26 0 36 0;
#X connect 26 0 78 0;
#X connect 27 0 30 0;
#X connect 28 0 27 0;
#X connect 28 0 65 0;
#X connect 29 0 27 1;
#X connect 29 0 66 0;
#X connect 30 0 34 0;
#X connect 31 0 32 0;
#X connect 32 0 35 0;
#X connect 32 0 79 0;
#X connect 33 0 76 0;
#X connect 33 1 75 0;
#X connect 38 0 13 0;
#X connect 40 0 57 0;
#X connect 40 1 58 0;
#X connect 41 0 42 0;
#X connect 42 0 39 0;
#X connect 43 0 55 0;
#X connect 43 1 56 0;
#X connect 44 0 45 0;
#X connect 45 0 46 0;
#X connect 47 0 62 0;
#X connect 47 1 61 0;
#X connect 48 0 49 0;
#X connect 49 0 50 0;
#X connect 51 0 59 0;
#X connect 51 1 60 0;
#X connect 52 0 53 0;
#X connect 53 0 54 0;
#X connect 55 0 44 0;
#X connect 56 0 44 1;
#X connect 57 0 41 0;
#X connect 58 0 41 1;
#X connect 59 0 52 0;
#X connect 60 0 52 1;
#X connect 61 0 48 1;
#X connect 62 0 48 0;
#X connect 63 0 25 1;
#X connect 64 0 25 0;
#X connect 65 0 31 0;
#X connect 66 0 31 1;
#X connect 67 0 15 1;
#X connect 68 0 15 0;
#X connect 69 0 8 1;
#X connect 70 0 8 0;
#X connect 71 0 4 0;
#X connect 72 0 12 0;
#X connect 73 0 21 0;
#X connect 74 0 22 0;
#X connect 75 0 29 0;
#X connect 76 0 28 0;
#X connect 77 0 19 0;
#X connect 78 0 36 0;
#X connect 79 0 35 0;
#X connect 80 0 2 0;
#X connect 81 0 28 1;
#X connect 81 0 21 1;
#X connect 81 0 12 1;
#X connect 81 0 4 1;
#X connect 82 0 83 0;
#X connect 83 0 29 1;
#X connect 83 0 22 1;
#X connect 83 0 13 1;
#X connect 83 0 5 1;
#X restore 44 128 pd alg2;
#N canvas -8 -8 1366 685 alg3 0;
#X obj 32 42 inlet;
#X obj 32 305 s \$0-route-op1;
#X obj 144 305 s \$0-route-op1-cable;
#X obj 32 188 pack;
#X obj 32 159 +;
#X obj 64 159 +;
#X obj 32 101 t b b;
#X msg 32 246 pos \$1 \$2;
#X obj 144 217 pack;
#X msg 144 246 pos \$1 \$2;
#X msg 64 130 0;
#X obj 298 188 pack;
#X obj 298 159 +;
#X obj 330 159 +;
#X msg 298 246 pos \$1 \$2;
#X obj 410 217 pack;
#X msg 410 246 pos \$1 \$2;
#X obj 298 101 t b b;
#X obj 298 305 s \$0-route-op2;
#X obj 410 305 s \$0-route-op2-cable;
#X obj 564 188 pack;
#X obj 564 159 +;
#X obj 596 159 +;
#X obj 564 101 t b b;
#X msg 564 246 pos \$1 \$2;
#X obj 676 217 pack;
#X msg 676 246 pos \$1 \$2;
#X obj 830 188 pack;
#X obj 830 159 +;
#X obj 862 159 +;
#X msg 830 246 pos \$1 \$2;
#X obj 942 217 pack;
#X msg 942 246 pos \$1 \$2;
#X obj 830 101 t b b;
#X obj 830 305 s \$0-route-op4;
#X obj 942 305 s \$0-route-op4-cable;
#X obj 676 305 s \$0-route-op3-cable;
#X obj 564 305 s \$0-route-op3;
#X msg 596 130 0;
#X obj 193 480 s \$0-route-op1-cable3;
#X obj 193 364 t b b;
#X obj 193 422 pack;
#X msg 193 451 pos \$1 \$2;
#X obj 32 364 t b b;
#X obj 32 422 pack;
#X msg 32 451 pos \$1 \$2;
#X obj 32 480 s \$0-route-op1-cable2;
#X obj 32 509 t b b;
#X obj 32 567 pack;
#X msg 32 596 pos \$1 \$2;
#X obj 32 625 s \$0-route-op1-cableh;
#X obj 354 364 t b b;
#X obj 354 422 pack;
#X msg 354 451 pos \$1 \$2;
#X obj 354 480 s \$0-route-out-cable;
#X msg 32 393 11;
#X msg 64 393 11;
#X msg 193 393 11;
#X msg 225 393 11;
#X msg 354 393 11;
#X msg 386 393 11;
#X msg 64 538 11;
#X msg 32 538 11;
#X obj 144 188 + 4;
#X obj 179 188 + 11;
#X obj 445 188 + 11;
#X obj 410 188 + 4;
#X obj 711 188 + 11;
#X obj 676 188 + 4;
#X obj 942 188 + 4;
#X obj 977 188 + 11;
#X msg 952 275 vis_size 1 5;
#X msg 420 275 vis_size 1 5;
#X msg 154 275 vis_size 1 5;
#X msg 686 275 vis_size 1 22;
#X msg 830 130 0;
#X msg 32 130 -7;
#X msg 298 130 -7;
#X msg 330 130 17;
#X msg 564 130 7;
#X msg 862 130 34;
#X obj 965 140 r \$0-alg-graph-x;
#X obj 1091 116 r \$0-alg-graph-y;
#X obj 1091 140 + 9;
#X connect 0 0 6 0;
#X connect 0 0 17 0;
#X connect 0 0 23 0;
#X connect 0 0 33 0;
#X connect 0 0 43 0;
#X connect 0 0 40 0;
#X connect 0 0 47 0;
#X connect 0 0 51 0;
#X connect 3 0 7 0;
#X connect 4 0 3 0;
#X connect 4 0 63 0;
#X connect 5 0 3 1;
#X connect 5 0 64 0;
#X connect 6 0 76 0;
#X connect 6 1 10 0;
#X connect 7 0 1 0;
#X connect 8 0 9 0;
#X connect 9 0 2 0;
#X connect 9 0 73 0;
#X connect 10 0 5 0;
#X connect 11 0 14 0;
#X connect 12 0 11 0;
#X connect 12 0 66 0;
#X connect 13 0 11 1;
#X connect 13 0 65 0;
#X connect 14 0 18 0;
#X connect 15 0 16 0;
#X connect 16 0 19 0;
#X connect 16 0 72 0;
#X connect 17 0 77 0;
#X connect 17 1 78 0;
#X connect 20 0 24 0;
#X connect 21 0 20 0;
#X connect 21 0 68 0;
#X connect 22 0 20 1;
#X connect 22 0 67 0;
#X connect 23 0 79 0;
#X connect 23 1 38 0;
#X connect 24 0 37 0;
#X connect 25 0 26 0;
#X connect 26 0 36 0;
#X connect 26 0 74 0;
#X connect 27 0 30 0;
#X connect 28 0 27 0;
#X connect 28 0 69 0;
#X connect 29 0 27 1;
#X connect 29 0 70 0;
#X connect 30 0 34 0;
#X connect 31 0 32 0;
#X connect 32 0 35 0;
#X connect 32 0 71 0;
#X connect 33 0 75 0;
#X connect 33 1 80 0;
#X connect 38 0 22 0;
#X connect 40 0 57 0;
#X connect 40 1 58 0;
#X connect 41 0 42 0;
#X connect 42 0 39 0;
#X connect 43 0 55 0;
#X connect 43 1 56 0;
#X connect 44 0 45 0;
#X connect 45 0 46 0;
#X connect 47 0 62 0;
#X connect 47 1 61 0;
#X connect 48 0 49 0;
#X connect 49 0 50 0;
#X connect 51 0 59 0;
#X connect 51 1 60 0;
#X connect 52 0 53 0;
#X connect 53 0 54 0;
#X connect 55 0 44 0;
#X connect 56 0 44 1;
#X connect 57 0 41 0;
#X connect 58 0 41 1;
#X connect 59 0 52 0;
#X connect 60 0 52 1;
#X connect 61 0 48 1;
#X connect 62 0 48 0;
#X connect 63 0 8 0;
#X connect 64 0 8 1;
#X connect 65 0 15 1;
#X connect 66 0 15 0;
#X connect 67 0 25 1;
#X connect 68 0 25 0;
#X connect 69 0 31 0;
#X connect 70 0 31 1;
#X connect 71 0 35 0;
#X connect 72 0 19 0;
#X connect 73 0 2 0;
#X connect 74 0 36 0;
#X connect 75 0 28 0;
#X connect 76 0 4 0;
#X connect 77 0 12 0;
#X connect 78 0 13 0;
#X connect 79 0 21 0;
#X connect 80 0 29 0;
#X connect 81 0 28 1;
#X connect 81 0 21 1;
#X connect 81 0 12 1;
#X connect 81 0 4 1;
#X connect 82 0 83 0;
#X connect 83 0 29 1;
#X connect 83 0 22 1;
#X connect 83 0 13 1;
#X connect 83 0 5 1;
#X restore 60 157 pd alg3;
#N canvas -8 -8 1366 685 alg4 0;
#X obj 32 42 inlet;
#X obj 32 305 s \$0-route-op1;
#X obj 144 305 s \$0-route-op1-cable;
#X obj 32 188 pack;
#X obj 32 159 +;
#X obj 64 159 +;
#X obj 32 101 t b b;
#X msg 32 246 pos \$1 \$2;
#X obj 144 217 pack;
#X msg 144 246 pos \$1 \$2;
#X msg 64 130 0;
#X obj 298 188 pack;
#X obj 298 159 +;
#X obj 330 159 +;
#X msg 298 246 pos \$1 \$2;
#X obj 410 217 pack;
#X msg 410 246 pos \$1 \$2;
#X obj 298 101 t b b;
#X obj 298 305 s \$0-route-op2;
#X obj 410 305 s \$0-route-op2-cable;
#X obj 564 188 pack;
#X obj 564 159 +;
#X obj 596 159 +;
#X obj 564 101 t b b;
#X msg 564 246 pos \$1 \$2;
#X obj 676 217 pack;
#X msg 676 246 pos \$1 \$2;
#X obj 830 188 pack;
#X obj 830 159 +;
#X obj 862 159 +;
#X msg 830 246 pos \$1 \$2;
#X obj 942 217 pack;
#X msg 942 246 pos \$1 \$2;
#X obj 830 101 t b b;
#X obj 830 305 s \$0-route-op4;
#X obj 942 305 s \$0-route-op4-cable;
#X obj 676 305 s \$0-route-op3-cable;
#X obj 564 305 s \$0-route-op3;
#X msg 596 130 0;
#X obj 193 480 s \$0-route-op1-cable3;
#X obj 193 364 t b b;
#X obj 193 422 pack;
#X msg 193 451 pos \$1 \$2;
#X obj 32 364 t b b;
#X obj 32 422 pack;
#X msg 32 451 pos \$1 \$2;
#X obj 32 480 s \$0-route-op1-cable2;
#X obj 32 509 t b b;
#X obj 32 567 pack;
#X msg 32 596 pos \$1 \$2;
#X obj 32 625 s \$0-route-op1-cableh;
#X obj 354 364 t b b;
#X obj 354 422 pack;
#X msg 354 451 pos \$1 \$2;
#X obj 354 480 s \$0-route-out-cable;
#X msg 193 393 11;
#X msg 225 393 11;
#X msg 354 393 11;
#X msg 386 393 11;
#X msg 32 393 11;
#X msg 64 393 11;
#X msg 32 538 11;
#X msg 64 538 11;
#X obj 977 188 + 11;
#X obj 942 188 + 4;
#X obj 711 188 + 11;
#X obj 676 188 + 4;
#X obj 445 188 + 11;
#X obj 410 188 + 4;
#X obj 179 188 + 11;
#X obj 144 188 + 4;
#X msg 154 275 vis_size 1 5;
#X msg 420 275 vis_size 1 5;
#X msg 687 275 vis_size 1 5;
#X msg 952 275 vis_size 1 5;
#X msg 32 130 -7;
#X msg 298 130 -7;
#X msg 330 130 17;
#X msg 564 130 7;
#X msg 862 130 17;
#X msg 830 130 7;
#X obj 965 140 r \$0-alg-graph-x;
#X obj 1091 116 r \$0-alg-graph-y;
#X obj 1091 140 + 17;
#X connect 0 0 6 0;
#X connect 0 0 17 0;
#X connect 0 0 23 0;
#X connect 0 0 33 0;
#X connect 0 0 43 0;
#X connect 0 0 40 0;
#X connect 0 0 47 0;
#X connect 0 0 51 0;
#X connect 3 0 7 0;
#X connect 4 0 3 0;
#X connect 4 0 70 0;
#X connect 5 0 3 1;
#X connect 5 0 69 0;
#X connect 6 0 75 0;
#X connect 6 1 10 0;
#X connect 7 0 1 0;
#X connect 8 0 9 0;
#X connect 9 0 2 0;
#X connect 9 0 71 0;
#X connect 10 0 5 0;
#X connect 11 0 14 0;
#X connect 12 0 11 0;
#X connect 12 0 68 0;
#X connect 13 0 11 1;
#X connect 13 0 67 0;
#X connect 14 0 18 0;
#X connect 15 0 16 0;
#X connect 16 0 19 0;
#X connect 16 0 72 0;
#X connect 17 0 76 0;
#X connect 17 1 77 0;
#X connect 20 0 24 0;
#X connect 21 0 20 0;
#X connect 21 0 66 0;
#X connect 22 0 20 1;
#X connect 22 0 65 0;
#X connect 23 0 78 0;
#X connect 23 1 38 0;
#X connect 24 0 37 0;
#X connect 25 0 26 0;
#X connect 26 0 36 0;
#X connect 26 0 73 0;
#X connect 27 0 30 0;
#X connect 28 0 27 0;
#X connect 28 0 64 0;
#X connect 29 0 27 1;
#X connect 29 0 63 0;
#X connect 30 0 34 0;
#X connect 31 0 32 0;
#X connect 32 0 35 0;
#X connect 32 0 74 0;
#X connect 33 0 80 0;
#X connect 33 1 79 0;
#X connect 38 0 22 0;
#X connect 40 0 55 0;
#X connect 40 1 56 0;
#X connect 41 0 42 0;
#X connect 42 0 39 0;
#X connect 43 0 59 0;
#X connect 43 1 60 0;
#X connect 44 0 45 0;
#X connect 45 0 46 0;
#X connect 47 0 61 0;
#X connect 47 1 62 0;
#X connect 48 0 49 0;
#X connect 49 0 50 0;
#X connect 51 0 57 0;
#X connect 51 1 58 0;
#X connect 52 0 53 0;
#X connect 53 0 54 0;
#X connect 55 0 41 0;
#X connect 56 0 41 1;
#X connect 57 0 52 0;
#X connect 58 0 52 1;
#X connect 59 0 44 0;
#X connect 60 0 44 1;
#X connect 61 0 48 0;
#X connect 62 0 48 1;
#X connect 63 0 31 1;
#X connect 64 0 31 0;
#X connect 65 0 25 1;
#X connect 66 0 25 0;
#X connect 67 0 15 1;
#X connect 68 0 15 0;
#X connect 69 0 8 1;
#X connect 70 0 8 0;
#X connect 71 0 2 0;
#X connect 72 0 19 0;
#X connect 73 0 36 0;
#X connect 74 0 35 0;
#X connect 75 0 4 0;
#X connect 76 0 12 0;
#X connect 77 0 13 0;
#X connect 78 0 21 0;
#X connect 79 0 29 0;
#X connect 80 0 28 0;
#X connect 81 0 28 1;
#X connect 81 0 21 1;
#X connect 81 0 12 1;
#X connect 81 0 4 1;
#X connect 82 0 83 0;
#X connect 83 0 29 1;
#X connect 83 0 22 1;
#X connect 83 0 13 1;
#X connect 83 0 5 1;
#X restore 77 70 pd alg4;
#N canvas -8 -8 1366 685 alg7 0;
#X obj 32 42 inlet;
#X obj 32 305 s \$0-route-op1;
#X obj 144 305 s \$0-route-op1-cable;
#X obj 32 188 pack;
#X obj 32 159 +;
#X obj 64 159 +;
#X obj 32 101 t b b;
#X msg 32 246 pos \$1 \$2;
#X obj 144 217 pack;
#X msg 144 246 pos \$1 \$2;
#X msg 64 130 0;
#X obj 298 188 pack;
#X obj 298 159 +;
#X obj 330 159 +;
#X msg 298 246 pos \$1 \$2;
#X obj 410 217 pack;
#X msg 410 246 pos \$1 \$2;
#X obj 298 101 t b b;
#X obj 298 305 s \$0-route-op2;
#X obj 410 305 s \$0-route-op2-cable;
#X obj 564 188 pack;
#X obj 564 159 +;
#X obj 596 159 +;
#X obj 564 101 t b b;
#X msg 564 246 pos \$1 \$2;
#X obj 676 217 pack;
#X msg 676 246 pos \$1 \$2;
#X obj 830 188 pack;
#X obj 830 159 +;
#X obj 862 159 +;
#X msg 830 246 pos \$1 \$2;
#X obj 942 217 pack;
#X msg 942 246 pos \$1 \$2;
#X obj 830 101 t b b;
#X obj 830 305 s \$0-route-op4;
#X obj 942 305 s \$0-route-op4-cable;
#X obj 676 305 s \$0-route-op3-cable;
#X obj 564 305 s \$0-route-op3;
#X msg 596 130 0;
#X msg 330 130 0;
#X msg 862 130 0;
#X obj 193 480 s \$0-route-op1-cable3;
#X obj 193 364 t b b;
#X obj 193 422 pack;
#X msg 193 451 pos \$1 \$2;
#X obj 32 364 t b b;
#X obj 32 422 pack;
#X msg 32 451 pos \$1 \$2;
#X obj 32 480 s \$0-route-op1-cable2;
#X obj 354 451 pack;
#X msg 354 480 pos \$1 \$2;
#X obj 354 364 t b b;
#X obj 354 538 s \$0-route-out-cable;
#X msg 364 509 vis_size 48 1;
#X obj 32 509 t b b;
#X obj 32 567 pack;
#X msg 32 596 pos \$1 \$2;
#X obj 32 625 s \$0-route-op1-cableh;
#X msg 225 393 11;
#X msg 193 393 11;
#X msg 64 393 11;
#X msg 32 393 11;
#X msg 32 538 11;
#X msg 64 538 11;
#X obj 711 188 + 11;
#X obj 676 188 + 4;
#X obj 942 188 + 4;
#X obj 977 188 + 11;
#X obj 445 188 + 11;
#X obj 410 188 + 4;
#X obj 179 188 + 11;
#X obj 144 188 + 4;
#X msg 298 130 -7;
#X msg 32 130 -21;
#X msg 564 130 7;
#X msg 830 130 21;
#X msg 154 275 vis_size 1 5;
#X msg 420 275 vis_size 1 5;
#X msg 687 275 vis_size 1 5;
#X msg 952 275 vis_size 1 5;
#X msg 354 393 11;
#X msg 386 393 11;
#X obj 1091 116 r \$0-alg-graph-y;
#X obj 1091 140 + 25;
#X obj 965 140 - 8;
#X obj 965 116 r \$0-alg-graph-x;
#X connect 0 0 6 0;
#X connect 0 0 17 0;
#X connect 0 0 23 0;
#X connect 0 0 33 0;
#X connect 0 0 45 0;
#X connect 0 0 42 0;
#X connect 0 0 51 0;
#X connect 0 0 54 0;
#X connect 3 0 7 0;
#X connect 4 0 3 0;
#X connect 4 0 71 0;
#X connect 5 0 3 1;
#X connect 5 0 70 0;
#X connect 6 0 73 0;
#X connect 6 1 10 0;
#X connect 7 0 1 0;
#X connect 8 0 9 0;
#X connect 9 0 2 0;
#X connect 9 0 76 0;
#X connect 10 0 5 0;
#X connect 11 0 14 0;
#X connect 12 0 11 0;
#X connect 12 0 69 0;
#X connect 13 0 11 1;
#X connect 13 0 68 0;
#X connect 14 0 18 0;
#X connect 15 0 16 0;
#X connect 16 0 19 0;
#X connect 16 0 77 0;
#X connect 17 0 72 0;
#X connect 17 1 39 0;
#X connect 20 0 24 0;
#X connect 21 0 20 0;
#X connect 21 0 65 0;
#X connect 22 0 20 1;
#X connect 22 0 64 0;
#X connect 23 0 74 0;
#X connect 23 1 38 0;
#X connect 24 0 37 0;
#X connect 25 0 26 0;
#X connect 26 0 36 0;
#X connect 26 0 78 0;
#X connect 27 0 30 0;
#X connect 28 0 27 0;
#X connect 28 0 66 0;
#X connect 29 0 27 1;
#X connect 29 0 67 0;
#X connect 30 0 34 0;
#X connect 31 0 32 0;
#X connect 32 0 35 0;
#X connect 32 0 79 0;
#X connect 33 0 75 0;
#X connect 33 1 40 0;
#X connect 38 0 22 0;
#X connect 39 0 13 0;
#X connect 40 0 29 0;
#X connect 42 0 59 0;
#X connect 42 1 58 0;
#X connect 43 0 44 0;
#X connect 44 0 41 0;
#X connect 45 0 61 0;
#X connect 45 1 60 0;
#X connect 46 0 47 0;
#X connect 47 0 48 0;
#X connect 49 0 50 0;
#X connect 50 0 53 0;
#X connect 50 0 52 0;
#X connect 51 0 80 0;
#X connect 51 1 81 0;
#X connect 53 0 52 0;
#X connect 54 0 62 0;
#X connect 54 1 63 0;
#X connect 55 0 56 0;
#X connect 56 0 57 0;
#X connect 58 0 43 1;
#X connect 59 0 43 0;
#X connect 60 0 46 1;
#X connect 61 0 46 0;
#X connect 62 0 55 0;
#X connect 63 0 55 1;
#X connect 64 0 25 1;
#X connect 65 0 25 0;
#X connect 66 0 31 0;
#X connect 67 0 31 1;
#X connect 68 0 15 1;
#X connect 69 0 15 0;
#X connect 70 0 8 1;
#X connect 71 0 8 0;
#X connect 72 0 12 0;
#X connect 73 0 4 0;
#X connect 74 0 21 0;
#X connect 75 0 28 0;
#X connect 76 0 2 0;
#X connect 77 0 19 0;
#X connect 78 0 36 0;
#X connect 79 0 35 0;
#X connect 80 0 49 0;
#X connect 81 0 49 1;
#X connect 82 0 83 0;
#X connect 83 0 29 1;
#X connect 83 0 22 1;
#X connect 83 0 13 1;
#X connect 83 0 5 1;
#X connect 84 0 28 1;
#X connect 84 0 21 1;
#X connect 84 0 12 1;
#X connect 84 0 4 1;
#X connect 85 0 84 0;
#X restore 125 157 pd alg7;
#N canvas -8 -8 1366 685 alg5 0;
#X obj 32 12 inlet;
#X obj 32 255 s \$0-route-op1;
#X obj 144 255 s \$0-route-op1-cable;
#X obj 32 138 pack;
#X obj 32 109 +;
#X obj 64 109 +;
#X obj 32 51 t b b;
#X msg 32 196 pos \$1 \$2;
#X obj 144 167 pack;
#X msg 144 196 pos \$1 \$2;
#X msg 64 80 0;
#X obj 298 138 pack;
#X obj 298 109 +;
#X obj 330 109 +;
#X msg 298 196 pos \$1 \$2;
#X obj 410 167 pack;
#X msg 410 196 pos \$1 \$2;
#X obj 298 51 t b b;
#X obj 298 255 s \$0-route-op2;
#X obj 410 255 s \$0-route-op2-cable;
#X obj 564 138 pack;
#X obj 564 109 +;
#X obj 596 109 +;
#X obj 564 51 t b b;
#X msg 564 196 pos \$1 \$2;
#X obj 676 167 pack;
#X msg 676 196 pos \$1 \$2;
#X obj 830 138 pack;
#X obj 830 109 +;
#X obj 862 109 +;
#X msg 830 196 pos \$1 \$2;
#X obj 942 167 pack;
#X msg 942 196 pos \$1 \$2;
#X obj 830 51 t b b;
#X obj 830 255 s \$0-route-op4;
#X obj 942 255 s \$0-route-op4-cable;
#X obj 676 255 s \$0-route-op3-cable;
#X obj 564 255 s \$0-route-op3;
#X obj 193 458 s \$0-route-op1-cable3;
#X obj 193 342 +;
#X obj 225 342 +;
#X obj 193 284 t b b;
#X obj 193 400 pack;
#X msg 193 429 pos \$1 \$2;
#X msg 225 313 0;
#X obj 32 342 +;
#X obj 64 342 +;
#X obj 32 284 t b b;
#X obj 32 400 pack;
#X msg 32 429 pos \$1 \$2;
#X msg 64 313 0;
#X obj 32 458 s \$0-route-op1-cable2;
#X obj 354 371 pack;
#X msg 354 400 pos \$1 \$2;
#X obj 354 284 t b b;
#X obj 354 458 s \$0-route-out-cable;
#X obj 32 545 +;
#X obj 64 545 +;
#X obj 32 487 t b b;
#X obj 32 603 pack;
#X msg 32 632 pos \$1 \$2;
#X obj 32 661 s \$0-route-op1-cableh;
#X obj 977 138 + 11;
#X obj 942 138 + 4;
#X obj 676 138 + 4;
#X obj 711 138 + 11;
#X obj 445 138 + 11;
#X obj 410 138 + 4;
#X obj 144 138 + 4;
#X msg 32 80 0;
#X msg 564 80 0;
#X msg 830 80 14;
#X msg 298 80 -14;
#X obj 32 371 + 4;
#X obj 193 371 + 4;
#X obj 32 574 + 4;
#X obj 64 574 + 11;
#X msg 32 516 -14;
#X obj 225 371 + 14;
#X obj 64 371 + 14;
#X msg 32 313 -14;
#X msg 193 313 14;
#X msg 364 429 vis_size 1 5;
#X msg 420 225 vis_size 1 5;
#X msg 687 225 vis_size 1 5;
#X msg 952 225 vis_size 1 5;
#X msg 154 224 vis_size 1 5;
#X msg 354 313 11;
#X msg 386 313 11;
#X msg 330 80 17;
#X msg 596 79 17;
#X msg 862 80 17;
#X obj 179 138 + 11;
#X msg 64 516 2;
#X obj 965 90 r \$0-alg-graph-x;
#X obj 1091 66 r \$0-alg-graph-y;
#X obj 1091 90 + 17;
#X connect 0 0 6 0;
#X connect 0 0 17 0;
#X connect 0 0 23 0;
#X connect 0 0 33 0;
#X connect 0 0 41 0;
#X connect 0 0 47 0;
#X connect 0 0 54 0;
#X connect 0 0 58 0;
#X connect 3 0 7 0;
#X connect 4 0 3 0;
#X connect 4 0 68 0;
#X connect 5 0 3 1;
#X connect 5 0 92 0;
#X connect 6 0 69 0;
#X connect 6 1 10 0;
#X connect 7 0 1 0;
#X connect 8 0 9 0;
#X connect 9 0 2 0;
#X connect 9 0 86 0;
#X connect 10 0 5 0;
#X connect 11 0 14 0;
#X connect 12 0 11 0;
#X connect 12 0 67 0;
#X connect 13 0 11 1;
#X connect 13 0 66 0;
#X connect 14 0 18 0;
#X connect 15 0 16 0;
#X connect 16 0 19 0;
#X connect 16 0 83 0;
#X connect 17 0 72 0;
#X connect 17 1 89 0;
#X connect 20 0 24 0;
#X connect 21 0 20 0;
#X connect 21 0 64 0;
#X connect 22 0 20 1;
#X connect 22 0 65 0;
#X connect 23 0 70 0;
#X connect 23 1 90 0;
#X connect 24 0 37 0;
#X connect 25 0 26 0;
#X connect 26 0 36 0;
#X connect 26 0 84 0;
#X connect 27 0 30 0;
#X connect 28 0 27 0;
#X connect 28 0 63 0;
#X connect 29 0 27 1;
#X connect 29 0 62 0;
#X connect 30 0 34 0;
#X connect 31 0 32 0;
#X connect 32 0 35 0;
#X connect 32 0 85 0;
#X connect 33 0 71 0;
#X connect 33 1 91 0;
#X connect 39 0 74 0;
#X connect 40 0 78 0;
#X connect 41 0 81 0;
#X connect 41 1 44 0;
#X connect 42 0 43 0;
#X connect 43 0 38 0;
#X connect 44 0 40 0;
#X connect 45 0 73 0;
#X connect 46 0 79 0;
#X connect 47 0 80 0;
#X connect 47 1 50 0;
#X connect 48 0 49 0;
#X connect 49 0 51 0;
#X connect 50 0 46 0;
#X connect 52 0 53 0;
#X connect 53 0 82 0;
#X connect 53 0 55 0;
#X connect 54 0 87 0;
#X connect 54 1 88 0;
#X connect 56 0 75 0;
#X connect 57 0 76 0;
#X connect 58 0 77 0;
#X connect 58 1 93 0;
#X connect 59 0 60 0;
#X connect 60 0 61 0;
#X connect 62 0 31 1;
#X connect 63 0 31 0;
#X connect 64 0 25 0;
#X connect 65 0 25 1;
#X connect 66 0 15 1;
#X connect 67 0 15 0;
#X connect 68 0 8 0;
#X connect 69 0 4 0;
#X connect 70 0 21 0;
#X connect 71 0 28 0;
#X connect 72 0 12 0;
#X connect 73 0 48 0;
#X connect 74 0 42 0;
#X connect 75 0 59 0;
#X connect 76 0 59 1;
#X connect 77 0 56 0;
#X connect 78 0 42 1;
#X connect 79 0 48 1;
#X connect 80 0 45 0;
#X connect 81 0 39 0;
#X connect 82 0 55 0;
#X connect 83 0 19 0;
#X connect 84 0 36 0;
#X connect 85 0 35 0;
#X connect 86 0 2 0;
#X connect 87 0 52 0;
#X connect 88 0 52 1;
#X connect 89 0 13 0;
#X connect 90 0 22 0;
#X connect 91 0 29 0;
#X connect 92 0 8 1;
#X connect 93 0 57 0;
#X connect 94 0 28 1;
#X connect 94 0 21 1;
#X connect 94 0 12 1;
#X connect 94 0 4 1;
#X connect 94 0 45 1;
#X connect 94 0 39 1;
#X connect 94 0 56 1;
#X connect 95 0 96 0;
#X connect 96 0 29 1;
#X connect 96 0 22 1;
#X connect 96 0 13 1;
#X connect 96 0 5 1;
#X connect 96 0 46 1;
#X connect 96 0 40 1;
#X connect 96 0 57 1;
#X restore 93 99 pd alg5;
#N canvas -8 -8 1366 685 alg6 0;
#X obj 32 42 inlet;
#X obj 32 305 s \$0-route-op1;
#X obj 144 305 s \$0-route-op1-cable;
#X obj 32 188 pack;
#X obj 32 159 +;
#X obj 64 159 +;
#X obj 32 101 t b b;
#X msg 32 246 pos \$1 \$2;
#X obj 144 217 pack;
#X msg 144 246 pos \$1 \$2;
#X msg 64 130 0;
#X obj 298 188 pack;
#X obj 298 159 +;
#X obj 330 159 +;
#X msg 298 246 pos \$1 \$2;
#X obj 410 217 pack;
#X msg 410 246 pos \$1 \$2;
#X obj 298 101 t b b;
#X obj 298 305 s \$0-route-op2;
#X obj 410 305 s \$0-route-op2-cable;
#X obj 564 188 pack;
#X obj 564 159 +;
#X obj 596 159 +;
#X obj 564 101 t b b;
#X msg 564 246 pos \$1 \$2;
#X obj 676 217 pack;
#X msg 676 246 pos \$1 \$2;
#X obj 830 188 pack;
#X obj 830 159 +;
#X obj 862 159 +;
#X msg 830 246 pos \$1 \$2;
#X obj 942 217 pack;
#X msg 942 246 pos \$1 \$2;
#X obj 830 101 t b b;
#X obj 830 305 s \$0-route-op4;
#X obj 942 305 s \$0-route-op4-cable;
#X obj 676 305 s \$0-route-op3-cable;
#X obj 564 305 s \$0-route-op3;
#X obj 193 480 s \$0-route-op1-cable3;
#X obj 193 364 t b b;
#X obj 193 422 pack;
#X msg 193 451 pos \$1 \$2;
#X obj 32 364 t b b;
#X obj 32 422 pack;
#X msg 32 451 pos \$1 \$2;
#X obj 32 480 s \$0-route-op1-cable2;
#X obj 354 451 pack;
#X msg 354 480 pos \$1 \$2;
#X obj 354 364 t b b;
#X obj 354 538 s \$0-route-out-cable;
#X msg 364 509 vis_size 31 1;
#X obj 32 509 t b b;
#X obj 32 567 pack;
#X msg 32 596 pos \$1 \$2;
#X obj 32 625 s \$0-route-op1-cableh;
#X msg 64 393 11;
#X msg 32 393 11;
#X msg 193 393 11;
#X msg 225 393 11;
#X msg 64 538 11;
#X msg 32 538 11;
#X msg 354 393 11;
#X msg 386 393 11;
#X msg 330 130 17;
#X msg 596 130 17;
#X msg 862 130 17;
#X msg 298 130 -14;
#X msg 564 130 0;
#X msg 830 130 14;
#X obj 976 188 + 11;
#X obj 942 188 + 4;
#X obj 711 188 + 11;
#X obj 676 188 + 4;
#X obj 445 188 + 11;
#X obj 410 188 + 4;
#X obj 179 188 + 11;
#X obj 144 188 + 4;
#X msg 154 275 vis_size 1 5;
#X msg 420 275 vis_size 1 5;
#X msg 687 275 vis_size 1 5;
#X msg 952 275 vis_size 1 5;
#X msg 32 130 -14;
#X obj 965 140 r \$0-alg-graph-x;
#X obj 1091 116 r \$0-alg-graph-y;
#X obj 1091 140 + 17;
#X connect 0 0 6 0;
#X connect 0 0 17 0;
#X connect 0 0 23 0;
#X connect 0 0 33 0;
#X connect 0 0 39 0;
#X connect 0 0 42 0;
#X connect 0 0 48 0;
#X connect 0 0 51 0;
#X connect 3 0 7 0;
#X connect 4 0 3 0;
#X connect 4 0 76 0;
#X connect 5 0 3 1;
#X connect 5 0 75 0;
#X connect 6 0 81 0;
#X connect 6 1 10 0;
#X connect 7 0 1 0;
#X connect 8 0 9 0;
#X connect 9 0 2 0;
#X connect 9 0 77 0;
#X connect 10 0 5 0;
#X connect 11 0 14 0;
#X connect 12 0 11 0;
#X connect 12 0 74 0;
#X connect 13 0 11 1;
#X connect 13 0 73 0;
#X connect 14 0 18 0;
#X connect 15 0 16 0;
#X connect 16 0 19 0;
#X connect 16 0 78 0;
#X connect 17 0 66 0;
#X connect 17 1 63 0;
#X connect 20 0 24 0;
#X connect 21 0 20 0;
#X connect 21 0 72 0;
#X connect 22 0 20 1;
#X connect 22 0 71 0;
#X connect 23 0 67 0;
#X connect 23 1 64 0;
#X connect 24 0 37 0;
#X connect 25 0 26 0;
#X connect 26 0 36 0;
#X connect 26 0 79 0;
#X connect 27 0 30 0;
#X connect 28 0 27 0;
#X connect 28 0 70 0;
#X connect 29 0 27 1;
#X connect 29 0 69 0;
#X connect 30 0 34 0;
#X connect 31 0 32 0;
#X connect 32 0 35 0;
#X connect 32 0 80 0;
#X connect 33 0 68 0;
#X connect 33 1 65 0;
#X connect 39 0 57 0;
#X connect 39 1 58 0;
#X connect 40 0 41 0;
#X connect 41 0 38 0;
#X connect 42 0 56 0;
#X connect 42 1 55 0;
#X connect 43 0 44 0;
#X connect 44 0 45 0;
#X connect 46 0 47 0;
#X connect 47 0 50 0;
#X connect 47 0 49 0;
#X connect 48 0 61 0;
#X connect 48 1 62 0;
#X connect 50 0 49 0;
#X connect 51 0 60 0;
#X connect 51 1 59 0;
#X connect 52 0 53 0;
#X connect 53 0 54 0;
#X connect 55 0 43 1;
#X connect 56 0 43 0;
#X connect 57 0 40 0;
#X connect 58 0 40 1;
#X connect 59 0 52 1;
#X connect 60 0 52 0;
#X connect 61 0 46 0;
#X connect 62 0 46 1;
#X connect 63 0 13 0;
#X connect 64 0 22 0;
#X connect 65 0 29 0;
#X connect 66 0 12 0;
#X connect 67 0 21 0;
#X connect 68 0 28 0;
#X connect 69 0 31 1;
#X connect 70 0 31 0;
#X connect 71 0 25 1;
#X connect 72 0 25 0;
#X connect 73 0 15 1;
#X connect 74 0 15 0;
#X connect 75 0 8 1;
#X connect 76 0 8 0;
#X connect 77 0 2 0;
#X connect 78 0 19 0;
#X connect 79 0 36 0;
#X connect 80 0 35 0;
#X connect 81 0 4 0;
#X connect 82 0 28 1;
#X connect 82 0 21 1;
#X connect 82 0 12 1;
#X connect 82 0 4 1;
#X connect 83 0 84 0;
#X connect 84 0 29 1;
#X connect 84 0 22 1;
#X connect 84 0 13 1;
#X connect 84 0 5 1;
#X restore 109 128 pd alg6;
#X obj 12 12 r \$0-alg;
#X obj 242 30 loadbang;
#X msg 242 59 329;
#X obj 242 83 s \$0-alg-graph-x;
#X msg 368 59 262;
#X obj 368 83 s \$0-alg-graph-y;
#X connect 0 0 1 0;
#X connect 0 1 2 0;
#X connect 0 2 3 0;
#X connect 0 3 4 0;
#X connect 0 4 5 0;
#X connect 0 5 7 0;
#X connect 0 6 8 0;
#X connect 0 7 6 0;
#X connect 9 0 0 0;
#X connect 10 0 11 0;
#X connect 10 0 13 0;
#X connect 11 0 12 0;
#X connect 13 0 14 0;
#X restore 274 18 pd alg-visualization;
#X obj 83 319 hradio 10 1 0 2 \$0-bendMode \$0-bendMode-r bend:_global
25 4 0 10 #fc80c0 #fcfcfc #8080fc 0;
#X obj 83 274 hradio 10 1 0 2 \$0-poly \$0-poly-r mono 25 4 0 10 #fc80c0
#fcfcfc #8080fc 0;
#X obj 21 273 vsl 10 53 0 100 0 0 \$0-op1-self-gain \$0-op1-self-gain-r
op1_self: 0 -9 0 10 #fc80c0 #fcfcfc #8080fc 0 1;
#N canvas -8 -8 1366 685 alg 0;
#X obj 12 12 r \$0-alg;
#X obj 12 123 outlet;
#X obj 12 41 list prepend alg;
#X connect 0 0 2 0;
#X connect 2 0 1 0;
#X restore 599 249 pd alg;
#X obj 485 80 inlet;
#X obj 486 414 outlet~;
#X obj 600 80 inlet;
#N canvas -8 -8 1366 685 route-inlet-messages 0;
#X obj 12 12 inlet;
#N canvas -8 -8 1366 685 op1 0;
#X obj 12 12 inlet;
#X obj 12 70 route gain att dec sus rel freq fine lfo;
#X obj 12 99 s \$0-op1-gain-r;
#X obj 46 128 s \$0-op1-att-r;
#X obj 81 157 s \$0-op1-dec-r;
#X obj 115 186 s \$0-op1-sus-r;
#X obj 150 99 s \$0-op1-rel-r;
#X obj 185 128 s \$0-op1-freq-r;
#X obj 219 157 s \$0-op1-fine-r;
#X msg 306 94 0;
#X obj 306 70 loadbang;
#X obj 289 288 s \$0-error;
#N canvas 601 150 450 300 lfo 0;
#X obj 50 20 inlet;
#X obj 50 49 route am fm;
#X obj 50 78 s \$0-op1-lfo-am-r;
#X obj 87 102 s \$0-op1-lfo-fm-r;
#X obj 206 25 loadbang;
#X msg 206 49 0;
#X connect 0 0 1 0;
#X connect 1 0 2 0;
#X connect 1 1 3 0;
#X connect 4 0 5 0;
#X connect 5 0 2 0;
#X connect 5 0 3 0;
#X restore 254 186 pd lfo;
#X connect 0 0 1 0;
#X connect 1 0 2 0;
#X connect 1 1 3 0;
#X connect 1 2 4 0;
#X connect 1 3 5 0;
#X connect 1 4 6 0;
#X connect 1 5 7 0;
#X connect 1 6 8 0;
#X connect 1 7 12 0;
#X connect 1 8 11 0;
#X connect 9 0 8 0;
#X connect 9 0 7 0;
#X connect 9 0 6 0;
#X connect 9 0 2 0;
#X connect 9 0 3 0;
#X connect 9 0 4 0;
#X connect 9 0 5 0;
#X connect 10 0 9 0;
#X restore 12 100 pd op1;
#N canvas 223 116 450 300 op2 0;
#X obj 12 12 inlet;
#X obj 12 70 route gain att dec sus rel freq fine lfo;
#X obj 12 99 s \$0-op2-gain-r;
#X obj 46 128 s \$0-op2-att-r;
#X obj 81 157 s \$0-op2-dec-r;
#X obj 115 186 s \$0-op2-sus-r;
#X obj 150 99 s \$0-op2-rel-r;
#X obj 185 128 s \$0-op2-freq-r;
#X obj 219 157 s \$0-op2-fine-r;
#X msg 306 94 0;
#X obj 306 70 loadbang;
#X obj 289 265 s \$0-error;
#N canvas 601 150 450 300 lfo 0;
#X obj 50 20 inlet;
#X obj 50 49 route am fm;
#X obj 206 25 loadbang;
#X msg 206 49 0;
#X obj 50 78 s \$0-op2-lfo-am-r;
#X obj 87 102 s \$0-op2-lfo-fm-r;
#X connect 0 0 1 0;
#X connect 1 0 4 0;
#X connect 1 1 5 0;
#X connect 2 0 3 0;
#X connect 3 0 4 0;
#X connect 3 0 5 0;
#X restore 254 186 pd lfo;
#X connect 0 0 1 0;
#X connect 1 0 2 0;
#X connect 1 1 3 0;
#X connect 1 2 4 0;
#X connect 1 3 5 0;
#X connect 1 4 6 0;
#X connect 1 5 7 0;
#X connect 1 6 8 0;
#X connect 1 7 12 0;
#X connect 1 8 11 0;
#X connect 9 0 8 0;
#X connect 9 0 7 0;
#X connect 9 0 6 0;
#X connect 9 0 3 0;
#X connect 9 0 4 0;
#X connect 9 0 5 0;
#X connect 9 0 2 0;
#X connect 10 0 9 0;
#X restore 159 100 pd op2;
#N canvas 223 116 450 300 op4 0;
#X obj 12 12 inlet;
#X obj 12 70 route gain att dec sus rel freq fine lfo;
#X obj 12 99 s \$0-op4-gain-r;
#X obj 46 128 s \$0-op4-att-r;
#X obj 81 157 s \$0-op4-dec-r;
#X obj 115 186 s \$0-op4-sus-r;
#X obj 219 157 s \$0-op4-fine-r;
#X obj 185 128 s \$0-op4-freq-r;
#X obj 150 99 s \$0-op4-rel-r;
#X msg 306 99 100;
#X msg 341 99 0;
#X obj 306 70 loadbang;
#X msg 376 99 1;
#X obj 289 265 s \$0-error;
#N canvas 601 150 450 300 lfo 0;
#X obj 50 20 inlet;
#X obj 50 49 route am fm;
#X obj 206 25 loadbang;
#X msg 206 49 0;
#X obj 50 78 s \$0-op4-lfo-am-r;
#X obj 87 102 s \$0-op4-lfo-fm-r;
#X connect 0 0 1 0;
#X connect 1 0 4 0;
#X connect 1 1 5 0;
#X connect 2 0 3 0;
#X connect 3 0 4 0;
#X connect 3 0 5 0;
#X restore 254 186 pd lfo;
#X connect 0 0 1 0;
#X connect 1 0 2 0;
#X connect 1 1 3 0;
#X connect 1 2 4 0;
#X connect 1 3 5 0;
#X connect 1 4 8 0;
#X connect 1 5 7 0;
#X connect 1 6 6 0;
#X connect 1 7 14 0;
#X connect 1 8 13 0;
#X connect 9 0 5 0;
#X connect 9 0 2 0;
#X connect 10 0 6 0;
#X connect 10 0 7 0;
#X connect 10 0 8 0;
#X connect 10 0 4 0;
#X connect 10 0 3 0;
#X connect 11 0 9 0;
#X connect 11 0 10 0;
#X connect 11 0 12 0;
#X connect 12 0 7 0;
#X restore 271 100 pd op4;
#N canvas 223 116 450 300 op3 0;
#X obj 12 12 inlet;
#X obj 12 70 route gain att dec sus rel freq fine lfo;
#X obj 12 99 s \$0-op3-gain-r;
#X obj 46 128 s \$0-op3-att-r;
#X obj 81 157 s \$0-op3-dec-r;
#X obj 115 186 s \$0-op3-sus-r;
#X obj 219 157 s \$0-op3-fine-r;
#X obj 185 128 s \$0-op3-freq-r;
#X obj 150 99 s \$0-op3-rel-r;
#X msg 306 94 0;
#X obj 306 70 loadbang;
#X obj 289 265 s \$0-error;
#N canvas 601 150 450 300 lfo 0;
#X obj 50 20 inlet;
#X obj 50 49 route am fm;
#X obj 206 25 loadbang;
#X msg 206 49 0;
#X obj 50 78 s \$0-op3-lfo-am-r;
#X obj 87 102 s \$0-op3-lfo-fm-r;
#X connect 0 0 1 0;
#X connect 1 0 4 0;
#X connect 1 1 5 0;
#X connect 2 0 3 0;
#X connect 3 0 4 0;
#X connect 3 0 5 0;
#X restore 254 186 pd lfo;
#X connect 0 0 1 0;
#X connect 1 0 2 0;
#X connect 1 1 3 0;
#X connect 1 2 4 0;
#X connect 1 3 5 0;
#X connect 1 4 8 0;
#X connect 1 5 7 0;
#X connect 1 6 6 0;
#X connect 1 7 12 0;
#X connect 1 8 11 0;
#X connect 9 0 7 0;
#X connect 9 0 6 0;
#X connect 9 0 8 0;
#X connect 9 0 5 0;
#X connect 9 0 4 0;
#X connect 9 0 3 0;
#X connect 9 0 2 0;
#X connect 10 0 9 0;
#X restore 215 100 pd op3;
#N canvas 338 184 450 300 op1_self 0;
#X obj 12 12 inlet;
#X obj 12 99 s \$0-op1-self-gain-r;
#X obj 12 70 route gain lfo;
#X msg 306 94 0;
#X obj 306 70 loadbang;
#X obj 107 207 s \$0-error;
#N canvas 601 150 450 300 lfo 0;
#X obj 50 20 inlet;
#X obj 50 49 route am fm;
#X obj 206 25 loadbang;
#X msg 206 49 0;
#X obj 50 78 s \$0-op1-self-lfo-am-r;
#X obj 87 102 s \$0-op1-self-lfo-fm-r;
#X connect 0 0 1 0;
#X connect 1 0 4 0;
#X connect 1 1 5 0;
#X connect 2 0 3 0;
#X connect 3 0 4 0;
#X connect 3 0 5 0;
#X restore 59 128 pd lfo;
#X connect 0 0 2 0;
#X connect 2 0 1 0;
#X connect 2 1 6 0;
#X connect 2 2 5 0;
#X connect 3 0 1 0;
#X connect 4 0 3 0;
#X restore 68 100 pd op1_self;
#N canvas 338 184 450 300 lfo 0;
#X obj 12 12 inlet;
#X obj 53 128 s \$0-lfo-freq-r;
#X obj 12 99 s \$0-lfo-gain-r;
#X msg 146 70 0;
#X obj 146 46 loadbang;
#X obj 135 207 s \$0-error;
#X obj 12 70 route gain freq fm;
#X obj 94 157 s \$0-lfo-fm-r;
#X connect 0 0 6 0;
#X connect 3 0 1 0;
#X connect 3 0 2 0;
#X connect 3 0 7 0;
#X connect 4 0 3 0;
#X connect 6 0 2 0;
#X connect 6 1 1 0;
#X connect 6 2 7 0;
#X connect 6 3 5 0;
#X restore 327 100 pd lfo;
#X obj 429 240 s \$0-legato-r;
#X obj 373 211 s \$0-poly-r;
#X obj 712 182 s \$0-out-r;
#X obj 12 71 route op1 op1_self op2 op3 op4 lfo, f 52;
#N canvas 676 0 681 676 state 0;
#X obj 66 30 inlet;
#N canvas 662 207 669 300 op1 0;
#X obj 54 60 f;
#X obj 54 7 inlet;
#X obj 54 284 outlet;
#X obj 303 141 r \$0-op1-fine;
#X obj 262 112 r \$0-op1-freq;
#X obj 220 83 r \$0-op1-rel;
#X obj 178 141 r \$0-op1-sus;
#X obj 137 112 r \$0-op1-dec;
#X obj 95 83 r \$0-op1-att;
#X obj 72 36 r \$0-op1-gain;
#X obj 345 83 r \$0-op1-lfo-am;
#X obj 54 170 pack f f f f f f f f f, f 48;
#X obj 387 112 r \$0-op1-lfo-fm;
#X msg 54 199 add2 op1 gain \$1 \, addcomma \, add2 op1 att \$2 \,
addcomma \, add2 op1 dec \$3 \, addcomma \, add2 op1 sus \$4 \, addcomma
\, add2 op1 rel \$5 \, addcomma \, add2 op1 freq \$6 \, addcomma \,
add2 op1 fine \$7 \, addcomma \, add2 op1 lfo am \$8 \, addcomma \,
add2 op1 lfo fm \$9 \, addcomma;
#X connect 0 0 11 0;
#X connect 1 0 0 0;
#X connect 3 0 11 6;
#X connect 4 0 11 5;
#X connect 5 0 11 4;
#X connect 6 0 11 3;
#X connect 7 0 11 2;
#X connect 8 0 11 1;
#X connect 9 0 0 1;
#X connect 10 0 11 7;
#X connect 11 0 13 0;
#X connect 12 0 11 8;
#X connect 13 0 2 0;
#X restore 469 175 pd op1;
#X obj 66 146 t b b b b b b b, f 58;
#N canvas 602 275 669 300 op1_self 0;
#X obj 54 60 f;
#X obj 54 7 inlet;
#X obj 54 196 outlet;
#X obj 72 36 r \$0-op1-self-gain;
#X msg 54 153 add2 op1_self gain \$1 \, addcomma \, add2 op1_self lfo
am \$2 \, addcomma \, add2 op1_self lfo fm \$3 \, addcomma;
#X obj 87 65 r \$0-op1-self-lfo-am;
#X obj 54 124 pack f f f;
#X obj 121 94 r \$0-op1-self-lfo-fm;
#X connect 0 0 6 0;
#X connect 1 0 0 0;
#X connect 3 0 0 1;
#X connect 4 0 2 0;
#X connect 5 0 6 1;
#X connect 6 0 4 0;
#X connect 7 0 6 2;
#X restore 378 175 pd op1_self;
#N canvas 0 50 669 300 op2 0;
#X obj 54 60 f;
#X obj 54 7 inlet;
#X obj 54 266 outlet;
#X obj 303 123 r \$0-op2-fine;
#X obj 262 94 r \$0-op2-freq;
#X obj 220 65 r \$0-op2-rel;
#X obj 178 123 r \$0-op2-sus;
#X obj 137 94 r \$0-op2-dec;
#X obj 95 65 r \$0-op2-att;
#X obj 72 36 r \$0-op2-gain;
#X obj 345 65 r \$0-op2-lfo-am;
#X obj 387 94 r \$0-op2-lfo-fm;
#X msg 54 181 add2 op2 gain \$1 \, addcomma \, add2 op2 att \$2 \,
addcomma \, add2 op2 dec \$3 \, addcomma \, add2 op2 sus \$4 \, addcomma
\, add2 op2 rel \$5 \, addcomma \, add2 op2 freq \$6 \, addcomma \,
add2 op2 fine \$7 \, addcomma \, add2 op2 lfo am \$8 \, addcomma \,
add2 op2 lfo fm \$9 \, addcomma;
#X obj 54 152 pack f f f f f f f f f, f 48;
#X connect 0 0 13 0;
#X connect 1 0 0 0;
#X connect 3 0 13 6;
#X connect 4 0 13 5;
#X connect 5 0 13 4;
#X connect 6 0 13 3;
#X connect 7 0 13 2;
#X connect 8 0 13 1;
#X connect 9 0 0 1;
#X connect 10 0 13 7;
#X connect 11 0 13 8;
#X connect 12 0 2 0;
#X connect 13 0 12 0;
#X restore 321 175 pd op2;
#N canvas 0 50 669 300 op3 0;
#X obj 54 60 f;
#X obj 54 7 inlet;
#X obj 54 266 outlet;
#X obj 303 123 r \$0-op3-fine;
#X obj 262 94 r \$0-op3-freq;
#X obj 220 65 r \$0-op3-rel;
#X obj 178 123 r \$0-op3-sus;
#X obj 137 94 r \$0-op3-dec;
#X obj 95 65 r \$0-op3-att;
#X obj 72 34 r \$0-op3-gain;
#X obj 345 65 r \$0-op3-lfo-am;
#X obj 387 94 r \$0-op3-lfo-fm;
#X obj 54 152 pack f f f f f f f f f, f 48;
#X msg 54 181 add2 op3 gain \$1 \, addcomma \, add2 op3 att \$2 \,
addcomma \, add2 op3 dec \$3 \, addcomma \, add2 op3 sus \$4 \, addcomma
\, add2 op3 rel \$5 \, addcomma \, add2 op3 freq \$6 \, addcomma \,
add2 op3 fine \$7 \, addcomma \, add2 op3 lfo am \$8 \, addcomma \,
add2 op3 lfo fm \$9 \, addcomma;
#X connect 0 0 12 0;
#X connect 1 0 0 0;
#X connect 3 0 12 6;
#X connect 4 0 12 5;
#X connect 5 0 12 4;
#X connect 6 0 12 3;
#X connect 7 0 12 2;
#X connect 8 0 12 1;
#X connect 9 0 0 1;
#X connect 10 0 12 7;
#X connect 11 0 12 8;
#X connect 12 0 13 0;
#X connect 13 0 2 0;
#X restore 267 175 pd op3;
#N canvas 0 50 669 300 op4 0;
#X obj 54 60 f;
#X obj 54 7 inlet;
#X obj 54 266 outlet;
#X obj 72 36 r \$0-op4-gain;
#X obj 95 65 r \$0-op4-att;
#X obj 137 94 r \$0-op4-dec;
#X obj 178 123 r \$0-op4-sus;
#X obj 220 65 r \$0-op4-rel;
#X obj 262 94 r \$0-op4-freq;
#X obj 303 123 r \$0-op4-fine;
#X obj 345 65 r \$0-op4-lfo-am;
#X obj 387 94 r \$0-op4-lfo-fm;
#X obj 54 152 pack f f f f f f f f f, f 48;
#X msg 54 181 add2 op4 gain \$1 \, addcomma \, add2 op4 att \$2 \,
addcomma \, add2 op4 dec \$3 \, addcomma \, add2 op4 sus \$4 \, addcomma
\, add2 op4 rel \$5 \, addcomma \, add2 op4 freq \$6 \, addcomma \,
add2 op4 fine \$7 \, addcomma \, add2 op4 lfo am \$8 \, addcomma \,
add2 op4 lfo fm \$9 \, addcomma;
#X connect 0 0 12 0;
#X connect 1 0 0 0;
#X connect 3 0 0 1;
#X connect 4 0 12 1;
#X connect 5 0 12 2;
#X connect 6 0 12 3;
#X connect 7 0 12 4;
#X connect 8 0 12 5;
#X connect 9 0 12 6;
#X connect 10 0 12 7;
#X connect 11 0 12 8;
#X connect 12 0 13 0;
#X connect 13 0 2 0;
#X restore 200 175 pd op4;
#N canvas 0 50 669 300 lfo 0;
#X obj 54 60 f;
#X obj 54 7 inlet;
#X obj 54 206 outlet;
#X obj 72 36 r \$0-lfo-gain;
#X obj 87 65 r \$0-lfo-freq;
#X obj 54 134 pack f f f;
#X obj 121 94 r \$0-lfo-fm;
#X msg 54 163 add2 lfo gain \$1 \, addcomma \, add2 lfo freq \$2 \,
addcomma \, add2 lfo fm \$3 \, addcomma;
#X connect 0 0 5 0;
#X connect 1 0 0 0;
#X connect 3 0 0 1;
#X connect 4 0 5 1;
#X connect 5 0 7 0;
#X connect 6 0 5 2;
#X connect 7 0 2 0;
#X restore 143 175 pd lfo;
#N canvas 657 93 669 300 global 0;
#X obj 54 60 f;
#X obj 54 7 inlet;
#X obj 54 276 outlet;
#X obj 72 36 r \$0-poly;
#X obj 90 89 r \$0-legato;
#X obj 238 118 r \$0-alg;
#X obj 275 147 r \$0-out;
#X obj 164 147 r \$0-bendMode;
#X obj 201 89 r \$0-bendRange;
#X obj 127 118 r \$0-anticlick;
#X obj 54 176 pack f f f f f f f, f 32;
#X msg 54 205 add2 poly \$1 \, addcomma \, add2 legato \$2 \, addcomma
\, add2 anticlick \$3 \, addcomma \, add2 bendMode \$4 \, addcomma
\, add2 bendRange \$5 \, addcomma \, add2 alg \$6 \, addcomma \, add2
out \$7;
#X connect 0 0 10 0;
#X connect 1 0 0 0;
#X connect 3 0 0 1;
#X connect 4 0 10 1;
#X connect 5 0 10 5;
#X connect 6 0 10 6;
#X connect 7 0 10 3;
#X connect 8 0 10 4;
#X connect 9 0 10 2;
#X connect 10 0 11 0;
#X connect 11 0 2 0;
#X restore 66 175 pd global;
#X obj 66 59 t b b;
#X msg 98 88 set;
#X obj 66 204 s \$0-state;
#X connect 0 0 9 0;
#X connect 1 0 11 0;
#X connect 2 0 8 0;
#X connect 2 1 7 0;
#X connect 2 2 6 0;
#X connect 2 3 5 0;
#X connect 2 4 4 0;
#X connect 2 5 3 0;
#X connect 2 6 1 0;
#X connect 3 0 11 0;
#X connect 4 0 11 0;
#X connect 5 0 11 0;
#X connect 6 0 11 0;
#X connect 7 0 11 0;
#X connect 8 0 11 0;
#X connect 9 0 2 0;
#X connect 9 1 10 0;
#X connect 10 0 11 0;
#X restore 768 319 pd state;
#X msg 543 82 0;
#X obj 655 240 s \$0-alg-r;
#X obj 543 53 loadbang;
#X obj 599 182 s \$0-bendRange;
#X obj 542 240 s \$0-bendMode-r;
#X msg 578 82 2;
#X obj 373 158 != 0;
#X obj 429 158 != 0;
#X obj 542 158 != 0;
#X obj 825 358 s \$0-error;
#X obj 23 553 r \$0-error;
#X obj 23 577 bng 15 250 50 0 empty empty empty 17 7 0 10 #fcfcfc #000000
#000000;
#X msg 23 597 se recibió un mensaje desconocido;
#X obj 23 626 print dm7617~;
#X obj 486 158 != 0;
#X obj 373 182 change;
#X obj 429 182 change;
#X obj 486 182 change;
#X obj 542 182 change;
#X obj 655 216 change;
#X obj 486 211 s \$0-anticlick-r;
#X text 104 546 cuando la abstracción reciba un mensaje desconocido
\, se imprimirá un mensaje haciéndolo saber;
#X text 724 461 acá se manipulan los mensajes de control de la abstracción
\; se utiliza el objeto [route] para enviar el valor del mensaje a
su respectivo [send] \, que enviará el valor a su correspondiente
objeto de control en la interfaz (slider \, número \, etc... si lo
hubiera) y luego de ahí a donde se hará efectivo ese valor como parámetro
\; acá se inicializan también los valores por defecto de dichos parámetros
;
#X obj 373 129 route poly legato anticlick bendMode bendRange alg out
state, f 65;
#X connect 0 0 10 0;
#X connect 10 0 1 0;
#X connect 10 1 5 0;
#X connect 10 2 2 0;
#X connect 10 3 4 0;
#X connect 10 4 3 0;
#X connect 10 5 6 0;
#X connect 10 6 35 0;
#X connect 12 0 13 0;
#X connect 12 0 9 0;
#X connect 12 0 8 0;
#X connect 12 0 16 0;
#X connect 14 0 12 0;
#X connect 14 0 17 0;
#X connect 17 0 15 0;
#X connect 18 0 27 0;
#X connect 19 0 28 0;
#X connect 20 0 30 0;
#X connect 22 0 23 0;
#X connect 23 0 24 0;
#X connect 24 0 25 0;
#X connect 26 0 29 0;
#X connect 27 0 8 0;
#X connect 28 0 7 0;
#X connect 29 0 32 0;
#X connect 30 0 16 0;
#X connect 31 0 13 0;
#X connect 35 0 18 0;
#X connect 35 1 19 0;
#X connect 35 2 26 0;
#X connect 35 3 20 0;
#X connect 35 4 15 0;
#X connect 35 5 31 0;
#X connect 35 6 9 0;
#X connect 35 7 11 0;
#X connect 35 8 21 0;
#X restore 600 109 pd route-inlet-messages;
#X obj 36 287 vsl 10 39 0 100 0 0 \$0-op1-self-lfo-am \$0-op1-self-lfo-am-r
am 0 -9 0 10 #fc80c0 #fcfcfc #8080fc 0 1;
#X obj 77 265 cnv 2 1 59 empty \$0-bar empty 20 12 0 14 #8080fc #444444
0;
#X obj 625 414 outlet;
#X obj 625 385 r \$0-state;
#X obj 36 105 cnv 15 15 15 empty \$0-text att 0 6 0 10 #fcfcfc #8080fc
0;
#X obj 36 125 cnv 15 15 15 empty \$0-text dec 0 6 0 10 #fcfcfc #8080fc
0;
#X obj 36 145 cnv 15 15 15 empty \$0-text sus 0 6 0 10 #fcfcfc #8080fc
0;
#X obj 36 165 cnv 15 15 15 empty \$0-text rel 0 6 0 10 #fcfcfc #8080fc
0;
#X obj 21 185 cnv 15 15 15 empty \$0-text freq 0 6 0 10 #fcfcfc #8080fc
0;
#X obj 21 205 cnv 15 15 15 empty \$0-text fine 0 6 0 10 #fcfcfc #8080fc
0;
#X obj 128 107 vsl 10 70 0 100 0 0 \$0-op2-gain \$0-op2-gain-r op2:
0 -12 0 10 #fc80c0 #fcfcfc #8080fc 0 1;
#X obj 164 105 nbx 4 15 0 1e+37 0 0 \$0-op2-att \$0-op2-att-r ms 50
8 0 10 #fc80c0 #fcfcfc #8080fc 0 256;
#X obj 164 125 nbx 4 15 0 1e+37 0 0 \$0-op2-dec \$0-op2-dec-r ms 50
8 0 10 #fc80c0 #fcfcfc #8080fc 0 256;
#X obj 164 145 nbx 4 15 0 1e+37 0 0 \$0-op2-sus \$0-op2-sus-r % 50
8 0 10 #fc80c0 #fcfcfc #8080fc 0 256;
#X obj 164 165 nbx 4 15 0 1e+37 0 0 \$0-op2-rel \$0-op2-rel-r ms 50
8 0 10 #fc80c0 #fcfcfc #8080fc 0 256;
#X obj 157 205 nbx 5 15 -1e+37 1e+37 0 0 \$0-op2-fine \$0-op2-fine-r
empty 58 8 0 10 #fc80c0 #fcfcfc #8080fc 0 256;
#X obj 148 225 hsl 74 10 0 100 0 0 \$0-op2-lfo-am \$0-op2-lfo-am-r
am -20 4 0 10 #fc80c0 #fcfcfc #8080fc 0 1;
#X obj 229 97 cnv 2 1 145 empty \$0-bar empty 20 12 0 14 #8080fc #444444
0;
#X obj 157 185 nbx 4 15 -1e+37 1e+37 0 0 \$0-op2-freq \$0-op2-freq-r
empty 0 -8 0 10 #fc80c0 #fcfcfc #8080fc 0 256;
#X obj 143 105 cnv 15 15 15 empty \$0-text att 0 6 0 10 #fcfcfc #8080fc
0;
#X obj 143 125 cnv 15 15 15 empty \$0-text dec 0 6 0 10 #fcfcfc #8080fc
0;
#X obj 143 145 cnv 15 15 15 empty \$0-text sus 0 6 0 10 #fcfcfc #8080fc
0;
#X obj 143 165 cnv 15 15 15 empty \$0-text rel 0 6 0 10 #fcfcfc #8080fc
0;
#X obj 128 185 cnv 15 15 15 empty \$0-text freq 0 6 0 10 #fcfcfc #8080fc
0;
#X obj 128 205 cnv 15 15 15 empty \$0-text fine 0 6 0 10 #fcfcfc #8080fc
0;
#X obj 235 107 vsl 10 70 0 100 0 0 \$0-op3-gain \$0-op3-gain-r op3:
0 -12 0 10 #fc80c0 #fcfcfc #8080fc 0 1;
#X obj 271 105 nbx 4 15 0 1e+37 0 0 \$0-op3-att \$0-op3-att-r ms 50
8 0 10 #fc80c0 #fcfcfc #8080fc 0 256;
#X obj 271 125 nbx 4 15 0 1e+37 0 0 \$0-op3-dec \$0-op3-dec-r ms 50
8 0 10 #fc80c0 #fcfcfc #8080fc 0 256;
#X obj 271 145 nbx 4 15 0 1e+37 0 0 \$0-op3-sus \$0-op3-sus-r % 50
8 0 10 #fc80c0 #fcfcfc #8080fc 0 256;
#X obj 271 165 nbx 4 15 0 1e+37 0 0 \$0-op3-rel \$0-op3-rel-r ms 50
8 0 10 #fc80c0 #fcfcfc #8080fc 0 256;
#X obj 264 205 nbx 5 15 -1e+37 1e+37 0 0 \$0-op3-fine \$0-op3-fine-r
empty 58 8 0 10 #fc80c0 #fcfcfc #8080fc 0 256;
#X obj 255 238 hsl 74 10 0 100 0 0 \$0-op3-lfo-fm \$0-op3-lfo-fm-r
fm -20 4 0 10 #fc80c0 #fcfcfc #8080fc 0 1;
#X obj 337 97 cnv 2 1 145 empty \$0-bar empty 20 12 0 14 #8080fc #444444
0;
#X obj 264 185 nbx 4 15 -1e+37 1e+37 0 0 \$0-op3-freq \$0-op3-freq-r
empty 0 -8 0 10 #fc80c0 #fcfcfc #8080fc 0 256;
#X obj 250 105 cnv 15 15 15 empty \$0-text att 0 6 0 10 #fcfcfc #8080fc
0;
#X obj 250 125 cnv 15 15 15 empty \$0-text dec 0 6 0 10 #fcfcfc #8080fc
0;
#X obj 250 145 cnv 15 15 15 empty \$0-text sus 0 6 0 10 #fcfcfc #8080fc
0;
#X obj 250 165 cnv 15 15 15 empty \$0-text rel 0 6 0 10 #fcfcfc #8080fc
0;
#X obj 235 185 cnv 15 15 15 empty \$0-text freq 0 6 0 10 #fcfcfc #8080fc
0;
#X obj 235 205 cnv 15 15 15 empty \$0-text fine 0 6 0 10 #fcfcfc #8080fc
0;
#X obj 343 107 vsl 10 70 0 100 0 0 \$0-op4-gain \$0-op4-gain-r op4:
0 -12 0 10 #fc80c0 #fcfcfc #8080fc 0 1;
#X obj 379 105 nbx 4 15 0 1e+37 0 0 \$0-op4-att \$0-op4-att-r ms 50
8 0 10 #fc80c0 #fcfcfc #8080fc 0 256;
#X obj 379 125 nbx 4 15 0 1e+37 0 0 \$0-op4-dec \$0-op4-dec-r ms 50
8 0 10 #fc80c0 #fcfcfc #8080fc 0 256;
#X obj 379 145 nbx 4 15 0 1e+37 0 0 \$0-op4-sus \$0-op4-sus-r % 50
8 0 10 #fc80c0 #fcfcfc #8080fc 0 256;
#X obj 379 165 nbx 4 15 0 1e+37 0 0 \$0-op4-rel \$0-op4-rel-r ms 50
8 0 10 #fc80c0 #fcfcfc #8080fc 0 256;
#X obj 372 205 nbx 5 15 -1e+37 1e+37 0 0 \$0-op4-fine \$0-op4-fine-r
empty 58 8 0 10 #fc80c0 #fcfcfc #8080fc 0 256;
#X obj 363 225 hsl 74 10 0 100 0 0 \$0-op4-lfo-am \$0-op4-lfo-am-r
am -20 4 0 10 #fc80c0 #fcfcfc #8080fc 0 1;
#X obj 372 185 nbx 4 15 -1e+37 1e+37 0 0 \$0-op4-freq \$0-op4-freq-r
empty 0 -8 0 10 #fc80c0 #fcfcfc #8080fc 0 256;
#X obj 358 105 cnv 15 15 15 empty \$0-text att 0 6 0 10 #fcfcfc #8080fc
0;
#X obj 358 125 cnv 15 15 15 empty \$0-text dec 0 6 0 10 #fcfcfc #8080fc
0;
#X obj 358 145 cnv 15 15 15 empty \$0-text sus 0 6 0 10 #fcfcfc #8080fc
0;
#X obj 358 165 cnv 15 15 15 empty \$0-text rel 0 6 0 10 #fcfcfc #8080fc
0;
#X obj 343 185 cnv 15 15 15 empty \$0-text freq 0 6 0 10 #fcfcfc #8080fc
0;
#X obj 343 205 cnv 15 15 15 empty \$0-text fine 0 6 0 10 #fcfcfc #8080fc
0;
#X obj 83 262 cnv 10 30 6 empty \$0-text voices: 1 2 0 10 #fcfcfc #8080fc
0;
#X obj 183 265 cnv 2 1 59 empty \$0-bar empty 20 12 0 14 #8080fc #444444
0;
#X obj 189 273 vsl 10 53 0 100 0 0 \$0-lfo-gain \$0-lfo-gain-r lfo
0 -9 0 10 #fc80c0 #fcfcfc #8080fc 0 1;
#X obj 204 292 cnv 15 15 15 empty \$0-text freq 0 6 0 10 #fcfcfc #8080fc
0;
#X obj 290 265 cnv 2 1 59 empty \$0-bar empty 20 12 0 14 #8080fc #444444
0;
#X obj 296 262 cnv 15 20 6 empty \$0-text alg: 1 2 0 10 #fcfcfc #8080fc
0;
#X obj 382 265 cnv 2 1 59 empty \$0-bar empty 20 12 0 14 #8080fc #444444
0;
#N canvas -8 -8 1366 685 help 0;
#X obj 38 150 cnv 15 525 274 empty empty empty 20 12 0 14 #c4c4fc #404040
0;
#X obj 38 649 cnv 15 519 244 empty empty empty 20 12 0 14 #c4c4fc #404040
0;
#X msg 48 665 poly \$1;
#X msg 48 699 legato \$1;
#X msg 48 767 steal \$1;
#X msg 48 801 bendMode \$1;
#X msg 48 835 bendRange \$1;
#X msg 48 864 out \$1;
#X text 35 126 INLET 1:;
#X text 35 23 INLET 0:;
#X obj 38 47 cnv 15 281 63 empty empty empty 20 12 0 14 #c4c4fc #404040
0;
#X msg 48 57 \$1 \$2;
#X msg 48 81 bend \$1;
#X obj 624 47 cnv 15 135 39 empty empty empty 20 12 0 14 #c4fcfc #404040
0;
#X text 621 23 OUTLET 0:;
#X obj 634 57 sig~;
#X obj 624 126 cnv 15 499 105 empty empty empty 20 12 0 14 #c4fcfc
#404040 0;
#X msg 634 142 set foo;
#X obj 624 428 cnv 15 441 88 empty empty empty 20 12 0 14 #fcc4c4 #404040
0;
#X text 621 102 OUTLET 1:;
#X msg 48 183 opN gain \$1;
#X msg 48 212 opN att \$1;
#X msg 48 241 opN dec \$1;
#X msg 48 299 opN rel \$1;
#X msg 48 270 opN sus \$1;
#X msg 48 328 opN freq \$1;
#X msg 48 362 opN fine \$1;
#X msg 48 391 opN lfo \$1;
#X obj 38 435 cnv 15 491 74 empty empty empty 20 12 0 14 #c4c4fc #404040
0;
#X msg 48 451 op1_self fine \$1;
#X msg 48 480 op1_self lfo \$1;
#X obj 38 520 cnv 15 281 68 empty empty empty 20 12 0 14 #c4c4fc #404040
0;
#X msg 48 530 lfo gain \$1;
#X msg 48 559 lfo freq \$1;
#X obj 38 599 cnv 15 253 39 empty empty empty 20 12 0 14 #c4c4fc #404040
0;
#X msg 48 609 alg \$1;
#X obj 38 901 cnv 15 497 39 empty empty empty 20 12 0 14 #c4c4fc #404040
0;
#X msg 48 911 state \$1;
#X text 95 57 mensaje midi (nota y velocity);
#X text 109 81 pitch bend (de 0 a 16383);
#X text 46 159 ***donde N representa op1 \, op2 \, op3 u op4***;
#X text 137 183 ganancia del operador (0-100 como porcentaje);
#X text 129 212 tiempo de ataque en ms;
#X text 129 241 tiempo de decaimiento en ms;
#X text 129 270 valor de sostenimiento (0-100 como porcentaje);
#X text 129 299 tiempo de relajación en ms;
#X text 135 321 la frecuencia del operador será el producto de este
valor y la frecuencia de la nota actual;
#X text 136 362 fine-tuning en cents;
#X text 129 384 cantidad (0-100 como porcentaje) del lfo que alterará
al operador;
#X text 171 444 ganancia de la automodulación del op1 (0-100 como
porcentaje);
#X text 164 480 igual que [opN lfo \$1(;
#X text 137 530 igual que [opN gain \$1(;
#X text 137 559 frecuencia del lfo en hz;
#X text 101 609 elegir el algoritmo (0-7);
#X text 137 794 pitch bend afecta a todas las notas o sólo a la última
(distinto de cero y 0 respectivamente);
#X text 674 57 canal mono;
#X text 695 135 donde foo representa una lista de todos los parámetros
correctamente formateados para ser enviados de vuelta a la abstracción
\, en otras palabras \, conectar esta salida a un mensaje y cuando
la abstracción reciba el mensaje [state(] \, se guardará el estado
actual de la abstracción (tener en cuenta que el mensaje se vaciará
antes de escribir en él);
#X text 623 404 CUIDADO:;
#X text 631 437 -en modo monofónico \, bendMode debe ser global \,
de lo contrario es posible que no tenga ningún efecto;
#X text 631 476 -en modo polifónico el legato debe apagarse \, de
lo contrario algunas voces pueden no sonar en absoluto;
#X text 115 911 escribir un mensaje con el estado actual de la abstracción
;
#X text 143 828 rango del pitch bend (hacia arriba o hacia abajo) en
semitonos (por defecto 2);
#X text 109 658 elegir entre modo polifónico de 16 voces o monofónico
(distinto de cero y 0 respectivamente) (por defecto 0);
#X msg 48 733 anticlick \$1;
#X text 123 692 usar o no legato (distinto de cero y 0 respectivamente)
(por defecto 0);
#X text 102 864 ganancia de salida en dB (por defecto 0);
#X text 116 760 usar o no voice-stealing (distinto de cero y 0 respectivamente)
;
#X text 144 726 usar o no usar anticlick (distinto de cero y 0 respectivamente)
(por defecto 0) (consultar objeto adsr~);
#X obj 623 311 cnv 15 385 63 empty empty empty 20 12 0 14 #fcc4c4 #404040
0;
#X text 622 287 DEPENDENCIAS:;
#X text 630 320 -para que la abstracción funcione debe instalarse
la abstracción [adsr~] (https://github.com/teaecetyrannis/pd-adsr)
;
#X connect 2 0 3 0;
#X connect 3 0 63 0;
#X connect 4 0 5 0;
#X connect 5 0 6 0;
#X connect 6 0 7 0;
#X connect 11 0 12 0;
#X connect 20 0 21 0;
#X connect 21 0 22 0;
#X connect 22 0 24 0;
#X connect 23 0 25 0;
#X connect 24 0 23 0;
#X connect 25 0 26 0;
#X connect 26 0 27 0;
#X connect 29 0 30 0;
#X connect 32 0 33 0;
#X connect 63 0 4 0;
#X restore 1286 648 pd help;
#N canvas -8 -8 1366 685 switch 0;
#X obj 209 138 symbol;
#X msg 209 167 label \$1;
#X msg 12 138 1;
#X msg 44 138 0;
#X obj 12 80 t b b;
#X obj 12 109 delay 10;
#X obj 12 41 r \$0-poly;
#X obj 209 196 s \$0-poly-r;
#X msg 209 109 mono;
#X msg 249 109 poly;
#X obj 209 80 sel 0, f 12;
#X obj 12 259 outlet;
#X obj 12 177 list prepend switch;
#X text 285 141 cambiar label del objeto de control de polifonía;
#X text 11 293 envía un mensaje noteoff a todas las voces;
#X connect 0 0 1 0;
#X connect 1 0 7 0;
#X connect 2 0 12 0;
#X connect 3 0 12 0;
#X connect 4 0 5 0;
#X connect 4 1 3 0;
#X connect 5 0 2 0;
#X connect 6 0 10 0;
#X connect 6 0 4 0;
#X connect 8 0 0 0;
#X connect 9 0 0 0;
#X connect 10 0 8 0;
#X connect 10 1 9 0;
#X connect 12 0 11 0;
#X restore 966 249 pd switch;
#X f 11;
#X text 426 11 probablemente el parche más feo del proyecto \, es
la lógia detrás del gráfico del ruteo del algoritmo seleccionado
;
#X text 566 170 en los subparches de abajo se reciben los parámetros
relacionados al sintetizador \, se los opera matemáticamente de ser
necesario \, y luego se formatean apropiadamente como mensajes para
ser recibidos por todas las instancias del [clone];
#X obj 329 279 cnv 10 10 10 empty \$0-route-op2 2 3 5 0 10 #8080fc
#fcfcfc 0;
#X obj 329 296 cnv 10 10 10 empty \$0-route-op3 3 3 5 0 10 #8080fc
#fcfcfc 0;
#X obj 329 313 cnv 10 10 10 empty \$0-route-op4 4 3 5 0 10 #8080fc
#fcfcfc 0;
#X obj 329 262 cnv 10 10 10 empty \$0-route-op1 1 3 5 0 10 #8080fc
#fcfcfc 0;
#X obj 83 304 tgl 10 0 \$0-anticlick \$0-anticlick-r anticlick 15 4
0 10 #fc80c0 #fcfcfc #8080fc 0 1;
#X obj 41 238 hsl 74 10 0 100 0 0 \$0-op1-lfo-fm \$0-op1-lfo-fm-r fm
-20 4 0 10 #fc80c0 #fcfcfc #8080fc 0 1;
#X obj 148 238 hsl 74 10 0 100 0 0 \$0-op2-lfo-fm \$0-op2-lfo-fm-r
fm -20 4 0 10 #fc80c0 #fcfcfc #8080fc 0 1;
#X obj 255 225 hsl 74 10 0 100 0 0 \$0-op3-lfo-am \$0-op3-lfo-am-r
am -20 4 0 10 #fc80c0 #fcfcfc #8080fc 0 1;
#X obj 363 238 hsl 74 10 0 100 0 0 \$0-op4-lfo-fm \$0-op4-lfo-fm-r
fm -20 4 0 10 #fc80c0 #fcfcfc #8080fc 0 1;
#X obj 51 287 vsl 10 39 0 100 0 0 \$0-op1-self-lfo-fm \$0-op1-self-lfo-fm-r
fm 0 -9 0 10 #fc80c0 #fcfcfc #8080fc 0 1;
#X text 925 291 sintetizador fm basado en el chip ym2612 \, cuenta
con las mismas prestaciones: \; -4 operadores \; -envolventes para
cada operador \; -automodulación del primer operador \; -7 algoritmos
idénticos a los del ym2612 \; -un lfo con capacidad de modular independientemente
y a cierto grado la amplitud y/o frecuencia de cada operador \; \;
cuenta también con algunas diferencias: \; -ganancia global del lfo
\; -la frecuencia del lfo \, el grado de am y el de fm pueden ser cualquier
valor en vez de una serie de valores fijos \; -posibilidad de modular
mediante lfo la copia del operador 1 independientemente de la modulación
de éste \; -fine-tuning para la frecuencia de cada operador \; -polifonía
de 16 voces \; -legato \; -pitch bend configurable \; \; la documentación
utilizada para el desarrollo del sintetizador es una restauración
del manual técnico de la consola sega mega drive y se puede encontrar
en https://www.smspower.org/maxim/Documents/YM2612 \; \; dylan martin
;
#X obj 215 312 cnv 15 15 15 empty \$0-text fm 0 6 0 10 #fcfcfc #8080fc
0;
#X obj 233 312 nbx 3 15 0 1e+37 0 0 \$0-lfo-fm \$0-lfo-fm-r c 41 8
0 10 #fc80c0 #fcfcfc #8080fc 0 256;
#N canvas 0 50 450 300 targetall 0;
#X obj 21 130 outlet;
#X obj 21 91 list trim;
#X obj 21 67 list prepend all;
#X obj 21 28 inlet;
#X connect 1 0 0 0;
#X connect 2 0 1 0;
#X connect 3 0 2 0;
#X restore 650 298 pd targetall;
#X obj 485 327 clone ./dm7617-voice~ 16;
#X connect 0 0 36 0;
#X connect 1 0 117 0;
#X connect 24 0 0 1;
#X connect 25 0 117 0;
#X connect 26 0 117 0;
#X connect 27 0 117 0;
#X connect 28 0 118 0;
#X connect 29 0 117 0;
#X connect 34 0 117 0;
#X connect 35 0 28 0;
#X connect 37 0 38 0;
#X connect 42 0 41 0;
#X connect 101 0 117 0;
#X connect 117 0 118 1;
#X connect 118 0 0 0;
#X coords 0 -1 1 1 430 255 2 15 83;
