#N canvas -8 -8 1366 685 12;
#X obj 12 101 inlet;
#X obj 86 188 swap;
#X obj 12 227 f;
#X obj 317 269 *~;
#X obj 317 376 s~ \$0-op1out;
#X obj 317 494 outlet~;
#X obj 443 269 *~;
#X obj 571 376 s~ \$0-op2out;
#X obj 698 376 s~ \$0-op3out;
#X obj 825 376 s~ \$0-op4out;
#N canvas 621 0 650 676 lfo 0;
#X obj 12 51 route lfo;
#X obj 12 80 osc~;
#X obj 12 201 *~;
#X obj 12 240 +~;
#X obj 54 109 route lfo;
#X obj 12 23 r \$0-freq;
#X obj 54 80 r \$0-gain;
#X obj 30 167 line~;
#X msg 30 138 \$1 1;
#X text 163 175 la ganancia (número entre 0 y 1) multiplica la señal
del lfo \, y a la señal resultante se le suma 1-ganancia para producir
una señal cuyo valor máximo sea siempre 1 (si no se hiciera esto
\, darle una ganancia de 0 apagaria la señal a la cual se rutea el
lfo en vez de simplemente no afectarla);
#X obj 12 279 s~ \$0-lfoout-am;
#X obj 131 279 s~ \$0-lfoout-fm;
#X obj 79 201 -~;
#X obj 79 148 loadbang;
#X msg 79 172 1;
#X connect 0 0 1 0;
#X connect 1 0 2 0;
#X connect 2 0 3 0;
#X connect 2 0 11 0;
#X connect 3 0 10 0;
#X connect 4 0 8 0;
#X connect 5 0 0 0;
#X connect 6 0 4 0;
#X connect 7 0 2 1;
#X connect 7 0 12 1;
#X connect 8 0 7 0;
#X connect 12 0 3 1;
#X connect 13 0 14 0;
#X connect 14 0 12 0;
#X restore 251 337 pd lfo;
#X obj 571 269 *~;
#X obj 698 269 *~;
#X obj 825 269 *~;
#X obj 166 13 inlet;
#X obj 166 71 s \$0-alg;
#X obj 215 100 s \$0-adsr;
#X obj 265 71 s \$0-fine;
#X obj 314 100 s \$0-gain;
#X obj 364 71 s \$0-freq;
#X obj 86 314 s \$0-vel;
#X obj 86 285 / 127;
#X obj 12 159 route bend, f 11;
#N canvas -8 -8 1366 685 switch 0;
#X text 270 69 este subparche recibe todas las señales carriers \,
si dicha suma es igual a 0 entonces el dsp de esta voz se apaga hasta
recibir la próxima nota midi;
#X obj 82 42 inlet~;
#X obj 82 119 snapshot~;
#X obj 159 46 loadbang;
#X obj 159 70 tgl 15 0 empty empty empty 17 7 0 10 #fcfcfc #000000
#000000 0 1;
#X obj 12 42 r \$0-vel;
#X msg 12 192 1;
#X msg 82 192 0;
#X obj 82 163 sel 0;
#X obj 159 90 metro 500;
#X obj 12 245 change;
#X obj 12 119 sel 0;
#X obj 82 216 spigot, f 9;
#X msg 142 197 1;
#X msg 167 197 0;
#X obj 142 173 delay 10;
#X obj 142 148 bng 15 250 50 0 empty empty empty 17 7 0 10 #fcfcfc
#000000 #000000;
#X obj 12 269 outlet;
#X connect 1 0 2 0;
#X connect 2 0 8 0;
#X connect 3 0 4 0;
#X connect 4 0 9 0;
#X connect 5 0 11 0;
#X connect 6 0 10 0;
#X connect 7 0 12 0;
#X connect 8 0 7 0;
#X connect 9 0 2 0;
#X connect 10 0 17 0;
#X connect 11 1 16 0;
#X connect 11 1 6 0;
#X connect 12 0 10 0;
#X connect 13 0 12 1;
#X connect 14 0 12 1;
#X connect 15 0 13 0;
#X connect 16 0 14 0;
#X connect 16 0 15 0;
#X restore 240 494 pd switch;
#N canvas 846 0 450 676 adsr-op4 0;
#X obj 79 80 r \$0-adsr;
#X obj 12 177 outlet~;
#X obj 12 109 r \$0-vel;
#X obj 79 109 route op4 op1 op2 op3;
#X obj 12 138 dym/adsr~, f 10;
#X connect 0 0 3 0;
#X connect 2 0 4 0;
#X connect 3 0 4 1;
#X connect 3 4 4 1;
#X connect 4 0 1 0;
#X restore 843 230 pd adsr-op4;
#N canvas 846 0 450 676 adsr-op3 0;
#X obj 79 80 r \$0-adsr;
#X obj 12 187 outlet~;
#X obj 12 119 r \$0-vel;
#X obj 79 119 route op3 op1 op2 op4;
#X obj 12 148 dym/adsr~, f 10;
#X connect 0 0 3 0;
#X connect 2 0 4 0;
#X connect 3 0 4 1;
#X connect 3 4 4 1;
#X connect 4 0 1 0;
#X restore 716 230 pd adsr-op3;
#N canvas 846 0 450 676 adsr-op2 0;
#X obj 79 80 r \$0-adsr;
#X obj 12 187 outlet~;
#X obj 12 119 r \$0-vel;
#X obj 79 119 route op2 op1 op3 op4;
#X obj 12 148 dym/adsr~, f 10;
#X connect 0 0 3 0;
#X connect 2 0 4 0;
#X connect 3 0 4 1;
#X connect 3 4 4 1;
#X connect 4 0 1 0;
#X restore 589 230 pd adsr-op2;
#N canvas 846 0 450 676 adsr-op1 0;
#X obj 79 80 r \$0-adsr;
#X obj 12 187 outlet~;
#X obj 12 119 r \$0-vel;
#X obj 79 119 route op1 op2 op3 op4;
#X obj 12 148 dym/adsr~, f 10;
#X connect 0 0 3 0;
#X connect 2 0 4 0;
#X connect 3 0 4 1;
#X connect 3 4 4 1;
#X connect 4 0 1 0;
#X restore 335 230 pd adsr-op1;
#N canvas 0 0 366 676 gain-op4 0;
#X obj 12 11 inlet~;
#X obj 12 205 outlet~;
#X obj 12 166 *~;
#X obj 30 79 route op4;
#X obj 30 137 line~;
#X msg 30 108 \$1 1;
#X obj 30 50 r \$0-gain;
#X connect 0 0 2 0;
#X connect 2 0 1 0;
#X connect 3 0 5 0;
#X connect 4 0 2 1;
#X connect 5 0 4 0;
#X connect 6 0 3 0;
#X restore 825 298 pd gain-op4;
#N canvas 37 0 374 676 gain-op3 0;
#X obj 12 12 inlet~;
#X obj 12 328 outlet~;
#X obj 12 289 *~;
#X obj 30 69 r \$0-alg;
#X obj 100 41 route op3;
#X obj 30 138 sel 5 6 7;
#X obj 100 12 r \$0-gain;
#X obj 30 202 f;
#X obj 30 177 bng 15 250 50 0 empty empty empty 17 7 0 10 #fcfcfc #000000
#000000;
#X obj 65 202 f;
#X obj 65 177 bng 15 250 50 0 empty empty empty 17 7 0 10 #fcfcfc #000000
#000000;
#X obj 30 260 line~;
#X msg 30 231 \$1 1;
#X obj 30 109 f;
#X obj 100 70 t b f;
#X obj 132 128 *;
#X obj 150 99 r \$0-modMap;
#X text 109 193 de acuerdo al algoritmo seleccionado \, la ganancia
del operador (entre 0 y 1) será multiplicada por el valor modMap en
caso de ser modulador y no será alterada en caso de ser carrier;
#X connect 0 0 2 0;
#X connect 2 0 1 0;
#X connect 3 0 13 0;
#X connect 4 0 14 0;
#X connect 5 0 8 0;
#X connect 5 1 8 0;
#X connect 5 2 8 0;
#X connect 5 3 10 0;
#X connect 6 0 4 0;
#X connect 7 0 12 0;
#X connect 8 0 7 0;
#X connect 9 0 12 0;
#X connect 10 0 9 0;
#X connect 11 0 2 1;
#X connect 12 0 11 0;
#X connect 13 0 5 0;
#X connect 14 0 13 0;
#X connect 14 1 7 1;
#X connect 14 1 15 0;
#X connect 15 0 9 1;
#X connect 16 0 15 1;
#X restore 698 298 pd gain-op3;
#N canvas -8 -8 1366 685 gain-op2 0;
#X obj 12 12 inlet~;
#X obj 12 328 outlet~;
#X obj 12 289 *~;
#X obj 30 70 r \$0-alg;
#X obj 100 41 route op2;
#X obj 30 138 sel 4 5 6 7;
#X obj 100 12 r \$0-gain;
#X obj 30 202 f;
#X obj 30 177 bng 15 250 50 0 empty empty empty 17 7 0 10 #fcfcfc #000000
#000000;
#X obj 65 202 f;
#X obj 65 177 bng 15 250 50 0 empty empty empty 17 7 0 10 #fcfcfc #000000
#000000;
#X obj 30 260 line~;
#X msg 30 231 \$1 1;
#X obj 30 109 f;
#X obj 100 70 t b f;
#X obj 132 99 *;
#X obj 150 70 r \$0-modMap;
#X text 104 181 de acuerdo al algoritmo seleccionado \, la ganancia
del operador (entre 0 y 1) será multiplicada por el valor modMap en
caso de ser modulador y no será alterada en caso de ser carrier;
#X connect 0 0 2 0;
#X connect 2 0 1 0;
#X connect 3 0 13 0;
#X connect 4 0 14 0;
#X connect 5 0 8 0;
#X connect 5 1 8 0;
#X connect 5 2 8 0;
#X connect 5 3 8 0;
#X connect 5 4 10 0;
#X connect 6 0 4 0;
#X connect 7 0 12 0;
#X connect 8 0 7 0;
#X connect 9 0 12 0;
#X connect 10 0 9 0;
#X connect 11 0 2 1;
#X connect 12 0 11 0;
#X connect 13 0 5 0;
#X connect 14 0 13 0;
#X connect 14 1 7 1;
#X connect 14 1 15 0;
#X connect 15 0 9 1;
#X connect 16 0 15 1;
#X restore 571 298 pd gain-op2;
#N canvas -8 -8 1366 685 gain-op1 0;
#X obj 12 12 inlet~;
#X obj 12 328 outlet~;
#X obj 12 289 *~;
#X obj 100 41 route op1;
#X obj 30 70 r \$0-alg;
#X obj 30 138 sel 7;
#X obj 100 12 r \$0-gain;
#X obj 30 192 f;
#X obj 65 192 f;
#X obj 30 167 bng 15 250 50 0 empty empty empty 17 7 0 10 #fcfcfc #000000
#000000;
#X obj 65 167 bng 15 250 50 0 empty empty empty 17 7 0 10 #fcfcfc #000000
#000000;
#X obj 30 250 line~;
#X msg 30 221 \$1 1;
#X obj 30 109 f;
#X obj 100 70 t b f;
#X obj 132 99 *;
#X obj 150 70 r \$0-modMap;
#X text 107 170 de acuerdo al algoritmo seleccionado \, la ganancia
del operador (entre 0 y 1) será multiplicada por el valor modMap en
caso de ser modulador y no será alterada en caso de ser carrier;
#X connect 0 0 2 0;
#X connect 2 0 1 0;
#X connect 3 0 14 0;
#X connect 4 0 13 0;
#X connect 5 0 9 0;
#X connect 5 1 10 0;
#X connect 6 0 3 0;
#X connect 7 0 12 0;
#X connect 8 0 12 0;
#X connect 9 0 7 0;
#X connect 10 0 8 0;
#X connect 11 0 2 1;
#X connect 12 0 11 0;
#X connect 13 0 5 0;
#X connect 14 0 13 0;
#X connect 14 1 7 1;
#X connect 14 1 15 0;
#X connect 15 0 8 1;
#X connect 16 0 15 1;
#X restore 317 298 pd gain-op1;
#N canvas 1 0 1365 685 carriers 0;
#X obj 472 278 outlet~;
#X obj 92 15 r \$0-alg;
#X obj 74 83 r~ \$0-op1out;
#X obj 192 83 r~ \$0-op2out;
#X obj 339 83 r~ \$0-op3out;
#X obj 472 83 r~ \$0-op4out;
#X obj 92 170 line~;
#X msg 92 141 1 5;
#X msg 124 141 0 5;
#X obj 74 199 *~;
#X obj 210 170 line~;
#X msg 210 141 1 5;
#X msg 284 141 0 5;
#X obj 192 199 *~;
#X obj 210 112 sel 4 5 6 7;
#X obj 92 112 sel 7;
#X obj 357 170 line~;
#X msg 357 141 1 5;
#X msg 417 141 0 5;
#X obj 339 199 *~;
#X obj 357 112 sel 5 6 7;
#X connect 1 0 15 0;
#X connect 1 0 14 0;
#X connect 1 0 20 0;
#X connect 2 0 9 0;
#X connect 3 0 13 0;
#X connect 4 0 19 0;
#X connect 5 0 0 0;
#X connect 6 0 9 1;
#X connect 7 0 6 0;
#X connect 8 0 6 0;
#X connect 9 0 0 0;
#X connect 10 0 13 1;
#X connect 11 0 10 0;
#X connect 12 0 10 0;
#X connect 13 0 0 0;
#X connect 14 0 11 0;
#X connect 14 1 11 0;
#X connect 14 2 11 0;
#X connect 14 3 11 0;
#X connect 14 4 12 0;
#X connect 15 0 7 0;
#X connect 15 1 8 0;
#X connect 16 0 19 1;
#X connect 17 0 16 0;
#X connect 18 0 16 0;
#X connect 19 0 0 0;
#X connect 20 0 17 0;
#X connect 20 1 17 0;
#X connect 20 2 17 0;
#X connect 20 3 18 0;
#X restore 317 455 pd carriers;
#N canvas -8 -8 1366 685 op1 0;
#X obj 52 138 pow;
#X obj 17 70 loadbang;
#X msg 52 99 2;
#X obj 34 381 +~;
#X obj 34 420 osc~;
#X obj 34 459 outlet~;
#X obj 87 245 route op1;
#X obj 87 41 route op1;
#X obj 87 70 / 12;
#X obj 87 99 t b f;
#X obj 87 216 r \$0-freq;
#X obj 87 12 r \$0-fine;
#X obj 87 138 r \$0-note;
#X obj 52 216 *;
#X obj 52 313 * 1;
#X obj 87 177 t b f;
#X obj 87 274 t b f;
#X obj 34 352 r~ \$0-op1-selfout;
#X obj 185 270 r \$0-lfo-fm;
#X obj 185 294 route op1;
#X obj 167 352 *~;
#X text 262 343 la frecuencia es modulada por "sí misma" (en realidad
se trata de una copia del operador \, un oscilador aparte) y por la
lfo;
#X obj 167 323 r~ \$0-lfoout-fm;
#X connect 0 0 13 0;
#X connect 1 0 2 0;
#X connect 2 0 0 0;
#X connect 3 0 4 0;
#X connect 4 0 5 0;
#X connect 6 0 16 0;
#X connect 7 0 8 0;
#X connect 8 0 9 0;
#X connect 9 0 0 0;
#X connect 9 1 0 1;
#X connect 10 0 6 0;
#X connect 11 0 7 0;
#X connect 12 0 15 0;
#X connect 13 0 14 0;
#X connect 14 0 3 1;
#X connect 15 0 13 0;
#X connect 15 1 13 1;
#X connect 16 0 14 0;
#X connect 16 1 14 1;
#X connect 17 0 3 0;
#X connect 18 0 19 0;
#X connect 19 0 20 1;
#X connect 20 0 3 0;
#X connect 22 0 20 0;
#X restore 317 191 pd op1;
#N canvas -8 -8 1366 685 op2 0;
#X obj 159 138 pow;
#X obj 124 70 loadbang;
#X msg 159 99 2;
#X obj 141 332 +~;
#X obj 141 361 osc~;
#X obj 141 400 outlet~;
#X obj 36 172 r \$0-alg;
#X obj 194 70 / 12;
#X obj 194 99 t b f;
#X obj 18 148 r~ \$0-op1out;
#X obj 194 225 route op2;
#X obj 194 41 route op2;
#X obj 194 196 r \$0-freq;
#X obj 194 12 r \$0-fine;
#X obj 194 138 r \$0-note;
#X obj 194 167 t b f;
#X obj 194 254 t b f;
#X obj 159 196 *;
#X obj 159 293 * 1;
#X obj 289 201 r \$0-lfo-fm;
#X obj 271 283 *~;
#X text 179 325 la frecuencia es modulada por la lfo y también por
el operador 1 de acuerdo al algoritmo seleccionado;
#X obj 289 225 route op2;
#X obj 271 254 r~ \$0-lfoout-fm;
#X obj 36 254 line~;
#X msg 36 225 1 5;
#X msg 124 225 0 5;
#X obj 18 283 *~;
#X obj 36 196 sel 0 3 4 5 6;
#X connect 0 0 17 0;
#X connect 1 0 2 0;
#X connect 2 0 0 0;
#X connect 3 0 4 0;
#X connect 4 0 5 0;
#X connect 6 0 28 0;
#X connect 7 0 8 0;
#X connect 8 0 0 0;
#X connect 8 1 0 1;
#X connect 9 0 27 0;
#X connect 10 0 16 0;
#X connect 11 0 7 0;
#X connect 12 0 10 0;
#X connect 13 0 11 0;
#X connect 14 0 15 0;
#X connect 15 0 17 0;
#X connect 15 1 17 1;
#X connect 16 0 18 0;
#X connect 16 1 18 1;
#X connect 17 0 18 0;
#X connect 18 0 3 1;
#X connect 19 0 22 0;
#X connect 20 0 3 0;
#X connect 22 0 20 1;
#X connect 23 0 20 0;
#X connect 24 0 27 1;
#X connect 25 0 24 0;
#X connect 26 0 24 0;
#X connect 27 0 3 0;
#X connect 28 0 25 0;
#X connect 28 1 25 0;
#X connect 28 2 25 0;
#X connect 28 3 25 0;
#X connect 28 4 25 0;
#X connect 28 5 26 0;
#X restore 571 191 pd op2;
#N canvas -8 -8 1366 685 op3 0;
#X obj 306 136 pow;
#X obj 271 68 loadbang;
#X msg 306 97 2;
#X obj 288 350 +~;
#X obj 288 379 osc~;
#X obj 288 418 outlet~;
#X obj 179 151 r \$0-alg;
#X obj 341 68 / 12;
#X obj 341 97 t b f;
#X obj 43 190 r~ \$0-op1out;
#X obj 341 233 route op3;
#X obj 341 39 route op3;
#X obj 161 190 r~ \$0-op2out;
#X obj 341 204 r \$0-freq;
#X obj 341 10 r \$0-fine;
#X obj 341 136 r \$0-note;
#X obj 341 165 t b f;
#X obj 341 262 t b f;
#X obj 306 301 * 1;
#X obj 306 204 *;
#X text 318 338 la frecuencia es modulada por la lfo y también por
los operadores 1 y 2 de acuerdo al algoritmo seleccionado;
#X obj 438 209 r \$0-lfo-fm;
#X obj 420 291 *~;
#X obj 438 233 route op3;
#X obj 420 262 r~ \$0-lfoout-fm;
#X obj 61 272 line~;
#X msg 61 243 1 5;
#X msg 107 243 0 5;
#X obj 43 301 *~;
#X obj 179 272 line~;
#X msg 179 243 1 5;
#X msg 239 243 0 5;
#X obj 161 301 *~;
#X obj 61 214 sel 1 5;
#X obj 179 214 sel 0 1 2;
#X connect 0 0 19 0;
#X connect 1 0 2 0;
#X connect 2 0 0 0;
#X connect 3 0 4 0;
#X connect 4 0 5 0;
#X connect 6 0 33 0;
#X connect 6 0 34 0;
#X connect 7 0 8 0;
#X connect 8 0 0 0;
#X connect 8 1 0 1;
#X connect 9 0 28 0;
#X connect 10 0 17 0;
#X connect 11 0 7 0;
#X connect 12 0 32 0;
#X connect 13 0 10 0;
#X connect 14 0 11 0;
#X connect 15 0 16 0;
#X connect 16 0 19 0;
#X connect 16 1 19 1;
#X connect 17 0 18 0;
#X connect 17 1 18 1;
#X connect 18 0 3 1;
#X connect 19 0 18 0;
#X connect 21 0 23 0;
#X connect 22 0 3 0;
#X connect 23 0 22 1;
#X connect 24 0 22 0;
#X connect 25 0 28 1;
#X connect 26 0 25 0;
#X connect 27 0 25 0;
#X connect 28 0 3 0;
#X connect 29 0 32 1;
#X connect 30 0 29 0;
#X connect 31 0 29 0;
#X connect 32 0 3 0;
#X connect 33 0 26 0;
#X connect 33 1 26 0;
#X connect 33 2 27 0;
#X connect 34 0 30 0;
#X connect 34 1 30 0;
#X connect 34 2 30 0;
#X connect 34 3 31 0;
#X restore 698 191 pd op3;
#N canvas -8 -8 1366 685 op4 0;
#X obj 384 132 pow;
#X obj 349 64 loadbang;
#X msg 384 93 2;
#X obj 366 456 +~;
#X obj 366 485 osc~;
#X obj 366 524 outlet~;
#X obj 163 247 r \$0-alg;
#X obj 419 64 / 12;
#X obj 419 93 t b f;
#X obj 47 296 r~ \$0-op1out;
#X obj 145 296 r~ \$0-op2out;
#X obj 419 229 route op4;
#X obj 419 35 route op4;
#X obj 243 296 r~ \$0-op3out;
#X obj 419 200 r \$0-freq;
#X obj 419 6 r \$0-fine;
#X obj 419 132 r \$0-note;
#X obj 419 258 t b f;
#X obj 384 297 * 1;
#X obj 384 200 *;
#X obj 419 161 t b f;
#X text 398 444 la frecuencia es modulada por la lfo y también por
los operadores 1 \, 2 y 3 de acuerdo al algoritmo seleccionado;
#X obj 513 205 r \$0-lfo-fm;
#X obj 495 287 *~;
#X obj 513 229 route op4;
#X obj 495 258 r~ \$0-lfoout-fm;
#X obj 463 374 pow~, f 5;
#X obj 495 345 /~;
#X msg 463 345 2;
#X obj 463 403 *~;
#X msg 530 287 loadbang;
#X msg 530 316 12;
#X obj 65 378 line~;
#X msg 65 349 1 5;
#X msg 111 349 0 5;
#X obj 47 407 *~;
#X obj 163 378 line~;
#X msg 163 349 1 5;
#X msg 195 349 0 5;
#X obj 145 407 *~;
#X obj 261 378 line~;
#X msg 261 349 1 5;
#X msg 349 349 0 5;
#X obj 243 407 *~;
#X obj 163 320 sel 3;
#X obj 65 320 sel 2 5;
#X obj 261 320 sel 0 1 2 3 4;
#X connect 0 0 19 0;
#X connect 1 0 2 0;
#X connect 2 0 0 0;
#X connect 3 0 4 0;
#X connect 4 0 5 0;
#X connect 6 0 44 0;
#X connect 6 0 45 0;
#X connect 6 0 46 0;
#X connect 7 0 8 0;
#X connect 8 0 0 0;
#X connect 8 1 0 1;
#X connect 9 0 35 0;
#X connect 10 0 39 0;
#X connect 11 0 17 0;
#X connect 12 0 7 0;
#X connect 13 0 43 0;
#X connect 14 0 11 0;
#X connect 15 0 12 0;
#X connect 16 0 20 0;
#X connect 16 0 29 1;
#X connect 17 0 18 0;
#X connect 17 1 18 1;
#X connect 18 0 3 1;
#X connect 19 0 18 0;
#X connect 20 0 19 0;
#X connect 20 1 19 1;
#X connect 22 0 24 0;
#X connect 23 0 27 0;
#X connect 24 0 23 1;
#X connect 25 0 23 0;
#X connect 26 0 29 0;
#X connect 27 0 26 1;
#X connect 28 0 26 0;
#X connect 29 0 3 0;
#X connect 30 0 31 0;
#X connect 30 0 28 0;
#X connect 31 0 27 1;
#X connect 32 0 35 1;
#X connect 33 0 32 0;
#X connect 34 0 32 0;
#X connect 35 0 3 0;
#X connect 36 0 39 1;
#X connect 37 0 36 0;
#X connect 38 0 36 0;
#X connect 39 0 3 0;
#X connect 40 0 43 1;
#X connect 41 0 40 0;
#X connect 42 0 40 0;
#X connect 43 0 3 0;
#X connect 44 0 37 0;
#X connect 44 1 38 0;
#X connect 45 0 33 0;
#X connect 45 1 33 0;
#X connect 45 2 34 0;
#X connect 46 0 41 0;
#X connect 46 1 41 0;
#X connect 46 2 41 0;
#X connect 46 3 41 0;
#X connect 46 4 41 0;
#X connect 46 5 42 0;
#X restore 825 191 pd op4;
#X obj 12 188 t b f;
#X obj 12 256 +;
#X obj 861 12 loadbang;
#X msg 861 41 1000;
#X obj 12 285 mtof;
#X obj 12 314 s \$0-note;
#X obj 12 130 spigot;
#X obj 463 71 t f f;
#X text 904 34 la ganancia de los operadores (entre 0 y 1) va a ser
multiplicada por este valor cuando actúen de moduladores;
#X obj 444 376 s~ \$0-op1-selfout;
#N canvas -8 -8 1366 685 gain-op1-self 0;
#X obj 12 12 inlet~;
#X obj 12 196 outlet~;
#X obj 12 157 *~;
#X obj 30 41 r \$0-gain;
#X obj 30 70 route op1-self;
#X obj 30 128 *;
#X obj 48 99 r \$0-modMap;
#X connect 0 0 2 0;
#X connect 2 0 1 0;
#X connect 3 0 4 0;
#X connect 4 0 5 0;
#X connect 5 0 2 1;
#X connect 6 0 5 1;
#X restore 444 298 pd gain-op1-self;
#N canvas 676 0 681 676 op1-self 0;
#X obj 157 138 pow;
#X obj 122 70 loadbang;
#X msg 157 99 2;
#X obj 139 361 osc~;
#X obj 139 400 outlet~;
#X obj 192 235 route op1;
#X obj 192 41 route op1;
#X obj 192 70 / 12;
#X obj 192 99 t b f;
#X obj 192 206 r \$0-freq;
#X obj 192 12 r \$0-fine;
#X obj 192 138 r \$0-note;
#X obj 157 206 *;
#X obj 157 303 * 1;
#X obj 192 264 t b f;
#X obj 192 167 t b f;
#X obj 51 201 r \$0-lfo-fm;
#X obj 33 283 *~;
#X obj 51 225 route op1-self;
#X obj 139 332 +~;
#X text 172 329 la frecuencia es modulada por la lfo;
#X text 39 453 esta es una copia casi exacta del operador 1 que tiene
su propio control de am/fm por lfo \, permitiendo que el operador 1
"automodule" pero contando con esta independencia que permite un diseño
más enriquecido;
#X obj 33 254 r~ \$0-lfoout-fm;
#X connect 0 0 12 0;
#X connect 1 0 2 0;
#X connect 2 0 0 0;
#X connect 3 0 4 0;
#X connect 5 0 14 0;
#X connect 6 0 7 0;
#X connect 7 0 8 0;
#X connect 8 0 0 0;
#X connect 8 1 0 1;
#X connect 9 0 5 0;
#X connect 10 0 6 0;
#X connect 11 0 15 0;
#X connect 12 0 13 0;
#X connect 13 0 19 1;
#X connect 14 0 13 0;
#X connect 14 1 13 1;
#X connect 15 0 12 0;
#X connect 15 1 12 1;
#X connect 16 0 18 0;
#X connect 17 0 19 0;
#X connect 18 0 17 1;
#X connect 19 0 3 0;
#X connect 22 0 17 0;
#X restore 443 191 pd op1-self;
#X obj 166 42 route alg adsr fine gain freq lfo switch, f 50;
#X obj 240 523 switch~;
#X text 405 448 acá las carriers se rutean a la salida mientras que
las moduladoras se excluyen de acuerdo al algoritmo seleccionado;
#X obj 861 70 s \$0-modMap;
#N canvas -8 -8 1366 685 lfo-am 0;
#X obj 602 88 inlet~;
#X obj 602 360 outlet~;
#X obj 602 321 *~;
#X obj 620 292 +~;
#X obj 620 234 *~;
#X obj 659 146 line~;
#X msg 659 117 \$1 1;
#X obj 456 88 inlet~;
#X obj 456 360 outlet~;
#X obj 456 321 *~;
#X obj 474 292 +~;
#X obj 474 234 *~;
#X obj 513 146 line~;
#X msg 513 117 \$1 1;
#X obj 310 88 inlet~;
#X obj 310 360 outlet~;
#X obj 310 321 *~;
#X obj 328 292 +~;
#X obj 328 234 *~;
#X obj 366 146 line~;
#X msg 366 117 \$1 1;
#X obj 18 88 inlet~;
#X obj 18 360 outlet~;
#X obj 18 321 *~;
#X obj 36 292 +~;
#X obj 36 234 *~;
#X obj 74 146 line~;
#X msg 74 117 \$1 1;
#X obj 164 88 inlet~;
#X obj 164 360 outlet~;
#X obj 164 321 *~;
#X obj 182 292 +~;
#X obj 182 234 *~;
#X obj 220 146 line~;
#X msg 220 117 \$1 1;
#X obj 74 49 route op1 op1-self op2 op3 op4, f 105;
#X text 816 127 acá se recibe la ganancia que se le quiere aplicar
al lfo independientemente para cada uno de los cinco osciladores (operadores
1-4 y la copia del operador 1 que se utiliza para automodularlo);
#X obj 74 20 r \$0-lfo-am;
#X obj 36 185 r~ \$0-lfoout-am;
#X obj 641 263 -~;
#X obj 789 220 loadbang;
#X msg 789 244 1;
#X obj 495 263 -~;
#X obj 348 263 -~;
#X obj 202 263 -~;
#X obj 56 263 -~;
#X connect 0 0 2 0;
#X connect 2 0 1 0;
#X connect 3 0 2 1;
#X connect 4 0 3 0;
#X connect 5 0 4 1;
#X connect 5 0 39 1;
#X connect 6 0 5 0;
#X connect 7 0 9 0;
#X connect 9 0 8 0;
#X connect 10 0 9 1;
#X connect 11 0 10 0;
#X connect 12 0 11 1;
#X connect 12 0 42 1;
#X connect 13 0 12 0;
#X connect 14 0 16 0;
#X connect 16 0 15 0;
#X connect 17 0 16 1;
#X connect 18 0 17 0;
#X connect 19 0 18 1;
#X connect 19 0 43 1;
#X connect 20 0 19 0;
#X connect 21 0 23 0;
#X connect 23 0 22 0;
#X connect 24 0 23 1;
#X connect 25 0 24 0;
#X connect 26 0 25 1;
#X connect 26 0 45 1;
#X connect 27 0 26 0;
#X connect 28 0 30 0;
#X connect 30 0 29 0;
#X connect 31 0 30 1;
#X connect 32 0 31 0;
#X connect 33 0 32 1;
#X connect 33 0 44 1;
#X connect 34 0 33 0;
#X connect 35 0 27 0;
#X connect 35 1 34 0;
#X connect 35 2 20 0;
#X connect 35 3 13 0;
#X connect 35 4 6 0;
#X connect 37 0 35 0;
#X connect 38 0 25 0;
#X connect 38 0 32 0;
#X connect 38 0 18 0;
#X connect 38 0 11 0;
#X connect 38 0 4 0;
#X connect 39 0 3 1;
#X connect 40 0 41 0;
#X connect 41 0 39 0;
#X connect 41 0 42 0;
#X connect 41 0 43 0;
#X connect 41 0 44 0;
#X connect 41 0 45 0;
#X connect 42 0 10 1;
#X connect 43 0 17 1;
#X connect 44 0 31 1;
#X connect 45 0 24 1;
#X restore 317 337 pd lfo-am;
#X f 73;
#X obj 463 100 sel 0;
#X msg 463 124 0;
#N canvas 0 50 450 300 lfo 0;
#X obj 91 28 inlet;
#X obj 91 57 route am fm;
#X obj 91 81 s \$0-lfo-am;
#X obj 128 105 s \$0-lfo-fm;
#X connect 0 0 1 0;
#X connect 1 0 2 0;
#X connect 1 1 3 0;
#X restore 413 100 pd lfo;
#X connect 0 0 43 0;
#X connect 1 0 21 0;
#X connect 1 1 2 0;
#X connect 2 0 38 0;
#X connect 3 0 31 0;
#X connect 6 0 47 0;
#X connect 11 0 30 0;
#X connect 12 0 29 0;
#X connect 13 0 28 0;
#X connect 14 0 49 0;
#X connect 21 0 20 0;
#X connect 22 0 37 0;
#X connect 22 1 1 0;
#X connect 23 0 50 0;
#X connect 24 0 13 1;
#X connect 25 0 12 1;
#X connect 26 0 11 1;
#X connect 27 0 3 1;
#X connect 27 0 6 1;
#X connect 28 0 53 4;
#X connect 29 0 53 3;
#X connect 30 0 53 2;
#X connect 31 0 53 0;
#X connect 32 0 23 0;
#X connect 32 0 5 0;
#X connect 33 0 3 0;
#X connect 34 0 11 0;
#X connect 35 0 12 0;
#X connect 36 0 13 0;
#X connect 37 0 2 0;
#X connect 37 1 38 1;
#X connect 38 0 41 0;
#X connect 39 0 40 0;
#X connect 40 0 52 0;
#X connect 41 0 42 0;
#X connect 43 0 22 0;
#X connect 44 0 54 0;
#X connect 44 1 43 1;
#X connect 47 0 53 1;
#X connect 48 0 6 0;
#X connect 49 0 15 0;
#X connect 49 1 16 0;
#X connect 49 2 17 0;
#X connect 49 3 18 0;
#X connect 49 4 19 0;
#X connect 49 5 56 0;
#X connect 49 6 44 0;
#X connect 53 0 4 0;
#X connect 53 1 46 0;
#X connect 53 2 7 0;
#X connect 53 3 8 0;
#X connect 53 4 9 0;
#X connect 54 0 55 0;
#X connect 55 0 20 0;
