#N canvas -8 -8 1366 685 12;
#X obj 12 71 inlet;
#X obj 89 168 swap;
#X obj 12 207 f;
#X obj 317 269 *~;
#X obj 317 376 s~ \$0-op1out;
#X obj 191 494 outlet~;
#X obj 443 269 *~;
#N canvas -8 -8 1366 685 lfoRouting 0;
#X obj 194 12 r \$0-lfo;
#X obj 596 90 inlet~;
#X obj 596 371 outlet~;
#X obj 596 332 *~;
#X obj 614 303 +~;
#X obj 614 245 *~;
#X obj 614 129 r~ \$0-lfoout;
#X obj 652 216 line~;
#X msg 652 187 \$1 1;
#X obj 652 274 expr~ 1-$v1;
#X obj 450 90 inlet~;
#X obj 450 371 outlet~;
#X obj 450 332 *~;
#X obj 468 303 +~;
#X obj 468 245 *~;
#X obj 468 129 r~ \$0-lfoout;
#X obj 506 216 line~;
#X msg 506 187 \$1 1;
#X obj 506 274 expr~ 1-$v1;
#X obj 304 90 inlet~;
#X obj 304 371 outlet~;
#X obj 304 332 *~;
#X obj 322 303 +~;
#X obj 322 245 *~;
#X obj 322 129 r~ \$0-lfoout;
#X obj 360 216 line~;
#X msg 360 187 \$1 1;
#X obj 360 274 expr~ 1-$v1;
#X obj 12 90 inlet~;
#X obj 12 371 outlet~;
#X obj 12 332 *~;
#X obj 30 303 +~;
#X obj 30 245 *~;
#X obj 30 129 r~ \$0-lfoout;
#X obj 68 216 line~;
#X msg 68 187 \$1 1;
#X obj 68 274 expr~ 1-$v1;
#X text 83 470 acá se rutea la lfo a la ganancia de cada operador
;
#X obj 158 90 inlet~;
#X obj 158 371 outlet~;
#X obj 158 332 *~;
#X obj 176 303 +~;
#X obj 176 245 *~;
#X obj 176 129 r~ \$0-lfoout;
#X obj 214 216 line~;
#X msg 214 187 \$1 1;
#X obj 214 274 expr~ 1-$v1;
#X obj 194 41 route op1 op1-self op2 op3 op4;
#X connect 0 0 47 0;
#X connect 1 0 3 0;
#X connect 3 0 2 0;
#X connect 4 0 3 1;
#X connect 5 0 4 0;
#X connect 6 0 5 0;
#X connect 7 0 5 1;
#X connect 7 0 9 0;
#X connect 8 0 7 0;
#X connect 9 0 4 1;
#X connect 10 0 12 0;
#X connect 12 0 11 0;
#X connect 13 0 12 1;
#X connect 14 0 13 0;
#X connect 15 0 14 0;
#X connect 16 0 14 1;
#X connect 16 0 18 0;
#X connect 17 0 16 0;
#X connect 18 0 13 1;
#X connect 19 0 21 0;
#X connect 21 0 20 0;
#X connect 22 0 21 1;
#X connect 23 0 22 0;
#X connect 24 0 23 0;
#X connect 25 0 23 1;
#X connect 25 0 27 0;
#X connect 26 0 25 0;
#X connect 27 0 22 1;
#X connect 28 0 30 0;
#X connect 30 0 29 0;
#X connect 31 0 30 1;
#X connect 32 0 31 0;
#X connect 33 0 32 0;
#X connect 34 0 32 1;
#X connect 34 0 36 0;
#X connect 35 0 34 0;
#X connect 36 0 31 1;
#X connect 38 0 40 0;
#X connect 40 0 39 0;
#X connect 41 0 40 1;
#X connect 42 0 41 0;
#X connect 43 0 42 0;
#X connect 44 0 42 1;
#X connect 44 0 46 0;
#X connect 45 0 44 0;
#X connect 46 0 41 1;
#X connect 47 0 35 0;
#X connect 47 1 45 0;
#X connect 47 2 26 0;
#X connect 47 3 17 0;
#X connect 47 4 8 0;
#X restore 317 337 pd lfoRouting;
#X f 73;
#X obj 571 376 s~ \$0-op2out;
#X obj 698 376 s~ \$0-op3out;
#X obj 825 376 s~ \$0-op4out;
#N canvas 848 0 423 676 lfo 0;
#X obj 12 51 route lfo;
#X obj 12 80 osc~;
#X obj 12 201 *~;
#X obj 12 240 +~;
#X obj 54 109 route lfo;
#X obj 12 23 r \$0-freq;
#X obj 54 80 r \$0-gain;
#X obj 12 279 s~ \$0-lfoout;
#X obj 30 167 line~;
#X msg 30 138 \$1 1;
#X obj 47 201 expr~ 1-$v1;
#X connect 0 0 1 0;
#X connect 1 0 2 0;
#X connect 2 0 3 0;
#X connect 3 0 7 0;
#X connect 4 0 9 0;
#X connect 5 0 0 0;
#X connect 6 0 4 0;
#X connect 8 0 2 1;
#X connect 8 0 10 0;
#X connect 9 0 8 0;
#X connect 10 0 3 1;
#X restore 923 191 pd lfo;
#X obj 571 269 *~;
#X obj 698 269 *~;
#X obj 825 269 *~;
#X obj 166 32 inlet;
#X obj 166 109 s \$0-alg;
#X obj 238 32 inlet;
#X obj 238 109 s \$0-adsr;
#X obj 310 32 inlet;
#X obj 310 109 s \$0-fine;
#X obj 382 32 inlet;
#X obj 382 109 s \$0-gain;
#X obj 454 32 inlet;
#X obj 454 109 s \$0-freq;
#X obj 527 32 inlet;
#X obj 527 109 s \$0-lfo;
#X obj 89 294 s \$0-vel;
#X obj 89 265 / 127;
#X obj 12 129 route bend;
#N canvas -8 -8 1366 685 switch 0;
#X obj 82 12 inlet~;
#X obj 82 99 snapshot~;
#X obj 205 16 loadbang;
#X obj 205 45 tgl 15 0 empty empty empty 17 7 0 10 -262144 -1 -1 1
1;
#X obj 12 12 r \$0-vel;
#X floatatom 82 131 5 0 0 0 - - -;
#X msg 12 188 1;
#X msg 82 188 0;
#X obj 82 159 sel 0;
#X obj 12 227 outlet;
#X obj 82 70 *~ 1;
#X obj 138 12 inlet;
#X obj 205 70 metro 1000;
#X obj 138 41 t b f;
#X text 318 154 la suma de envolventes es multiplicada por el valor
de power \, esto se usa para apagar forzosamente el dsp de las voces
desde fuera del parche;
#X text 318 79 esto recibe la salida de la envolvente de cada operador
\, si dicha suma es igual a 0 entonces el dsp de esta voz se apaga
hasta la próxima nota midi;
#X connect 0 0 10 0;
#X connect 1 0 5 0;
#X connect 2 0 3 0;
#X connect 3 0 12 0;
#X connect 4 0 6 0;
#X connect 5 0 8 0;
#X connect 6 0 9 0;
#X connect 7 0 9 0;
#X connect 8 0 7 0;
#X connect 10 0 1 0;
#X connect 11 0 13 0;
#X connect 12 0 1 0;
#X connect 13 0 12 0;
#X connect 13 1 10 1;
#X restore 923 269 pd switch;
#X obj 923 298 switch~;
#N canvas 846 0 450 676 adsr-op4 0;
#X obj 48 12 r \$0-adsr;
#X obj 48 70 route att dec sus rel;
#X obj 12 138 adsr~, f 21;
#X obj 12 177 outlet~;
#X obj 12 109 r \$0-vel;
#X obj 48 41 route op4 op1 op2 op3;
#X connect 0 0 5 0;
#X connect 1 0 2 1;
#X connect 1 1 2 2;
#X connect 1 2 2 3;
#X connect 1 3 2 4;
#X connect 2 0 3 0;
#X connect 4 0 2 0;
#X connect 5 0 1 0;
#X connect 5 4 2 0;
#X restore 843 230 pd adsr-op4;
#N canvas 846 0 450 676 adsr-op3 0;
#X obj 48 12 r \$0-adsr;
#X obj 48 80 route att dec sus rel;
#X obj 12 148 adsr~, f 21;
#X obj 12 187 outlet~;
#X obj 12 119 r \$0-vel;
#X obj 48 51 route op3 op1 op2 op4;
#X connect 0 0 5 0;
#X connect 1 0 2 1;
#X connect 1 1 2 2;
#X connect 1 2 2 3;
#X connect 1 3 2 4;
#X connect 2 0 3 0;
#X connect 4 0 2 0;
#X connect 5 0 1 0;
#X connect 5 4 2 0;
#X restore 716 230 pd adsr-op3;
#N canvas 846 0 450 676 adsr-op2 0;
#X obj 48 12 r \$0-adsr;
#X obj 48 80 route att dec sus rel;
#X obj 12 148 adsr~, f 21;
#X obj 12 187 outlet~;
#X obj 12 119 r \$0-vel;
#X obj 48 51 route op2 op1 op3 op4;
#X connect 0 0 5 0;
#X connect 1 0 2 1;
#X connect 1 1 2 2;
#X connect 1 2 2 3;
#X connect 1 3 2 4;
#X connect 2 0 3 0;
#X connect 4 0 2 0;
#X connect 5 0 1 0;
#X connect 5 4 2 0;
#X restore 589 230 pd adsr-op2;
#N canvas 846 0 450 676 adsr-op1 0;
#X obj 48 12 r \$0-adsr;
#X obj 48 80 route att dec sus rel;
#X obj 12 148 adsr~, f 21;
#X obj 12 187 outlet~;
#X obj 12 119 r \$0-vel;
#X obj 48 51 route op1 op2 op3 op4;
#X connect 0 0 5 0;
#X connect 1 0 2 1;
#X connect 1 1 2 2;
#X connect 1 2 2 3;
#X connect 1 3 2 4;
#X connect 2 0 3 0;
#X connect 4 0 2 0;
#X connect 5 0 1 0;
#X connect 5 4 2 0;
#X restore 335 230 pd adsr-op1;
#N canvas 0 0 366 676 gain-op4 0;
#X obj 12 11 inlet~;
#X obj 12 205 outlet~;
#X obj 12 166 *~;
#X obj 30 79 route op4;
#X obj 30 137 line~;
#X msg 30 108 \$1 1;
#X obj 30 50 r \$0-gain;
#X connect 0 0 2 0;
#X connect 2 0 1 0;
#X connect 3 0 5 0;
#X connect 4 0 2 1;
#X connect 5 0 4 0;
#X connect 6 0 3 0;
#X restore 825 298 pd gain-op4;
#N canvas 37 0 374 676 gain-op3 0;
#X obj 12 12 inlet~;
#X obj 12 328 outlet~;
#X obj 12 289 *~;
#X obj 132 128 * 1;
#X obj 30 69 r \$0-alg;
#X obj 150 99 r \$0-ampMidiMap;
#X obj 100 41 route op3;
#X obj 30 138 sel 5 6 7;
#X obj 100 12 r \$0-gain;
#X obj 30 202 f;
#X obj 30 177 bng 15 250 50 0 empty empty empty 17 7 0 10 -262144 -1
-1;
#X obj 65 202 f;
#X obj 65 177 bng 15 250 50 0 empty empty empty 17 7 0 10 -262144 -1
-1;
#X obj 30 260 line~;
#X msg 30 231 \$1 1;
#X obj 30 109 f;
#X obj 100 70 t b f;
#X connect 0 0 2 0;
#X connect 2 0 1 0;
#X connect 3 0 11 1;
#X connect 4 0 15 0;
#X connect 5 0 3 1;
#X connect 6 0 16 0;
#X connect 7 0 10 0;
#X connect 7 1 10 0;
#X connect 7 2 10 0;
#X connect 7 3 12 0;
#X connect 8 0 6 0;
#X connect 9 0 14 0;
#X connect 10 0 9 0;
#X connect 11 0 14 0;
#X connect 12 0 11 0;
#X connect 13 0 2 1;
#X connect 14 0 13 0;
#X connect 15 0 7 0;
#X connect 16 0 15 0;
#X connect 16 1 9 1;
#X connect 16 1 3 0;
#X restore 698 298 pd gain-op3;
#N canvas -8 -8 1366 685 gain-op2 0;
#X obj 12 12 inlet~;
#X obj 12 328 outlet~;
#X obj 12 289 *~;
#X obj 132 99 * 1;
#X obj 30 70 r \$0-alg;
#X obj 150 70 r \$0-ampMidiMap;
#X obj 100 41 route op2;
#X obj 30 138 sel 4 5 6 7;
#X obj 100 12 r \$0-gain;
#X obj 30 202 f;
#X obj 30 177 bng 15 250 50 0 empty empty empty 17 7 0 10 -262144 -1
-1;
#X obj 65 202 f;
#X obj 65 177 bng 15 250 50 0 empty empty empty 17 7 0 10 -262144 -1
-1;
#X obj 30 260 line~;
#X msg 30 231 \$1 1;
#X obj 30 109 f;
#X obj 100 70 t b f;
#X connect 0 0 2 0;
#X connect 2 0 1 0;
#X connect 3 0 11 1;
#X connect 4 0 15 0;
#X connect 5 0 3 1;
#X connect 6 0 16 0;
#X connect 7 0 10 0;
#X connect 7 1 10 0;
#X connect 7 2 10 0;
#X connect 7 3 10 0;
#X connect 7 4 12 0;
#X connect 8 0 6 0;
#X connect 9 0 14 0;
#X connect 10 0 9 0;
#X connect 11 0 14 0;
#X connect 12 0 11 0;
#X connect 13 0 2 1;
#X connect 14 0 13 0;
#X connect 15 0 7 0;
#X connect 16 0 15 0;
#X connect 16 1 3 0;
#X connect 16 1 9 1;
#X restore 571 298 pd gain-op2;
#N canvas -8 -8 1366 685 gain-op1 0;
#X obj 12 12 inlet~;
#X obj 12 328 outlet~;
#X obj 12 289 *~;
#X obj 100 41 route op1;
#X obj 132 99 * 1;
#X obj 30 70 r \$0-alg;
#X obj 30 138 sel 7;
#X obj 150 70 r \$0-ampMidiMap;
#X obj 100 12 r \$0-gain;
#X obj 30 192 f;
#X obj 65 192 f;
#X obj 30 167 bng 15 250 50 0 empty empty empty 17 7 0 10 -262144 -1
-1;
#X obj 65 167 bng 15 250 50 0 empty empty empty 17 7 0 10 -262144 -1
-1;
#X obj 30 250 line~;
#X msg 30 221 \$1 1;
#X obj 30 109 f;
#X obj 100 70 t b f;
#X connect 0 0 2 0;
#X connect 2 0 1 0;
#X connect 3 0 16 0;
#X connect 4 0 10 1;
#X connect 5 0 15 0;
#X connect 6 0 11 0;
#X connect 6 1 12 0;
#X connect 7 0 4 1;
#X connect 8 0 3 0;
#X connect 9 0 14 0;
#X connect 10 0 14 0;
#X connect 11 0 9 0;
#X connect 12 0 10 0;
#X connect 13 0 2 1;
#X connect 14 0 13 0;
#X connect 15 0 6 0;
#X connect 16 0 15 0;
#X connect 16 1 4 0;
#X connect 16 1 9 1;
#X restore 317 298 pd gain-op1;
#N canvas 0 0 525 676 carriers 0;
#X obj 139 141 outlet~;
#X obj 12 14 r \$0-alg;
#X obj 12 43 + 1;
#X obj 86 12 r~ \$0-op1out;
#X obj 184 12 r~ \$0-op2out;
#X obj 285 12 r~ \$0-op3out;
#X obj 383 12 r~ \$0-op4out;
#X obj 139 82 selector8~, f 11;
#X obj 12 82 selector8~, f 11;
#X obj 230 82 selector8~, f 11;
#X obj 374 82 selector8~, f 11;
#X connect 1 0 2 0;
#X connect 2 0 7 0;
#X connect 2 0 8 0;
#X connect 2 0 9 0;
#X connect 2 0 10 0;
#X connect 3 0 8 8;
#X connect 4 0 7 8;
#X connect 4 0 7 7;
#X connect 4 0 7 6;
#X connect 4 0 7 5;
#X connect 5 0 9 8;
#X connect 5 0 9 7;
#X connect 5 0 9 6;
#X connect 6 0 10 1;
#X connect 6 0 10 2;
#X connect 6 0 10 3;
#X connect 6 0 10 4;
#X connect 6 0 10 5;
#X connect 6 0 10 6;
#X connect 6 0 10 7;
#X connect 6 0 10 8;
#X connect 7 0 0 0;
#X connect 8 0 0 0;
#X connect 9 0 0 0;
#X connect 10 0 0 0;
#X restore 191 435 pd carriers;
#N canvas -8 -8 1366 685 op1 0;
#X obj 52 138 pow;
#X obj 17 70 loadbang;
#X msg 52 99 2;
#X obj 34 371 +~;
#X obj 34 400 osc~;
#X obj 34 439 outlet~;
#X obj 87 245 route op1;
#X obj 87 41 route op1;
#X obj 87 70 / 12;
#X obj 87 99 t b f;
#X obj 87 216 r \$0-freq;
#X obj 87 12 r \$0-fine;
#X obj 87 138 r \$0-note;
#X obj 52 216 *;
#X obj 52 313 * 1;
#X obj 87 177 t b f;
#X obj 87 274 t b f;
#X text 67 371 la frecuencia es modulada por "sí misma";
#X obj 34 342 r~ \$0-op1-selfout;
#X connect 0 0 13 0;
#X connect 1 0 2 0;
#X connect 2 0 0 0;
#X connect 3 0 4 0;
#X connect 4 0 5 0;
#X connect 6 0 16 0;
#X connect 7 0 8 0;
#X connect 8 0 9 0;
#X connect 9 0 0 0;
#X connect 9 1 0 1;
#X connect 10 0 6 0;
#X connect 11 0 7 0;
#X connect 12 0 15 0;
#X connect 13 0 14 0;
#X connect 14 0 3 1;
#X connect 15 0 13 0;
#X connect 15 1 13 1;
#X connect 16 0 14 0;
#X connect 16 1 14 1;
#X connect 18 0 3 0;
#X restore 317 191 pd op1;
#N canvas -8 -8 1366 685 op2 0;
#X obj 130 138 pow;
#X obj 95 70 loadbang;
#X msg 130 99 2;
#X obj 112 332 +~;
#X obj 112 361 osc~;
#X obj 112 400 outlet~;
#X obj 12 147 r \$0-alg;
#X obj 165 70 / 12;
#X obj 165 99 t b f;
#X obj 22 215 r~ \$0-op1out;
#X obj 12 176 + 1;
#X obj 165 225 route op2;
#X obj 165 41 route op2;
#X obj 12 293 selector8~, f 11;
#X obj 165 196 r \$0-freq;
#X obj 165 12 r \$0-fine;
#X obj 165 138 r \$0-note;
#X obj 165 167 t b f;
#X obj 165 254 t b f;
#X obj 130 196 *;
#X obj 130 293 * 1;
#X text 153 324 la frecuencia es modulada (o no) por el operador 1
de acuerdo al algoritmo seleccionado;
#X connect 0 0 19 0;
#X connect 1 0 2 0;
#X connect 2 0 0 0;
#X connect 3 0 4 0;
#X connect 4 0 5 0;
#X connect 6 0 10 0;
#X connect 7 0 8 0;
#X connect 8 0 0 0;
#X connect 8 1 0 1;
#X connect 9 0 13 1;
#X connect 9 0 13 4;
#X connect 9 0 13 5;
#X connect 9 0 13 6;
#X connect 9 0 13 7;
#X connect 10 0 13 0;
#X connect 11 0 18 0;
#X connect 12 0 7 0;
#X connect 13 0 3 0;
#X connect 14 0 11 0;
#X connect 15 0 12 0;
#X connect 16 0 17 0;
#X connect 17 0 19 0;
#X connect 17 1 19 1;
#X connect 18 0 20 0;
#X connect 18 1 20 1;
#X connect 19 0 20 0;
#X connect 20 0 3 1;
#X restore 571 191 pd op2;
#N canvas -8 -8 1366 685 op3 0;
#X obj 235 136 pow;
#X obj 200 68 loadbang;
#X msg 235 97 2;
#X obj 217 350 +~;
#X obj 217 379 osc~;
#X obj 217 418 outlet~;
#X obj 65 155 r \$0-alg;
#X obj 270 68 / 12;
#X obj 270 97 t b f;
#X obj 29 223 r~ \$0-op1out;
#X obj 65 184 + 1;
#X obj 270 233 route op3;
#X obj 270 39 route op3;
#X obj 127 223 r~ \$0-op2out;
#X obj 117 301 selector8~, f 11;
#X obj 12 301 selector8~, f 11;
#X obj 270 204 r \$0-freq;
#X obj 270 10 r \$0-fine;
#X obj 270 136 r \$0-note;
#X obj 270 165 t b f;
#X obj 270 262 t b f;
#X obj 235 301 * 1;
#X obj 235 204 *;
#X text 246 348 la frecuencia es modulada (o no) por los operadores
1 y 2 de acuerdo al algoritmo seleccionado;
#X connect 0 0 22 0;
#X connect 1 0 2 0;
#X connect 2 0 0 0;
#X connect 3 0 4 0;
#X connect 4 0 5 0;
#X connect 6 0 10 0;
#X connect 7 0 8 0;
#X connect 8 0 0 0;
#X connect 8 1 0 1;
#X connect 9 0 15 2;
#X connect 9 0 15 6;
#X connect 10 0 14 0;
#X connect 10 0 15 0;
#X connect 11 0 20 0;
#X connect 12 0 7 0;
#X connect 13 0 14 1;
#X connect 13 0 14 2;
#X connect 13 0 14 3;
#X connect 14 0 3 0;
#X connect 15 0 3 0;
#X connect 16 0 11 0;
#X connect 17 0 12 0;
#X connect 18 0 19 0;
#X connect 19 0 22 0;
#X connect 19 1 22 1;
#X connect 20 0 21 0;
#X connect 20 1 21 1;
#X connect 21 0 3 1;
#X connect 22 0 21 0;
#X restore 698 191 pd op3;
#N canvas -8 -8 1366 685 op4 0;
#X obj 335 138 pow;
#X obj 300 70 loadbang;
#X msg 335 99 2;
#X obj 317 362 +~;
#X obj 317 391 osc~;
#X obj 317 430 outlet~;
#X obj 103 157 r \$0-alg;
#X obj 370 70 / 12;
#X obj 370 99 t b f;
#X obj 39 225 r~ \$0-op1out;
#X obj 103 186 + 1;
#X obj 139 225 r~ \$0-op2out;
#X obj 370 235 route op4;
#X obj 370 41 route op4;
#X obj 237 225 r~ \$0-op3out;
#X obj 103 303 selector8~, f 11;
#X obj 228 303 selector8~, f 11;
#X obj 12 303 selector8~, f 11;
#X obj 370 206 r \$0-freq;
#X obj 370 12 r \$0-fine;
#X obj 370 138 r \$0-note;
#X obj 370 264 t b f;
#X obj 335 303 * 1;
#X obj 335 206 *;
#X obj 370 167 t b f;
#X text 348 353 la frecuencia es modulada (o no) por los operadores
1 \, 2 y 3 de acuerdo al algoritmo seleccionado;
#X connect 0 0 23 0;
#X connect 1 0 2 0;
#X connect 2 0 0 0;
#X connect 3 0 4 0;
#X connect 4 0 5 0;
#X connect 6 0 10 0;
#X connect 7 0 8 0;
#X connect 8 0 0 0;
#X connect 8 1 0 1;
#X connect 9 0 17 6;
#X connect 9 0 17 3;
#X connect 10 0 15 0;
#X connect 10 0 16 0;
#X connect 10 0 17 0;
#X connect 11 0 15 4;
#X connect 12 0 21 0;
#X connect 13 0 7 0;
#X connect 14 0 16 1;
#X connect 14 0 16 2;
#X connect 14 0 16 3;
#X connect 14 0 16 4;
#X connect 14 0 16 5;
#X connect 15 0 3 0;
#X connect 16 0 3 0;
#X connect 17 0 3 0;
#X connect 18 0 12 0;
#X connect 19 0 13 0;
#X connect 20 0 24 0;
#X connect 21 0 22 0;
#X connect 21 1 22 1;
#X connect 22 0 3 1;
#X connect 23 0 22 0;
#X connect 24 0 23 0;
#X connect 24 1 23 1;
#X restore 825 191 pd op4;
#X obj 12 168 t b f;
#X obj 12 236 +;
#X obj 661 12 loadbang;
#X msg 661 41 1000;
#X obj 661 70 s \$0-ampMidiMap;
#X obj 12 265 mtof;
#X obj 12 294 s \$0-note;
#X obj 592 12 inlet;
#X obj 12 100 spigot;
#X obj 592 61 t f f;
#X text 598 29 power;
#X text 533 52 lfo;
#X text 459 52 frequency;
#X text 388 52 gain;
#X text 315 52 fine;
#X text 244 52 adsr;
#X text 171 52 algorithm;
#X text 775 65 la ganancia de los operadores (entre 0 y 1) va a ser
multiplicada por este valor cuando actúen de moduladores;
#X text 279 429 acá las carriers se rutean hacia la salida \, mientras
que las moduladoras se excluyen;
#X obj 444 376 s~ \$0-op1-selfout;
#N canvas -8 -8 1366 685 gain-op1-self 0;
#X obj 12 12 inlet~;
#X obj 12 196 outlet~;
#X obj 12 157 *~;
#X obj 30 128 * 1;
#X obj 48 99 r \$0-ampMidiMap;
#X obj 30 41 r \$0-gain;
#X obj 30 70 route op1-self;
#X connect 0 0 2 0;
#X connect 2 0 1 0;
#X connect 3 0 2 1;
#X connect 4 0 3 1;
#X connect 5 0 6 0;
#X connect 6 0 3 0;
#X restore 444 298 pd gain-op1-self;
#N canvas 676 0 492 676 op1-self 0;
#X obj 47 138 pow;
#X obj 12 70 loadbang;
#X msg 47 99 2;
#X obj 47 332 osc~;
#X obj 47 371 outlet~;
#X obj 82 235 route op1;
#X obj 82 41 route op1;
#X obj 82 70 / 12;
#X obj 82 99 t b f;
#X obj 82 206 r \$0-freq;
#X obj 82 12 r \$0-fine;
#X obj 82 138 r \$0-note;
#X obj 47 206 *;
#X obj 47 303 * 1;
#X obj 82 264 t b f;
#X obj 82 167 t b f;
#X text 21 410 esta es una copia casi exacta del operador 1 excepto
que tiene su propio control de ganancia y lfo \, permitiendo que el
operador 1 "automodule" \, me pareció más fácil y flexible trabajar
así que con verdadera automodulación;
#X connect 0 0 12 0;
#X connect 1 0 2 0;
#X connect 2 0 0 0;
#X connect 3 0 4 0;
#X connect 5 0 14 0;
#X connect 6 0 7 0;
#X connect 7 0 8 0;
#X connect 8 0 0 0;
#X connect 8 1 0 1;
#X connect 9 0 5 0;
#X connect 10 0 6 0;
#X connect 11 0 15 0;
#X connect 12 0 13 0;
#X connect 13 0 3 0;
#X connect 14 0 13 0;
#X connect 14 1 13 1;
#X connect 15 0 12 0;
#X connect 15 1 12 1;
#X restore 443 191 pd op1-self;
#X connect 0 0 53 0;
#X connect 1 0 28 0;
#X connect 1 1 2 0;
#X connect 2 0 46 0;
#X connect 3 0 39 0;
#X connect 6 0 65 0;
#X connect 7 0 4 0;
#X connect 7 1 64 0;
#X connect 7 2 8 0;
#X connect 7 3 9 0;
#X connect 7 4 10 0;
#X connect 12 0 38 0;
#X connect 13 0 37 0;
#X connect 14 0 36 0;
#X connect 15 0 16 0;
#X connect 17 0 18 0;
#X connect 19 0 20 0;
#X connect 21 0 22 0;
#X connect 23 0 24 0;
#X connect 25 0 26 0;
#X connect 28 0 27 0;
#X connect 29 0 45 0;
#X connect 29 1 1 0;
#X connect 30 0 31 0;
#X connect 32 0 14 1;
#X connect 32 0 30 0;
#X connect 33 0 13 1;
#X connect 33 0 30 0;
#X connect 34 0 12 1;
#X connect 34 0 30 0;
#X connect 35 0 3 1;
#X connect 35 0 6 1;
#X connect 35 0 30 0;
#X connect 36 0 7 4;
#X connect 37 0 7 3;
#X connect 38 0 7 2;
#X connect 39 0 7 0;
#X connect 40 0 5 0;
#X connect 41 0 3 0;
#X connect 42 0 12 0;
#X connect 43 0 13 0;
#X connect 44 0 14 0;
#X connect 45 0 2 0;
#X connect 45 1 46 1;
#X connect 46 0 50 0;
#X connect 47 0 48 0;
#X connect 48 0 49 0;
#X connect 50 0 51 0;
#X connect 52 0 54 0;
#X connect 53 0 29 0;
#X connect 54 0 30 1;
#X connect 54 1 53 1;
#X connect 65 0 7 1;
#X connect 66 0 6 0;
